<svg xmlns="http://www.w3.org/2000/svg" xmlns:xlink="http://www.w3.org/1999/xlink" width="500" zoomAndPan="magnify" viewBox="0 0 375 374.999991" height="500" preserveAspectRatio="xMidYMid meet" version="1.0"><defs><clipPath id="d83ebe72d9"><path d="M 178 74.007812 L 191.375 74.007812 L 191.375 88 L 178 88 Z M 178 74.007812 " clip-rule="nonzero"/></clipPath><clipPath id="370a411355"><path d="M 182.054688 74.730469 C 184.15625 77.882812 190.265625 78.472656 190.789062 79.394531 C 190.988281 79.722656 190.460938 80.378906 190.527344 80.378906 C 190.59375 80.378906 191.183594 79.589844 191.117188 79.523438 C 190.988281 79.394531 188.164062 81.167969 187.242188 82.480469 C 186.261719 83.855469 186.386719 87.734375 185.667969 87.796875 C 184.945312 87.863281 184.023438 84.054688 182.84375 82.480469 C 181.59375 80.835938 178.25 79.394531 178.378906 78.214844 C 178.441406 77.226562 181.859375 75.71875 181.992188 75.847656 C 182.121094 75.976562 179.230469 79.261719 179.035156 79.195312 C 178.96875 79.128906 179.101562 78.40625 179.296875 78.339844 C 179.824219 78.148438 182.320312 80.246094 183.433594 81.625 C 184.617188 83.136719 186.261719 86.417969 186.0625 87.273438 C 185.996094 87.601562 185.535156 87.863281 185.339844 87.796875 C 185.011719 87.667969 184.878906 86.09375 185.011719 85.171875 C 185.140625 84.121094 185.734375 82.609375 186.386719 81.757812 C 186.914062 81.035156 187.570312 80.511719 188.359375 80.117188 C 189.148438 79.722656 190.988281 79.328125 191.117188 79.523438 C 191.183594 79.65625 190.921875 80.246094 190.527344 80.378906 C 189.476562 80.707031 185.011719 78.671875 183.5 77.882812 C 182.710938 77.425781 182.121094 77.09375 181.792969 76.570312 C 181.464844 76.042969 181.269531 74.863281 181.464844 74.664062 C 181.59375 74.535156 182.054688 74.730469 182.054688 74.730469 " clip-rule="nonzero"/></clipPath><clipPath id="8031e77dbf"><path d="M 189.015625 71.261719 L 204.878906 71.261719 L 204.878906 88.847656 L 189.015625 88.847656 Z M 189.015625 71.261719 " clip-rule="nonzero"/></clipPath><clipPath id="0f8d439251"><path d="M 189.738281 79.65625 C 198.144531 76.570312 199.0625 75.785156 199.722656 74.796875 C 200.3125 73.878906 200.3125 71.84375 200.835938 71.777344 C 201.6875 71.710938 204.839844 76.175781 204.578125 77.949219 C 204.316406 79.65625 201.035156 80.707031 199.457031 82.414062 C 197.816406 84.253906 195.910156 88.652344 194.925781 88.71875 C 194.464844 88.71875 194.207031 88.125 193.875 87.535156 C 193.21875 86.351562 192.957031 82.808594 192.101562 81.425781 C 191.578125 80.511719 190.066406 79.65625 190.132812 79.523438 C 190.265625 79.394531 192.300781 79.984375 193.023438 80.769531 C 194.007812 81.824219 194.597656 84.578125 194.925781 86.027344 C 195.121094 87.007812 195.320312 88.523438 195.054688 88.652344 C 194.925781 88.71875 194.269531 88.390625 194.207031 87.996094 C 194.074219 87.074219 196.699219 84.121094 197.949219 82.546875 C 198.996094 81.234375 200.113281 79.917969 201.164062 79.128906 C 201.953125 78.539062 203.398438 78.605469 203.59375 77.882812 C 203.855469 76.898438 200.570312 74.140625 200.3125 73.089844 C 200.179688 72.632812 200.179688 72.234375 200.378906 72.039062 C 200.570312 71.84375 201.097656 71.777344 201.296875 71.972656 C 201.625 72.300781 201.296875 74.140625 200.769531 75.0625 C 200.179688 76.175781 198.996094 77.226562 197.683594 78.015625 C 196.042969 79.0625 192.757812 79.984375 191.3125 80.246094 C 190.59375 80.378906 189.871094 80.511719 189.671875 80.3125 C 189.539062 80.179688 189.738281 79.65625 189.738281 79.65625 " clip-rule="nonzero"/></clipPath><clipPath id="6cb5d5ffd3"><path d="M 183.777344 84.765625 L 188.6875 84.765625 L 188.6875 198.445312 L 183.777344 198.445312 Z M 183.777344 84.765625 " clip-rule="nonzero"/></clipPath><clipPath id="b5799613fc"><path d="M 186.980469 85.171875 C 188.425781 98.238281 188.558594 105.394531 188.359375 112.160156 C 188.097656 120.105469 186.585938 130.609375 186.386719 137.964844 C 186.261719 143.414062 186.785156 147.027344 186.652344 152.148438 C 186.519531 158.320312 185.40625 166.398438 185.207031 172.4375 C 185.011719 177.363281 184.945312 181.5 185.207031 185.835938 C 185.472656 189.96875 187.175781 196.800781 186.652344 197.917969 C 186.519531 198.179688 186.128906 198.246094 186.128906 198.246094 C 186.128906 198.246094 186.652344 197.851562 186.652344 197.851562 C 186.652344 197.851562 185.996094 198.113281 185.996094 198.113281 C 185.996094 198.113281 186.652344 197.851562 186.652344 197.851562 C 186.652344 197.851562 186.261719 198.246094 186.0625 198.179688 C 185.734375 198.046875 185.472656 196.929688 185.207031 195.882812 C 184.683594 193.714844 184.289062 189.511719 184.089844 185.835938 C 183.832031 181.433594 183.894531 176.445312 184.089844 171.257812 C 184.289062 165.28125 185.339844 157.996094 185.472656 152.148438 C 185.601562 147.222656 185.078125 143.8125 185.207031 138.488281 C 185.40625 131.136719 186.980469 120.171875 187.242188 112.226562 C 187.441406 105.59375 187.375 98.105469 186.980469 94.039062 C 186.785156 91.933594 186.261719 90.753906 186.128906 89.308594 C 185.996094 88.0625 185.996094 86.617188 186.128906 85.828125 C 186.195312 85.367188 186.324219 84.910156 186.519531 84.84375 C 186.652344 84.777344 186.980469 85.171875 186.980469 85.171875 " clip-rule="nonzero"/></clipPath><clipPath id="65a743cbc2"><path d="M 187.152344 81 L 192.957031 81 L 192.957031 199 L 187.152344 199 Z M 187.152344 81 " clip-rule="nonzero"/></clipPath><clipPath id="e64dd395b9"><path d="M 191.578125 81.363281 C 192.957031 143.414062 189.804688 163.769531 189.28125 177.035156 C 188.949219 185.835938 189.9375 198.902344 189.347656 198.96875 C 189.015625 199.035156 187.964844 194.109375 187.703125 191.679688 C 187.441406 189.378906 187.636719 188.199219 187.769531 184.785156 C 188.164062 174.933594 191.578125 139.542969 192.101562 127.132812 C 192.367188 121.222656 192.300781 118.726562 192.167969 113.996094 C 192.035156 108.480469 191.25 101.785156 191.054688 96.074219 C 190.855469 90.886719 190.066406 82.085938 190.921875 81.300781 C 191.117188 81.167969 191.578125 81.363281 191.578125 81.363281 " clip-rule="nonzero"/></clipPath><clipPath id="e291aefe1e"><path d="M 188.03125 83.074219 L 189.683594 83.074219 L 189.683594 84 L 188.03125 84 Z M 188.03125 83.074219 " clip-rule="nonzero"/></clipPath><clipPath id="399e7ec029"><path d="M 189.605469 83.464844 C 189.738281 83.988281 189.015625 83.792969 188.949219 83.664062 C 188.882812 83.53125 189.148438 83.203125 189.214844 83.203125 C 189.347656 83.203125 189.605469 83.597656 189.539062 83.730469 C 189.476562 83.855469 188.753906 83.988281 188.6875 83.921875 C 188.625 83.855469 188.882812 83.203125 189.082031 83.136719 C 189.214844 83.070312 189.605469 83.464844 189.605469 83.464844 " clip-rule="nonzero"/></clipPath><clipPath id="766a47daa2"><path d="M 188 96.269531 L 190.53125 96.269531 L 190.53125 100.800781 L 188 100.800781 Z M 188 96.269531 " clip-rule="nonzero"/></clipPath><clipPath id="e8fbd3084b"><path d="M 188.882812 98.4375 C 189.671875 100.210938 188.949219 100.40625 188.753906 100.210938 C 188.425781 99.878906 189.410156 96.269531 189.671875 96.269531 C 189.871094 96.269531 190.460938 98.304688 190.265625 99.027344 C 190.132812 99.617188 189.347656 100.535156 189.015625 100.46875 C 188.6875 100.40625 188.292969 99.15625 188.359375 98.828125 C 188.425781 98.632812 188.882812 98.4375 188.882812 98.4375 " clip-rule="nonzero"/></clipPath><clipPath id="43cf6b72d3"><path d="M 188 112.617188 L 190.53125 112.617188 L 190.53125 115.992188 L 188 115.992188 Z M 188 112.617188 " clip-rule="nonzero"/></clipPath><clipPath id="5c49d5359a"><path d="M 189.28125 113.472656 C 189.804688 114.523438 189.410156 113.015625 189.605469 112.816406 C 189.738281 112.683594 190.132812 112.882812 190.132812 112.882812 C 190.132812 112.949219 189.476562 113.015625 189.476562 113.015625 C 189.476562 113.015625 190 112.75 190.132812 112.882812 C 190.394531 113.144531 190.328125 115.378906 190 115.574219 C 189.804688 115.707031 189.214844 115.378906 188.949219 115.113281 C 188.6875 114.785156 188.425781 113.738281 188.625 113.539062 C 188.753906 113.40625 189.28125 113.472656 189.28125 113.472656 " clip-rule="nonzero"/></clipPath><clipPath id="2782b26a19"><path d="M 187 126.121094 L 189.683594 126.121094 L 189.683594 129 L 187 129 Z M 187 126.121094 " clip-rule="nonzero"/></clipPath><clipPath id="0eaff91cf8"><path d="M 187.835938 126.800781 C 188.425781 128.050781 188.03125 126.277344 188.226562 126.210938 C 188.359375 126.144531 189.148438 126.800781 189.214844 127.199219 C 189.28125 127.65625 188.753906 128.839844 188.425781 128.902344 C 188.097656 128.96875 187.375 128.113281 187.175781 127.65625 C 187.046875 127.328125 187.109375 126.738281 187.242188 126.605469 C 187.375 126.539062 187.835938 126.800781 187.835938 126.800781 " clip-rule="nonzero"/></clipPath><clipPath id="aa3fd285b1"><path d="M 186.308594 141 L 188.839844 141 L 188.839844 144.6875 L 186.308594 144.6875 Z M 186.308594 141 " clip-rule="nonzero"/></clipPath><clipPath id="0c51101dd2"><path d="M 187.570312 142.101562 C 187.769531 143.746094 187.375 144.003906 187.308594 143.941406 C 187.109375 143.8125 187.441406 141.707031 187.769531 141.316406 C 187.964844 141.117188 188.425781 141.117188 188.425781 141.117188 C 188.425781 141.117188 187.769531 141.25 187.769531 141.25 C 187.769531 141.25 188.292969 141.050781 188.425781 141.183594 C 188.753906 141.511719 188.425781 144.402344 188.03125 144.597656 C 187.769531 144.726562 187.109375 144.269531 186.914062 143.878906 C 186.652344 143.414062 186.652344 142.167969 186.914062 141.972656 C 187.046875 141.839844 187.570312 142.101562 187.570312 142.101562 " clip-rule="nonzero"/></clipPath><clipPath id="44fe6df4dc"><path d="M 185.464844 160 L 187.996094 160 L 187.996094 162.855469 L 185.464844 162.855469 Z M 185.464844 160 " clip-rule="nonzero"/></clipPath><clipPath id="4af487f0f7"><path d="M 186.71875 161.277344 C 186.785156 160.160156 187.242188 160.292969 187.308594 160.359375 C 187.375 160.425781 187.046875 160.816406 186.980469 160.816406 C 186.851562 160.816406 186.652344 160.292969 186.71875 160.226562 C 186.785156 160.160156 187.308594 160.292969 187.308594 160.425781 C 187.308594 160.488281 187.046875 160.816406 186.914062 160.816406 C 186.785156 160.816406 186.585938 160.359375 186.652344 160.292969 C 186.71875 160.226562 187.109375 160.226562 187.308594 160.359375 C 187.570312 160.617188 187.835938 161.800781 187.703125 162.195312 C 187.636719 162.457031 187.375 162.789062 187.175781 162.789062 C 186.914062 162.855469 186.195312 162.328125 186.0625 162 C 185.929688 161.734375 185.996094 161.144531 186.128906 161.078125 C 186.261719 161.015625 186.71875 161.277344 186.71875 161.277344 " clip-rule="nonzero"/></clipPath><clipPath id="c906ff5ec9"><path d="M 184 173.949219 L 186.308594 173.949219 L 186.308594 177.230469 L 184 177.230469 Z M 184 173.949219 " clip-rule="nonzero"/></clipPath><clipPath id="c87268b65e"><path d="M 185.535156 174.410156 C 185.796875 176.773438 185.472656 177.035156 185.273438 177.035156 C 185.078125 177.035156 184.878906 176.839844 184.8125 176.574219 C 184.746094 176.117188 186.195312 174.34375 186.0625 174.144531 C 185.996094 174.078125 185.40625 174.34375 185.40625 174.34375 C 185.40625 174.34375 185.929688 174.015625 186.0625 174.144531 C 186.324219 174.34375 186.0625 176.574219 185.734375 176.90625 C 185.535156 177.035156 185.207031 177.035156 185.011719 176.90625 C 184.683594 176.707031 184.355469 175.789062 184.421875 175.261719 C 184.484375 174.800781 184.945312 173.949219 185.140625 173.949219 C 185.273438 173.949219 185.535156 174.410156 185.535156 174.410156 " clip-rule="nonzero"/></clipPath><clipPath id="104aa8d896"><path d="M 218.382812 92.589844 L 223.445312 92.589844 L 223.445312 123.589844 L 218.382812 123.589844 Z M 218.382812 92.589844 " clip-rule="nonzero"/></clipPath><clipPath id="0951c220c6"><path d="M 220.601562 93.050781 C 219.746094 105.199219 219.8125 106.25 220.074219 108.414062 C 220.601562 112.160156 223.753906 123.386719 223.226562 123.585938 C 222.964844 123.652344 222.109375 122.140625 221.585938 120.960938 C 220.667969 118.855469 219.613281 115.246094 219.089844 111.765625 C 218.433594 107.234375 218.5 98.960938 218.828125 96.074219 C 218.957031 94.953125 219.15625 94.296875 219.417969 93.707031 C 219.613281 93.25 220.011719 92.589844 220.207031 92.589844 C 220.335938 92.589844 220.601562 93.050781 220.601562 93.050781 " clip-rule="nonzero"/></clipPath><clipPath id="bd1e04f22c"><path d="M 203.855469 78.011719 L 244.546875 78.011719 L 244.546875 157 L 203.855469 157 Z M 203.855469 78.011719 " clip-rule="nonzero"/></clipPath><clipPath id="da5150604b"><path d="M 204.316406 78.804688 C 211.605469 79.460938 217.644531 78.148438 220.335938 78.40625 C 221.785156 78.539062 222.570312 78.871094 223.6875 79.394531 C 224.871094 79.984375 226.050781 80.640625 227.234375 81.757812 C 228.875 83.332031 230.976562 86.027344 232.289062 88.523438 C 233.667969 91.148438 234.191406 93.3125 235.3125 97.253906 C 237.609375 105.265625 242.925781 126.671875 243.847656 134.355469 C 244.238281 137.769531 244.105469 139.277344 243.976562 141.773438 C 243.847656 144.402344 243.582031 147.421875 242.992188 149.785156 C 242.46875 151.824219 241.808594 154.054688 240.828125 155.234375 C 240.105469 156.089844 238.789062 156.875 238.265625 156.875 C 238 156.875 237.804688 156.746094 237.742188 156.484375 C 237.609375 155.824219 239.445312 153.855469 240.105469 152.347656 C 240.761719 150.769531 241.285156 149.261719 241.613281 147.15625 C 242.136719 143.941406 242.402344 139.9375 241.875 134.746094 C 240.953125 125.882812 236.097656 107.167969 233.863281 99.15625 C 232.683594 94.953125 232.09375 92.460938 230.710938 89.703125 C 229.53125 87.273438 227.890625 84.84375 226.378906 83.265625 C 225.195312 82.085938 224.015625 81.300781 222.703125 80.707031 C 221.386719 80.117188 220.273438 79.917969 218.566406 79.789062 C 215.871094 79.589844 210.488281 80.707031 207.925781 80.511719 C 206.484375 80.378906 205.171875 80.050781 204.511719 79.722656 C 204.183594 79.589844 203.855469 79.328125 203.855469 79.195312 C 203.855469 79.0625 204.316406 78.804688 204.316406 78.804688 " clip-rule="nonzero"/></clipPath><clipPath id="e308a81cb2"><path d="M 221.128906 148.996094 L 224 148.996094 L 224 153 L 221.128906 153 Z M 221.128906 148.996094 " clip-rule="nonzero"/></clipPath><clipPath id="eed9f35a27"><path d="M 222.703125 148.996094 C 225.261719 154.710938 222.898438 151.691406 222.308594 150.640625 C 221.976562 150.046875 221.652344 149.457031 221.785156 149.195312 C 221.914062 148.996094 222.703125 148.996094 222.703125 148.996094 " clip-rule="nonzero"/></clipPath><clipPath id="5a8d022f26"><path d="M 225 135.210938 L 231.886719 135.210938 L 231.886719 141.3125 L 225 141.3125 Z M 225 135.210938 " clip-rule="nonzero"/></clipPath><clipPath id="46e0b8054f"><path d="M 225.722656 135.210938 C 234.128906 142.695312 231.171875 141.316406 229.796875 140.394531 C 228.347656 139.410156 226.644531 137.703125 225.855469 136.785156 C 225.460938 136.324219 225 135.800781 225.066406 135.535156 C 225.128906 135.339844 225.722656 135.210938 225.722656 135.210938 " clip-rule="nonzero"/></clipPath><clipPath id="902e9f91f1"><path d="M 227.664062 143.285156 L 231.886719 143.285156 L 231.886719 147 L 227.664062 147 Z M 227.664062 143.285156 " clip-rule="nonzero"/></clipPath><clipPath id="d57547f7cd"><path d="M 228.21875 143.285156 C 233.339844 147.089844 231.5 146.898438 230.644531 146.566406 C 229.730469 146.175781 228.613281 145.058594 228.152344 144.46875 C 227.890625 144.136719 227.625 143.746094 227.691406 143.546875 C 227.757812 143.414062 228.21875 143.285156 228.21875 143.285156 " clip-rule="nonzero"/></clipPath><clipPath id="f60dac4ae5"><path d="M 235.261719 155 L 240 155 L 240 164.945312 L 235.261719 164.945312 Z M 235.261719 155 " clip-rule="nonzero"/></clipPath><clipPath id="4dafa10bbc"><path d="M 239.25 155.433594 C 240.234375 158.648438 239.773438 159.832031 239.445312 160.816406 C 239.054688 161.867188 238.65625 163.246094 237.933594 163.902344 C 237.34375 164.492188 236.03125 164.953125 235.703125 164.820312 C 235.503906 164.757812 235.503906 164.230469 235.503906 164.230469 C 235.503906 164.230469 235.4375 164.820312 235.503906 164.820312 C 235.703125 164.886719 237.542969 162.390625 238.066406 160.949219 C 238.65625 159.371094 238.132812 156.023438 238.65625 155.5 C 238.855469 155.300781 239.25 155.433594 239.25 155.433594 " clip-rule="nonzero"/></clipPath><clipPath id="f4d6da1a80"><path d="M 222 154 L 225 154 L 225 162.855469 L 222 162.855469 Z M 222 154 " clip-rule="nonzero"/></clipPath><clipPath id="cbbc097d1e"><path d="M 223.226562 154.378906 C 224.871094 160.617188 224.871094 162.722656 224.671875 162.722656 C 224.40625 162.789062 222.964844 158.1875 222.703125 156.613281 C 222.503906 155.695312 222.308594 154.578125 222.570312 154.316406 C 222.703125 154.1875 223.226562 154.378906 223.226562 154.378906 " clip-rule="nonzero"/></clipPath><clipPath id="934f4c1653"><path d="M 223.445312 164.558594 L 223.816406 164.558594 L 223.816406 164.945312 L 223.445312 164.945312 Z M 223.445312 164.558594 " clip-rule="nonzero"/></clipPath><clipPath id="3934649d56"><path d="M 223.753906 164.691406 C 223.160156 164.953125 223.6875 164.558594 223.6875 164.558594 " clip-rule="nonzero"/></clipPath><clipPath id="07154bf774"><path d="M 223 163 L 236.226562 163 L 236.226562 165.476562 L 223 165.476562 Z M 223 163 " clip-rule="nonzero"/></clipPath><clipPath id="158652918f"><path d="M 223.097656 164.492188 C 234.652344 162.855469 235.769531 162.980469 235.96875 163.3125 C 236.097656 163.511719 235.902344 163.96875 235.835938 163.96875 C 235.769531 163.96875 235.4375 163.511719 235.503906 163.445312 C 235.570312 163.378906 236.160156 163.445312 236.160156 163.511719 C 236.160156 163.640625 234.71875 164.230469 233.601562 164.492188 C 231.761719 164.953125 228.019531 165.28125 226.050781 165.347656 C 224.871094 165.347656 223.425781 165.476562 223.097656 165.152344 C 222.964844 165.019531 223.097656 164.492188 223.097656 164.492188 " clip-rule="nonzero"/></clipPath><clipPath id="866e3968df"><path d="M 222 163.769531 L 223.425781 163.769531 L 223.425781 164.429688 L 222 164.429688 Z M 222 163.769531 " clip-rule="nonzero"/></clipPath><clipPath id="343309f419"><path d="M 223.03125 164.429688 C 222.042969 164.296875 222.703125 163.769531 222.703125 163.769531 " clip-rule="nonzero"/></clipPath><clipPath id="8d35914ebd"><path d="M 222.601562 163.445312 L 224.289062 163.445312 L 224.289062 170 L 222.601562 170 Z M 222.601562 163.445312 " clip-rule="nonzero"/></clipPath><clipPath id="78170cdf2c"><path d="M 222.832031 164.757812 C 223.160156 163.511719 223.816406 163.703125 224.015625 164.035156 C 224.539062 164.820312 223.753906 169.617188 223.554688 169.617188 C 223.359375 169.617188 222.441406 164.691406 222.832031 163.902344 C 222.964844 163.574219 223.292969 163.445312 223.492188 163.445312 C 223.6875 163.445312 224.015625 163.769531 224.015625 164.035156 C 224.015625 164.363281 223.554688 165.085938 223.292969 165.152344 C 223.160156 165.152344 222.832031 164.757812 222.832031 164.757812 " clip-rule="nonzero"/></clipPath><clipPath id="7b90ea2266"><path d="M 236.105469 164.230469 L 239.480469 164.230469 L 239.480469 172.765625 L 236.105469 172.765625 Z M 236.105469 164.230469 " clip-rule="nonzero"/></clipPath><clipPath id="a71eb44469"><path d="M 236.953125 164.886719 C 238.722656 167.777344 239.183594 169.027344 239.117188 170.011719 C 239.054688 170.929688 238.332031 172.636719 238 172.636719 C 237.476562 172.570312 236.621094 167.25 236.425781 166.003906 C 236.359375 165.476562 236.226562 165.152344 236.359375 164.953125 C 236.492188 164.820312 236.953125 164.886719 236.953125 164.886719 " clip-rule="nonzero"/></clipPath><clipPath id="a2dc6172a0"><path d="M 224 170.007812 L 239.773438 170.007812 L 239.773438 174 L 224 174 Z M 224 170.007812 " clip-rule="nonzero"/></clipPath><clipPath id="d33db02115"><path d="M 224.34375 172.503906 C 230.582031 171.914062 232.417969 172.636719 234.191406 172.4375 C 236.03125 172.175781 239.25 170.074219 239.578125 170.46875 C 239.773438 170.734375 238.921875 171.980469 238.265625 172.503906 C 237.476562 173.097656 236.425781 173.421875 235.046875 173.621094 C 232.683594 174.015625 226.578125 173.6875 225 173.421875 C 224.472656 173.359375 224.082031 173.292969 224.015625 173.097656 C 223.949219 172.964844 224.34375 172.503906 224.34375 172.503906 " clip-rule="nonzero"/></clipPath><clipPath id="963c71c68c"><path d="M 233.574219 167.476562 L 236.621094 167.476562 L 236.621094 170.851562 L 233.574219 170.851562 Z M 233.574219 167.476562 " clip-rule="nonzero"/></clipPath><clipPath id="99431aa350"><path d="M 235.4375 168.238281 C 234.652344 170.667969 234.0625 170.601562 233.996094 170.46875 C 233.863281 170.273438 235.4375 169.222656 235.375 168.828125 C 235.375 168.5625 234.785156 168.105469 234.585938 168.171875 C 234.457031 168.171875 234.324219 168.761719 234.257812 168.761719 C 234.191406 168.761719 234.257812 168.238281 234.324219 168.171875 C 234.390625 168.105469 234.785156 168.433594 234.785156 168.5625 C 234.785156 168.628906 234.324219 168.828125 234.257812 168.761719 C 234.191406 168.695312 234.390625 168.238281 234.585938 168.171875 C 234.914062 168.105469 236.425781 168.894531 236.425781 169.285156 C 236.425781 169.679688 234.324219 170.734375 233.996094 170.46875 C 233.667969 170.207031 233.996094 168.238281 234.390625 167.84375 C 234.652344 167.582031 235.246094 167.515625 235.375 167.648438 C 235.503906 167.710938 235.4375 168.238281 235.4375 168.238281 " clip-rule="nonzero"/></clipPath><clipPath id="a2ad7617cc"><path d="M 152.550781 79 L 177.871094 79 L 177.871094 161.800781 L 152.550781 161.800781 Z M 152.550781 79 " clip-rule="nonzero"/></clipPath><clipPath id="1b35f06eae"><path d="M 177.722656 79.65625 C 170.761719 85.238281 164.523438 87.207031 161.894531 88.980469 C 160.320312 90.03125 159.273438 90.886719 158.550781 91.933594 C 157.957031 92.722656 157.761719 93.445312 157.496094 94.363281 C 157.167969 95.351562 157.039062 96.007812 156.90625 97.714844 C 156.445312 102.707031 157.039062 118.726562 156.578125 127.65625 C 156.1875 134.945312 154.671875 143.21875 154.671875 147.554688 C 154.671875 149.652344 154.738281 150.574219 155.066406 152.28125 C 155.460938 154.316406 157.167969 157.074219 157.300781 158.847656 C 157.367188 159.960938 156.710938 161.671875 156.84375 161.734375 C 156.90625 161.800781 157.300781 161.210938 157.300781 161.210938 C 157.300781 161.210938 156.90625 161.671875 156.710938 161.605469 C 155.855469 161.339844 153.820312 154.972656 153.164062 152.476562 C 152.769531 150.769531 152.703125 149.917969 152.636719 148.078125 C 152.507812 145.125 152.835938 140.199219 153.230469 136.585938 C 153.558594 133.4375 154.28125 131.53125 154.609375 127.65625 C 155.199219 120.761719 154.410156 104.347656 154.9375 98.566406 C 155.132812 96.074219 155.332031 94.695312 155.789062 93.25 C 156.121094 92.199219 156.445312 91.476562 157.101562 90.621094 C 157.890625 89.570312 158.875 88.652344 160.519531 87.601562 C 163.40625 85.695312 170.960938 83.203125 173.714844 81.558594 C 175.03125 80.769531 175.820312 79.851562 176.539062 79.460938 C 176.933594 79.261719 177.328125 79 177.527344 79.0625 C 177.65625 79.128906 177.722656 79.65625 177.722656 79.65625 " clip-rule="nonzero"/></clipPath><clipPath id="a31f17ad1e"><path d="M 163.519531 105.984375 L 173 105.984375 L 173 143.414062 L 163.519531 143.414062 Z M 163.519531 105.984375 " clip-rule="nonzero"/></clipPath><clipPath id="5d22d2299c"><path d="M 164.261719 105.984375 C 167.410156 110.585938 168.726562 113.929688 169.648438 116.625 C 170.496094 119.253906 171.089844 121.941406 171.613281 124.636719 C 172.140625 127.328125 172.863281 129.886719 172.925781 132.78125 C 172.992188 136.058594 171.945312 143.414062 171.484375 143.414062 C 171.222656 143.414062 170.828125 141.117188 170.761719 139.671875 C 170.695312 137.769531 171.417969 135.339844 171.351562 133.039062 C 171.285156 130.476562 170.695312 127.589844 170.171875 124.960938 C 169.648438 122.339844 169.25 119.910156 168.332031 117.148438 C 167.21875 113.804688 163.210938 107.234375 163.605469 106.25 C 163.734375 105.984375 164.261719 105.984375 164.261719 105.984375 " clip-rule="nonzero"/></clipPath><clipPath id="337de7b560"><path d="M 165.210938 119.910156 L 177.851562 119.910156 L 177.851562 157 L 165.210938 157 Z M 165.210938 119.910156 " clip-rule="nonzero"/></clipPath><clipPath id="6280a71063"><path d="M 177.722656 120.5 C 167.347656 150.703125 166.691406 152.871094 167.152344 154.445312 C 167.410156 155.433594 169.054688 156.15625 168.859375 156.550781 C 168.660156 156.941406 166.429688 157.207031 165.835938 156.679688 C 165.179688 156.089844 165.246094 154.378906 165.378906 152.738281 C 165.574219 150.046875 166.820312 146.175781 168.132812 142.039062 C 170.039062 136.191406 174.570312 123.714844 176.210938 121.089844 C 176.671875 120.367188 177.066406 119.910156 177.328125 119.910156 C 177.527344 119.910156 177.722656 120.5 177.722656 120.5 " clip-rule="nonzero"/></clipPath><clipPath id="677d175db3"><path d="M 172 112 L 175 112 L 175 118.523438 L 172 118.523438 Z M 172 112 " clip-rule="nonzero"/></clipPath><clipPath id="74db324999"><path d="M 174.964844 112.816406 C 171.746094 122.929688 172.796875 116.167969 173.390625 114.394531 C 173.652344 113.539062 173.914062 112.75 174.242188 112.621094 C 174.441406 112.554688 174.964844 112.816406 174.964844 112.816406 " clip-rule="nonzero"/></clipPath><clipPath id="c13ec01973"><path d="M 211.628906 122.535156 L 220.273438 122.535156 L 220.273438 136.246094 L 211.628906 136.246094 Z M 211.628906 122.535156 " clip-rule="nonzero"/></clipPath><clipPath id="29b9c5f58e"><path d="M 220.074219 123.058594 C 213.183594 135.144531 212.523438 136.191406 212.128906 136.191406 C 211.933594 136.191406 211.667969 135.734375 211.734375 135.667969 C 211.800781 135.601562 212.261719 135.601562 212.328125 135.667969 C 212.394531 135.734375 212 136.191406 211.933594 136.191406 C 211.800781 136.125 212.066406 134.484375 212.394531 133.4375 C 212.917969 131.925781 214.164062 129.824219 215.28125 128.050781 C 216.460938 126.144531 218.699219 122.597656 219.484375 122.535156 C 219.746094 122.535156 220.074219 123.058594 220.074219 123.058594 " clip-rule="nonzero"/></clipPath><clipPath id="2035a91393"><path d="M 215.003906 124.433594 L 221.757812 124.433594 L 221.757812 145.910156 L 215.003906 145.910156 Z M 215.003906 124.433594 " clip-rule="nonzero"/></clipPath><clipPath id="a07f325a3f"><path d="M 221.453125 125.226562 C 219.546875 138.230469 218.171875 141.382812 217.183594 143.21875 C 216.59375 144.335938 215.609375 145.777344 215.414062 145.714844 C 215.085938 145.515625 218.828125 137.242188 219.679688 133.628906 C 220.335938 130.808594 220.207031 127.265625 220.535156 125.882812 C 220.667969 125.359375 220.667969 124.960938 220.863281 124.898438 C 220.996094 124.835938 221.453125 125.226562 221.453125 125.226562 " clip-rule="nonzero"/></clipPath><clipPath id="ff7e685f17"><path d="M 170.367188 150 L 207 150 L 207 156.484375 L 170.367188 156.484375 Z M 170.367188 150 " clip-rule="nonzero"/></clipPath><clipPath id="7b5e1ad313"><path d="M 171.613281 154.1875 C 170.433594 153.726562 170.628906 153.199219 170.960938 153.003906 C 171.878906 152.542969 175.753906 154.121094 177.917969 154.378906 C 179.824219 154.578125 180.871094 154.710938 183.300781 154.511719 C 188.425781 154.1875 206.8125 150.046875 206.941406 150.574219 C 207.007812 150.835938 203.464844 152.148438 200.835938 152.871094 C 196.570312 154.054688 188.164062 155.957031 183.300781 156.15625 C 179.824219 156.285156 176.605469 155.695312 174.375 155.300781 C 172.992188 155.035156 171.8125 154.777344 171.15625 154.378906 C 170.761719 154.1875 170.367188 153.921875 170.367188 153.660156 C 170.367188 153.460938 170.695312 153.003906 170.960938 153.003906 C 171.222656 152.9375 172.011719 153.460938 172.011719 153.726562 C 172.011719 153.855469 171.613281 154.1875 171.613281 154.1875 " clip-rule="nonzero"/></clipPath><clipPath id="2a528b96f2"><path d="M 151.457031 155.824219 L 229.597656 155.824219 L 229.597656 197 L 151.457031 197 Z M 151.457031 155.824219 " clip-rule="nonzero"/></clipPath><clipPath id="3a6105c1fd"><path d="M 166.820312 156.417969 C 158.484375 170.667969 156.644531 174.867188 155.332031 178.679688 C 154.214844 182.023438 152.96875 185.703125 152.902344 188.527344 C 152.835938 190.625 154.476562 193.253906 154.015625 194.042969 C 153.820312 194.4375 153.097656 194.632812 152.902344 194.503906 C 152.636719 194.304688 152.769531 192.992188 153.035156 192.269531 C 153.359375 191.414062 154.082031 190.433594 154.804688 189.839844 C 155.527344 189.25 156.3125 188.921875 157.300781 188.59375 C 158.617188 188.199219 160.386719 187.9375 162.09375 187.804688 C 164.066406 187.671875 166.429688 187.671875 168.59375 187.871094 C 170.828125 188.066406 172.667969 188.394531 175.292969 189.183594 C 179.363281 190.433594 187.308594 194.960938 190.265625 195.355469 C 191.445312 195.484375 191.710938 195.292969 192.890625 194.960938 C 195.84375 194.109375 202.933594 190.101562 207.535156 188.328125 C 211.410156 186.820312 215.347656 185.046875 218.566406 184.71875 C 220.929688 184.453125 223.03125 184.785156 224.9375 185.308594 C 226.644531 185.769531 229.398438 187.605469 229.53125 187.476562 C 229.597656 187.414062 229.136719 186.949219 229.070312 186.949219 C 229.007812 186.949219 229.398438 187.476562 229.269531 187.605469 C 229.070312 187.871094 228.085938 187.804688 227.300781 187.671875 C 225.855469 187.476562 223.492188 186.03125 221.585938 185.898438 C 219.8125 185.769531 218.699219 186.03125 216.398438 186.6875 C 211.144531 188.132812 195.910156 196.078125 191.378906 196.667969 C 189.738281 196.867188 189.410156 196.667969 187.964844 196.273438 C 185.011719 195.484375 179.035156 191.808594 175.03125 190.625 C 171.8125 189.710938 168.988281 189.25 166.097656 189.117188 C 163.34375 188.988281 159.796875 189.25 157.890625 189.839844 C 156.710938 190.167969 155.921875 190.5625 155.265625 191.285156 C 154.542969 192.074219 154.410156 193.976562 153.882812 194.371094 C 153.558594 194.566406 153.164062 194.699219 152.902344 194.503906 C 152.179688 194.042969 151.457031 191.152344 151.457031 189.050781 C 151.457031 186.03125 152.835938 182.023438 154.148438 178.21875 C 155.722656 173.6875 158.550781 167.777344 160.714844 163.835938 C 162.359375 160.949219 164.589844 157.664062 165.574219 156.550781 C 165.902344 156.15625 166.164062 155.824219 166.363281 155.824219 C 166.558594 155.824219 166.820312 156.417969 166.820312 156.417969 " clip-rule="nonzero"/></clipPath><clipPath id="838d260edd"><path d="M 220.070312 154 L 225.976562 154 L 225.976562 187.730469 L 220.070312 187.730469 Z M 220.070312 154 " clip-rule="nonzero"/></clipPath><clipPath id="840a225fa9"><path d="M 221.191406 154.777344 C 225.460938 181.898438 225.984375 187.414062 225.589844 187.539062 C 225.328125 187.605469 224.539062 185.835938 224.082031 184.195312 C 222.832031 180.058594 221.191406 166.988281 220.667969 161.800781 C 220.402344 159.109375 220.074219 156.8125 220.273438 155.5625 C 220.335938 155.035156 220.46875 154.511719 220.667969 154.445312 C 220.796875 154.378906 221.191406 154.777344 221.191406 154.777344 " clip-rule="nonzero"/></clipPath><clipPath id="6fc89c91b9"><path d="M 220.914062 135.929688 L 224 135.929688 L 224 160.722656 L 220.914062 160.722656 Z M 220.914062 135.929688 " clip-rule="nonzero"/></clipPath><clipPath id="f6f5d3dbdd"><path d="M 221.785156 135.929688 C 223.160156 139.609375 223.6875 144.070312 223.753906 146.765625 C 223.816406 148.996094 223.621094 150.703125 223.292969 152.804688 C 222.898438 155.234375 221.652344 160.550781 221.320312 160.550781 C 221.128906 160.550781 220.996094 158.976562 220.996094 157.730469 C 221.0625 155.300781 222.570312 150.441406 222.570312 146.832031 C 222.570312 143.285156 220.535156 137.175781 221.128906 136.191406 C 221.257812 135.929688 221.785156 135.929688 221.785156 135.929688 " clip-rule="nonzero"/></clipPath><clipPath id="170e468662"><path d="M 219.226562 121.15625 L 221.976562 121.15625 L 221.976562 144 L 219.226562 144 Z M 219.226562 121.15625 " clip-rule="nonzero"/></clipPath><clipPath id="df7514012a"><path d="M 221.785156 121.941406 C 221.976562 137.832031 221.386719 140.328125 220.730469 141.839844 C 220.335938 142.757812 219.546875 144.003906 219.355469 143.941406 C 219.023438 143.8125 220.929688 138.425781 221.191406 135.273438 C 221.519531 131.660156 220.796875 125.621094 220.929688 123.453125 C 220.996094 122.664062 220.863281 122.007812 221.128906 121.8125 C 221.257812 121.683594 221.785156 121.941406 221.785156 121.941406 " clip-rule="nonzero"/></clipPath><clipPath id="b2015bbc80"><path d="M 164.367188 160.425781 L 166.898438 160.425781 L 166.898438 165 L 164.367188 165 Z M 164.367188 160.425781 " clip-rule="nonzero"/></clipPath><clipPath id="3107a87a64"><path d="M 166.558594 160.949219 C 162.949219 169.15625 164.851562 162.457031 165.507812 161.210938 C 165.769531 160.75 165.96875 160.425781 166.164062 160.425781 C 166.296875 160.425781 166.558594 160.949219 166.558594 160.949219 " clip-rule="nonzero"/></clipPath><clipPath id="d5d92715e8"><path d="M 160.144531 174.34375 L 163.277344 174.34375 L 163.277344 184 L 160.144531 184 Z M 160.144531 174.34375 " clip-rule="nonzero"/></clipPath><clipPath id="f71775c97e"><path d="M 163.144531 175.195312 C 160.453125 188.660156 160.714844 182.878906 160.980469 180.648438 C 161.175781 179.070312 161.4375 177.691406 161.765625 176.640625 C 161.960938 175.984375 162.160156 175.132812 162.488281 175 C 162.683594 174.933594 163.144531 175.195312 163.144531 175.195312 " clip-rule="nonzero"/></clipPath><clipPath id="b981bbbd4c"><path d="M 160.144531 191.109375 L 168.585938 191.109375 L 168.585938 291 L 160.144531 291 Z M 160.144531 191.109375 " clip-rule="nonzero"/></clipPath><clipPath id="8ede2be286"><path d="M 162.027344 191.546875 C 163.605469 209.734375 163.011719 228.910156 163.472656 239.875 C 163.800781 248.019531 164.324219 253.601562 165.113281 261.023438 C 165.96875 269.292969 168.660156 282.425781 168.464844 287.152344 C 168.398438 288.925781 168.003906 290.765625 167.675781 290.765625 C 167.347656 290.765625 167.019531 289.058594 166.625 287.351562 C 165.640625 282.953125 164.261719 270.933594 163.40625 262.859375 C 162.554688 255.109375 161.960938 248.9375 161.570312 239.875 C 160.980469 226.875 160.058594 196.667969 160.914062 192.398438 C 161.042969 191.679688 161.175781 191.285156 161.4375 191.21875 C 161.636719 191.152344 162.027344 191.546875 162.027344 191.546875 " clip-rule="nonzero"/></clipPath><clipPath id="a89bdd83b2"><path d="M 181.269531 198 L 193.742188 198 L 193.742188 284.792969 L 181.269531 284.792969 Z M 181.269531 198 " clip-rule="nonzero"/></clipPath><clipPath id="be4e76c756"><path d="M 193.613281 198.507812 C 191.96875 209.601562 187.441406 222.738281 185.996094 229.960938 C 185.011719 235.015625 184.683594 238.101562 184.355469 242.960938 C 183.894531 249.199219 183.699219 257.605469 183.894531 264.300781 C 184.089844 270.214844 185.472656 277.632812 185.273438 281.046875 C 185.140625 282.621094 184.746094 284.332031 184.550781 284.394531 C 184.484375 284.394531 184.222656 284 184.289062 283.9375 C 184.355469 283.871094 184.945312 283.871094 184.945312 283.9375 C 184.945312 284 184.484375 284.265625 184.289062 284.199219 C 183.894531 284 183.566406 282.621094 183.300781 281.179688 C 182.648438 277.828125 182.121094 270.277344 181.925781 264.300781 C 181.726562 257.539062 181.726562 249.398438 182.382812 242.636719 C 182.976562 236.65625 183.832031 231.996094 185.207031 225.824219 C 186.914062 218.078125 190.988281 203.433594 192.234375 199.953125 C 192.5625 199.035156 192.628906 198.445312 192.957031 198.3125 C 193.152344 198.246094 193.613281 198.507812 193.613281 198.507812 " clip-rule="nonzero"/></clipPath><clipPath id="8b35bce18d"><path d="M 194 196.171875 L 208.78125 196.171875 L 208.78125 290.632812 L 194 290.632812 Z M 194 196.171875 " clip-rule="nonzero"/></clipPath><clipPath id="a6e8edff32"><path d="M 194.992188 196.933594 C 202.542969 218.535156 203.988281 224.773438 205.039062 229.765625 C 205.894531 233.703125 206.351562 235.9375 206.8125 240.464844 C 207.601562 248.085938 208.515625 262.332031 208.191406 271.394531 C 207.925781 278.484375 206.679688 290.304688 206.089844 290.304688 C 205.828125 290.304688 205.367188 287.8125 205.300781 285.90625 C 205.171875 282.492188 206.351562 276.058594 206.550781 271.394531 C 206.746094 267.0625 206.679688 263.449219 206.484375 258.917969 C 206.285156 253.46875 205.957031 246.640625 205.238281 240.796875 C 204.578125 235.28125 203.789062 230.816406 202.34375 224.839844 C 200.441406 216.957031 194.53125 200.609375 194.332031 197.722656 C 194.269531 197.195312 194.332031 196.800781 194.464844 196.734375 C 194.597656 196.667969 194.992188 196.933594 194.992188 196.933594 " clip-rule="nonzero"/></clipPath><clipPath id="e41f1a225a"><path d="M 223 191 L 228.507812 191 L 228.507812 294.179688 L 223 294.179688 Z M 223 191 " clip-rule="nonzero"/></clipPath><clipPath id="d6b42b66ac"><path d="M 224.082031 191.152344 C 228.347656 212.953125 228.28125 217.222656 228.414062 222.804688 C 228.546875 229.828125 228.546875 237.511719 228.152344 246.835938 C 227.625 259.96875 225.65625 293.984375 224.871094 294.117188 C 224.804688 294.117188 224.539062 293.589844 224.605469 293.523438 C 224.671875 293.460938 225.195312 293.523438 225.195312 293.589844 C 225.195312 293.652344 224.804688 294.050781 224.605469 293.984375 C 224.28125 293.851562 224.082031 292.671875 223.949219 291.6875 C 223.6875 289.847656 223.6875 287.480469 223.753906 283.9375 C 223.882812 276.1875 225.789062 258.785156 226.246094 246.835938 C 226.707031 235.609375 227.300781 223.984375 226.644531 214.269531 C 226.117188 206.324219 223.882812 195.816406 223.554688 192.730469 C 223.492188 191.875 223.226562 191.285156 223.425781 191.089844 C 223.554688 190.957031 224.082031 191.152344 224.082031 191.152344 " clip-rule="nonzero"/></clipPath><clipPath id="4572e9e9af"><path d="M 167 278.039062 L 187.996094 278.039062 L 187.996094 320 L 167 320 Z M 167 278.039062 " clip-rule="nonzero"/></clipPath><clipPath id="632eaeed23"><path d="M 168.003906 290.042969 C 170.238281 318.082031 172.734375 316.179688 175.164062 316.308594 C 178.316406 316.503906 184.023438 320.183594 186.0625 318.34375 C 189.214844 315.457031 184.222656 298.777344 183.832031 291.421875 C 183.566406 286.300781 182.777344 279.210938 183.5 278.289062 C 183.632812 278.09375 184.089844 278.09375 184.089844 278.160156 C 184.089844 278.226562 183.5 278.550781 183.5 278.550781 C 183.5 278.550781 183.894531 278.09375 184.023438 278.160156 C 184.289062 278.226562 184.484375 279.273438 184.617188 280.390625 C 185.078125 283.277344 184.8125 290.765625 185.207031 296.480469 C 185.667969 302.976562 187.703125 314.140625 187.507812 317.292969 C 187.441406 318.210938 187.375 318.675781 187.046875 319.066406 C 186.71875 319.460938 186.195312 319.65625 185.535156 319.722656 C 184.484375 319.789062 182.710938 318.738281 181.136719 318.34375 C 179.296875 317.953125 177.195312 317.621094 175.164062 317.492188 C 172.992188 317.359375 169.648438 318.082031 168.53125 317.753906 C 168.132812 317.621094 167.9375 317.621094 167.742188 317.164062 C 166.691406 315.125 167.152344 300.8125 167.152344 295.953125 C 167.152344 293.394531 166.820312 290.503906 167.347656 290.042969 C 167.542969 289.910156 168.003906 290.042969 168.003906 290.042969 " clip-rule="nonzero"/></clipPath><clipPath id="10a116a2af"><path d="M 201 287 L 227.558594 287 L 227.558594 317.707031 L 201 317.707031 Z M 201 287 " clip-rule="nonzero"/></clipPath><clipPath id="3f9220f40b"><path d="M 205.695312 287.285156 C 202.742188 308.757812 202.28125 312.238281 202.476562 314.011719 C 202.542969 314.800781 202.742188 315.257812 203 315.652344 C 203.199219 315.914062 203.398438 316.179688 203.789062 316.246094 C 205.039062 316.375 208.914062 313.945312 211.734375 312.960938 C 214.820312 311.84375 219.222656 310.398438 221.652344 310.007812 C 223.03125 309.808594 224.082031 310.664062 224.871094 309.875 C 226.773438 307.902344 224.148438 290.4375 225.066406 290.175781 C 225.394531 290.109375 226.183594 291.488281 226.511719 292.734375 C 227.300781 295.625 227.300781 304.621094 226.96875 307.769531 C 226.835938 309.21875 227.101562 310.007812 226.183594 310.921875 C 224.34375 312.761719 216.136719 313.222656 212.328125 314.40625 C 209.570312 315.257812 206.941406 316.703125 205.238281 317.097656 C 204.316406 317.292969 203.59375 317.425781 203 317.226562 C 202.476562 317.03125 202.085938 316.636719 201.820312 316.179688 C 201.425781 315.523438 201.359375 314.734375 201.296875 313.617188 C 201.164062 311.382812 201.820312 306.917969 202.214844 303.4375 C 202.675781 299.695312 203.398438 294.835938 203.988281 291.816406 C 204.316406 289.910156 204.511719 287.480469 205.039062 287.152344 C 205.238281 287.023438 205.695312 287.285156 205.695312 287.285156 " clip-rule="nonzero"/></clipPath><clipPath id="cb82cb4f1e"><path d="M 23.144531 37.5 L 351.644531 37.5 L 351.644531 351 L 23.144531 351 Z M 23.144531 37.5 " clip-rule="nonzero"/></clipPath></defs><g clip-path="url(#d83ebe72d9)"><g clip-path="url(#370a411355)"><path fill="#c7a974" d="M 175.753906 72.039062 L 193.480469 72.039062 L 193.480469 90.425781 L 175.753906 90.425781 Z M 175.753906 72.039062 " fill-opacity="1" fill-rule="nonzero"/></g></g><g clip-path="url(#8031e77dbf)"><g clip-path="url(#0f8d439251)"><path fill="#c7a974" d="M 187.046875 69.148438 L 207.402344 69.148438 L 207.402344 91.476562 L 187.046875 91.476562 Z M 187.046875 69.148438 " fill-opacity="1" fill-rule="nonzero"/></g></g><g clip-path="url(#6cb5d5ffd3)"><g clip-path="url(#b5799613fc)"><path fill="#c7a974" d="M 181.464844 82.214844 L 191.3125 82.214844 L 191.3125 201.066406 L 181.464844 201.066406 Z M 181.464844 82.214844 " fill-opacity="1" fill-rule="nonzero"/></g></g><g clip-path="url(#65a743cbc2)"><g clip-path="url(#e64dd395b9)"><path fill="#c7a974" d="M 185.078125 78.671875 L 196.238281 78.671875 L 196.238281 201.464844 L 185.078125 201.464844 Z M 185.078125 78.671875 " fill-opacity="1" fill-rule="nonzero"/></g></g><g clip-path="url(#e291aefe1e)"><g clip-path="url(#399e7ec029)"><path fill="#c7a974" d="M 186.0625 80.511719 L 192.628906 80.511719 L 192.628906 86.417969 L 186.0625 86.417969 Z M 186.0625 80.511719 " fill-opacity="1" fill-rule="nonzero"/></g></g><g clip-path="url(#766a47daa2)"><g clip-path="url(#e8fbd3084b)"><path fill="#c7a974" d="M 185.734375 93.640625 L 192.957031 93.640625 L 192.957031 102.835938 L 185.734375 102.835938 Z M 185.734375 93.640625 " fill-opacity="1" fill-rule="nonzero"/></g></g><g clip-path="url(#43cf6b72d3)"><g clip-path="url(#5c49d5359a)"><path fill="#c7a974" d="M 185.996094 110.191406 L 192.5625 110.191406 L 192.5625 118.070312 L 185.996094 118.070312 Z M 185.996094 110.191406 " fill-opacity="1" fill-rule="nonzero"/></g></g><g clip-path="url(#2782b26a19)"><g clip-path="url(#0eaff91cf8)"><path fill="#c7a974" d="M 184.550781 123.585938 L 191.777344 123.585938 L 191.777344 131.464844 L 184.550781 131.464844 Z M 184.550781 123.585938 " fill-opacity="1" fill-rule="nonzero"/></g></g><g clip-path="url(#aa3fd285b1)"><g clip-path="url(#0c51101dd2)"><path fill="#c7a974" d="M 184.289062 138.488281 L 190.855469 138.488281 L 190.855469 147.027344 L 184.289062 147.027344 Z M 184.289062 138.488281 " fill-opacity="1" fill-rule="nonzero"/></g></g><g clip-path="url(#44fe6df4dc)"><g clip-path="url(#4af487f0f7)"><path fill="#c7a974" d="M 183.433594 157.597656 L 190.65625 157.597656 L 190.65625 165.476562 L 183.433594 165.476562 Z M 183.433594 157.597656 " fill-opacity="1" fill-rule="nonzero"/></g></g><g clip-path="url(#c906ff5ec9)"><g clip-path="url(#c87268b65e)"><path fill="#c7a974" d="M 181.792969 171.324219 L 189.015625 171.324219 L 189.015625 179.859375 L 181.792969 179.859375 Z M 181.792969 171.324219 " fill-opacity="1" fill-rule="nonzero"/></g></g><g clip-path="url(#104aa8d896)"><g clip-path="url(#0951c220c6)"><path fill="#c7a974" d="M 216.203125 89.964844 L 226.050781 89.964844 L 226.050781 126.082031 L 216.203125 126.082031 Z M 216.203125 89.964844 " fill-opacity="1" fill-rule="nonzero"/></g></g><g clip-path="url(#bd1e04f22c)"><g clip-path="url(#da5150604b)"><path fill="#c7a974" d="M 201.230469 75.785156 L 246.535156 75.785156 L 246.535156 159.832031 L 201.230469 159.832031 Z M 201.230469 75.785156 " fill-opacity="1" fill-rule="nonzero"/></g></g><g clip-path="url(#e308a81cb2)"><g clip-path="url(#eed9f35a27)"><path fill="#c7a974" d="M 219.15625 146.371094 L 228.347656 146.371094 L 228.347656 157.53125 L 219.15625 157.53125 Z M 219.15625 146.371094 " fill-opacity="1" fill-rule="nonzero"/></g></g><g clip-path="url(#5a8d022f26)"><g clip-path="url(#46e0b8054f)"><path fill="#c7a974" d="M 222.441406 132.582031 L 236.886719 132.582031 L 236.886719 145.058594 L 222.441406 145.058594 Z M 222.441406 132.582031 " fill-opacity="1" fill-rule="nonzero"/></g></g><g clip-path="url(#902e9f91f1)"><g clip-path="url(#d57547f7cd)"><path fill="#c7a974" d="M 225.066406 140.660156 L 236.226562 140.660156 L 236.226562 149.195312 L 225.066406 149.195312 Z M 225.066406 140.660156 " fill-opacity="1" fill-rule="nonzero"/></g></g><g clip-path="url(#f60dac4ae5)"><g clip-path="url(#4dafa10bbc)"><path fill="#c7a974" d="M 232.882812 152.804688 L 242.730469 152.804688 L 242.730469 167.25 L 232.882812 167.25 Z M 232.882812 152.804688 " fill-opacity="1" fill-rule="nonzero"/></g></g><g clip-path="url(#f4d6da1a80)"><g clip-path="url(#cbbc097d1e)"><path fill="#c7a974" d="M 219.945312 151.691406 L 227.167969 151.691406 L 227.167969 165.476562 L 219.945312 165.476562 Z M 219.945312 151.691406 " fill-opacity="1" fill-rule="nonzero"/></g></g><g clip-path="url(#934f4c1653)"><g clip-path="url(#3934649d56)"><path fill="#c7a974" d="M 220.535156 161.933594 L 226.445312 161.933594 L 226.445312 167.84375 L 220.535156 167.84375 Z M 220.535156 161.933594 " fill-opacity="1" fill-rule="nonzero"/></g></g><g clip-path="url(#07154bf774)"><g clip-path="url(#158652918f)"><path fill="#c7a974" d="M 220.46875 160.226562 L 238.855469 160.226562 L 238.855469 168.105469 L 220.46875 168.105469 Z M 220.46875 160.226562 " fill-opacity="1" fill-rule="nonzero"/></g></g><g clip-path="url(#866e3968df)"><g clip-path="url(#343309f419)"><path fill="#c7a974" d="M 219.484375 161.144531 L 225.394531 161.144531 L 225.394531 167.054688 L 219.484375 167.054688 Z M 219.484375 161.144531 " fill-opacity="1" fill-rule="nonzero"/></g></g><g clip-path="url(#8d35914ebd)"><g clip-path="url(#78170cdf2c)"><path fill="#c7a974" d="M 220.207031 160.816406 L 226.773438 160.816406 L 226.773438 171.980469 L 220.207031 171.980469 Z M 220.207031 160.816406 " fill-opacity="1" fill-rule="nonzero"/></g></g><g clip-path="url(#7b90ea2266)"><g clip-path="url(#a71eb44469)"><path fill="#c7a974" d="M 233.734375 162.261719 L 241.613281 162.261719 L 241.613281 175.394531 L 233.734375 175.394531 Z M 233.734375 162.261719 " fill-opacity="1" fill-rule="nonzero"/></g></g><g clip-path="url(#a2dc6172a0)"><g clip-path="url(#d33db02115)"><path fill="#c7a974" d="M 221.386719 167.84375 L 242.402344 167.84375 L 242.402344 176.378906 L 221.386719 176.378906 Z M 221.386719 167.84375 " fill-opacity="1" fill-rule="nonzero"/></g></g><g clip-path="url(#963c71c68c)"><g clip-path="url(#99431aa350)"><path fill="#c7a974" d="M 231.371094 165.019531 L 239.25 165.019531 L 239.25 172.898438 L 231.371094 172.898438 Z M 231.371094 165.019531 " fill-opacity="1" fill-rule="nonzero"/></g></g><g clip-path="url(#a2ad7617cc)"><g clip-path="url(#1b35f06eae)"><path fill="#c7a974" d="M 150.011719 76.4375 L 180.214844 76.4375 L 180.214844 164.429688 L 150.011719 164.429688 Z M 150.011719 76.4375 " fill-opacity="1" fill-rule="nonzero"/></g></g><g clip-path="url(#a31f17ad1e)"><g clip-path="url(#5d22d2299c)"><path fill="#c7a974" d="M 160.980469 103.363281 L 175.421875 103.363281 L 175.421875 146.042969 L 160.980469 146.042969 Z M 160.980469 103.363281 " fill-opacity="1" fill-rule="nonzero"/></g></g><g clip-path="url(#337de7b560)"><g clip-path="url(#6280a71063)"><path fill="#c7a974" d="M 162.75 117.28125 L 180.480469 117.28125 L 180.480469 159.304688 L 162.75 159.304688 Z M 162.75 117.28125 " fill-opacity="1" fill-rule="nonzero"/></g></g><g clip-path="url(#677d175db3)"><g clip-path="url(#74db324999)"><path fill="#c7a974" d="M 169.316406 109.992188 L 177.851562 109.992188 L 177.851562 125.75 L 169.316406 125.75 Z M 169.316406 109.992188 " fill-opacity="1" fill-rule="nonzero"/></g></g><g clip-path="url(#c13ec01973)"><g clip-path="url(#29b9c5f58e)"><path fill="#c7a974" d="M 209.109375 119.910156 L 222.898438 119.910156 L 222.898438 138.953125 L 209.109375 138.953125 Z M 209.109375 119.910156 " fill-opacity="1" fill-rule="nonzero"/></g></g><g clip-path="url(#2035a91393)"><g clip-path="url(#a07f325a3f)"><path fill="#c7a974" d="M 212.785156 122.273438 L 223.949219 122.273438 L 223.949219 148.539062 L 212.785156 148.539062 Z M 212.785156 122.273438 " fill-opacity="1" fill-rule="nonzero"/></g></g><g clip-path="url(#ff7e685f17)"><g clip-path="url(#7b5e1ad313)"><path fill="#c7a974" d="M 167.742188 147.945312 L 209.765625 147.945312 L 209.765625 159.109375 L 167.742188 159.109375 Z M 167.742188 147.945312 " fill-opacity="1" fill-rule="nonzero"/></g></g><g clip-path="url(#2a528b96f2)"><g clip-path="url(#3a6105c1fd)"><path fill="#c7a974" d="M 148.832031 153.199219 L 232.222656 153.199219 L 232.222656 199.164062 L 148.832031 199.164062 Z M 148.832031 153.199219 " fill-opacity="1" fill-rule="nonzero"/></g></g><g clip-path="url(#838d260edd)"><g clip-path="url(#840a225fa9)"><path fill="#c7a974" d="M 217.644531 151.824219 L 228.152344 151.824219 L 228.152344 189.90625 L 217.644531 189.90625 Z M 217.644531 151.824219 " fill-opacity="1" fill-rule="nonzero"/></g></g><g clip-path="url(#6fc89c91b9)"><g clip-path="url(#f6f5d3dbdd)"><path fill="#c7a974" d="M 218.367188 133.304688 L 226.246094 133.304688 L 226.246094 163.511719 L 218.367188 163.511719 Z M 218.367188 133.304688 " fill-opacity="1" fill-rule="nonzero"/></g></g><g clip-path="url(#170e468662)"><g clip-path="url(#df7514012a)"><path fill="#c7a974" d="M 216.726562 119.1875 L 224.605469 119.1875 L 224.605469 146.765625 L 216.726562 146.765625 Z M 216.726562 119.1875 " fill-opacity="1" fill-rule="nonzero"/></g></g><g clip-path="url(#b2015bbc80)"><g clip-path="url(#3107a87a64)"><path fill="#c7a974" d="M 160.453125 157.796875 L 168.988281 157.796875 L 168.988281 171.585938 L 160.453125 171.585938 Z M 160.453125 157.796875 " fill-opacity="1" fill-rule="nonzero"/></g></g><g clip-path="url(#d5d92715e8)"><g clip-path="url(#f71775c97e)"><path fill="#c7a974" d="M 158.023438 172.375 L 165.902344 172.375 L 165.902344 191.414062 L 158.023438 191.414062 Z M 158.023438 172.375 " fill-opacity="1" fill-rule="nonzero"/></g></g><g clip-path="url(#b981bbbd4c)"><g clip-path="url(#8ede2be286)"><path fill="#c7a974" d="M 158.285156 188.59375 L 171.417969 188.59375 L 171.417969 293.652344 L 158.285156 293.652344 Z M 158.285156 188.59375 " fill-opacity="1" fill-rule="nonzero"/></g></g><g clip-path="url(#a89bdd83b2)"><g clip-path="url(#be4e76c756)"><path fill="#c7a974" d="M 179.296875 195.683594 L 196.371094 195.683594 L 196.371094 286.957031 L 179.296875 286.957031 Z M 179.296875 195.683594 " fill-opacity="1" fill-rule="nonzero"/></g></g><g clip-path="url(#8b35bce18d)"><g clip-path="url(#a6e8edff32)"><path fill="#c7a974" d="M 191.710938 194.109375 L 210.753906 194.109375 L 210.753906 293.261719 L 191.710938 293.261719 Z M 191.710938 194.109375 " fill-opacity="1" fill-rule="nonzero"/></g></g><g clip-path="url(#e41f1a225a)"><g clip-path="url(#d6b42b66ac)"><path fill="#c7a974" d="M 220.796875 188.460938 L 231.304688 188.460938 L 231.304688 296.804688 L 220.796875 296.804688 Z M 220.796875 188.460938 " fill-opacity="1" fill-rule="nonzero"/></g></g><g clip-path="url(#4572e9e9af)"><g clip-path="url(#632eaeed23)"><path fill="#c7a974" d="M 164.523438 275.53125 L 190.132812 275.53125 L 190.132812 322.152344 L 164.523438 322.152344 Z M 164.523438 275.53125 " fill-opacity="1" fill-rule="nonzero"/></g></g><g clip-path="url(#10a116a2af)"><g clip-path="url(#3f9220f40b)"><path fill="#c7a974" d="M 198.667969 284.527344 L 229.53125 284.527344 L 229.53125 319.984375 L 198.667969 319.984375 Z M 198.667969 284.527344 " fill-opacity="1" fill-rule="nonzero"/></g></g><g clip-path="url(#cb82cb4f1e)"><path fill="#c7a974" d="M 194.804688 350.945312 C 194.574219 350.945312 194.339844 350.859375 194.164062 350.679688 L 122.171875 278.71875 C 121.816406 278.363281 121.816406 277.789062 122.171875 277.433594 C 122.527344 277.082031 123.097656 277.082031 123.453125 277.433594 L 194.804688 348.757812 L 349.347656 194.277344 L 194.804688 39.800781 L 169.378906 65.214844 C 169.023438 65.570312 168.449219 65.570312 168.09375 65.214844 C 167.742188 64.859375 167.742188 64.285156 168.09375 63.933594 L 194.164062 37.875 C 194.519531 37.519531 195.09375 37.519531 195.445312 37.875 L 351.269531 193.636719 C 351.625 193.992188 351.625 194.566406 351.269531 194.917969 L 195.445312 350.679688 C 195.269531 350.859375 195.035156 350.945312 194.804688 350.945312 Z M 165.8125 68.714844 C 166.097656 70.261719 165.105469 70.917969 164.125 71.640625 C 163.636719 72 163.3125 72.488281 162.992188 72.984375 C 162.101562 74.375 161.210938 75.761719 160.320312 77.15625 C 157.578125 81.4375 154.558594 85.503906 151.140625 89.273438 C 147.09375 93.730469 142.964844 98.105469 138.652344 102.3125 C 135.683594 105.199219 132.515625 107.835938 129.019531 110.070312 C 124.503906 112.960938 120.179688 116.152344 115.273438 118.425781 C 113.1875 119.390625 111.46875 120.855469 109.886719 122.601562 C 105.78125 127.136719 102.296875 132.050781 99.328125 137.394531 C 96.898438 141.773438 94.070312 145.933594 91.433594 150.195312 C 89.910156 152.652344 88.542969 155.199219 87.425781 157.871094 C 86.585938 159.898438 85.351562 161.707031 84.320312 163.625 C 81.554688 168.765625 78.777344 173.902344 76.640625 179.351562 C 76.226562 180.40625 75.648438 181.441406 75.699219 182.679688 C 76.183594 182.542969 76.277344 182.167969 76.457031 181.878906 C 79.125 177.386719 82.402344 173.394531 86.113281 169.722656 C 91.652344 164.238281 96.828125 158.425781 101.484375 152.15625 C 105.417969 146.851562 109.375 141.558594 113.320312 136.261719 C 114.769531 134.3125 116.382812 132.519531 118.171875 130.878906 C 120.042969 129.164062 121.910156 127.445312 123.785156 125.730469 C 124.265625 125.292969 124.78125 124.765625 125.476562 125.261719 C 126.09375 125.695312 125.804688 126.316406 125.613281 126.875 C 124.464844 130.289062 123.019531 133.585938 121.5625 136.871094 C 118.472656 143.832031 114.683594 150.433594 110.980469 157.078125 C 108.5625 161.429688 105.417969 165.269531 101.582031 168.503906 C 100.496094 169.417969 99.351562 170.238281 98.132812 170.96875 C 96.613281 171.875 95.101562 172.800781 93.65625 173.820312 C 91.269531 175.507812 88.683594 176.707031 85.898438 177.589844 C 83.527344 178.34375 81.347656 179.488281 79.464844 181.1875 C 76.851562 183.546875 75.359375 186.574219 74.746094 189.90625 C 74.019531 193.828125 73.199219 197.753906 73.046875 201.789062 C 72.898438 205.691406 73.25 209.566406 73.34375 213.453125 C 73.382812 215.222656 73.503906 216.988281 73.566406 218.753906 C 73.59375 219.410156 73.710938 220.035156 73.917969 220.65625 C 74.433594 220.507812 74.316406 220.042969 74.402344 219.726562 C 74.984375 217.601562 75.949219 215.648438 77.027344 213.75 C 81.042969 206.726562 85.652344 200.085938 90.207031 193.40625 C 90.46875 193.023438 90.808594 192.683594 91.148438 192.363281 C 91.417969 192.105469 91.769531 192.011719 92.125 192.199219 C 92.46875 192.382812 92.605469 192.695312 92.613281 193.078125 C 92.621094 193.632812 92.402344 194.128906 92.164062 194.59375 C 90.65625 197.558594 89.796875 200.742188 88.902344 203.921875 C 87.566406 208.660156 85.433594 213.078125 83.050781 217.355469 C 81.046875 220.957031 79.265625 224.699219 76.78125 228.023438 C 76.335938 228.617188 76.515625 228.941406 77.085938 229.273438 C 83.867188 233.195312 88.78125 239.109375 93.722656 244.976562 C 95.847656 247.503906 97.902344 250.097656 99.988281 252.660156 C 103.492188 256.964844 107.203125 261.074219 111.15625 264.980469 C 113.921875 267.71875 116.605469 270.550781 119.308594 273.347656 C 119.824219 273.882812 120.660156 274.480469 120.070312 275.285156 C 119.417969 276.175781 118.554688 275.535156 117.855469 275.148438 C 112.90625 272.378906 107.714844 270.136719 102.453125 268.046875 C 99.882812 267.027344 97.765625 265.3125 95.878906 263.34375 C 92.605469 259.925781 89.589844 256.292969 86.992188 252.335938 C 82.902344 246.121094 79.109375 239.734375 75.636719 233.160156 C 75.304688 232.535156 74.898438 231.953125 74.574219 231.324219 C 73.28125 228.832031 71.117188 227.472656 68.476562 226.914062 C 64.277344 226.027344 60.449219 224.304688 56.664062 222.316406 C 52.648438 220.207031 48.464844 218.421875 44.324219 216.558594 C 40.808594 214.976562 37.492188 213.085938 34.523438 210.613281 C 32.21875 208.691406 29.542969 207.492188 26.730469 206.542969 C 25.78125 206.226562 24.84375 205.867188 23.914062 205.492188 C 23.441406 205.304688 23.140625 204.941406 23.238281 204.386719 C 23.347656 203.769531 23.84375 203.722656 24.328125 203.75 C 26.035156 203.855469 27.738281 203.996094 29.449219 204.101562 C 33.21875 204.339844 36.964844 204.792969 40.707031 205.300781 C 43.367188 205.664062 45.851562 206.585938 48.183594 207.902344 C 50.082031 208.976562 51.972656 210.074219 53.816406 211.238281 C 58.058594 213.921875 61.953125 217.09375 66.078125 219.945312 C 67.484375 220.917969 68.671875 222.167969 69.882812 223.382812 C 70.289062 223.789062 70.628906 224.285156 71.296875 224.574219 C 71.347656 223.265625 70.933594 222.175781 70.554688 221.085938 C 69.726562 218.683594 68.566406 216.425781 67.382812 214.1875 C 64.121094 208.035156 61.160156 201.761719 58.578125 195.277344 C 56.523438 190.117188 55.234375 184.722656 53.199219 179.570312 C 52.660156 178.210938 52.421875 176.730469 52.117188 175.292969 C 51.957031 174.546875 51.910156 173.773438 51.890625 173.007812 C 51.863281 172.179688 51.816406 171.1875 52.828125 170.949219 C 53.75 170.738281 54.132812 171.601562 54.449219 172.296875 C 55.527344 174.667969 57.058594 176.777344 58.296875 179.058594 C 61.867188 185.652344 64.914062 192.492188 67.925781 199.347656 C 69.136719 202.109375 70.039062 204.972656 70.695312 207.917969 C 70.8125 208.46875 70.984375 209.015625 71.296875 209.503906 C 71.296875 207.398438 71.414062 205.292969 71.269531 203.199219 C 71.007812 199.238281 71.273438 195.296875 71.410156 191.347656 C 71.8125 179.207031 70.960938 167.195312 67.957031 155.375 C 67.664062 154.222656 67.214844 153.53125 66.015625 153.207031 C 62.519531 152.257812 60.175781 149.796875 58.132812 146.96875 C 57.480469 146.066406 56.851562 145.152344 55.5625 145.03125 C 55.125 144.988281 54.6875 144.675781 54.308594 144.402344 C 51.324219 142.253906 49.074219 139.496094 47.609375 136.113281 C 47.179688 135.113281 47.03125 134.070312 47.261719 132.996094 C 47.554688 131.667969 48.394531 131.152344 49.742188 131.433594 C 50.464844 131.585938 51.046875 131.96875 51.585938 132.433594 C 52.539062 133.242188 53.371094 134.167969 54.027344 135.226562 C 55.820312 138.132812 57.703125 141.003906 58.4375 144.421875 C 58.449219 144.476562 58.46875 144.535156 58.488281 144.589844 C 59.441406 147.308594 63.605469 150.878906 66.539062 151.484375 C 66.898438 151.015625 66.527344 150.578125 66.417969 150.164062 C 65.234375 145.785156 64.027344 141.40625 62.808594 137.035156 C 62.300781 135.210938 62.0625 133.339844 61.789062 131.472656 C 61.660156 130.601562 61.527344 129.796875 60.558594 129.320312 C 59.757812 128.925781 59.359375 128.042969 58.945312 127.257812 C 56.886719 123.347656 56.628906 119.152344 57.046875 114.863281 C 57.050781 114.804688 57.078125 114.746094 57.089844 114.6875 C 57.480469 112.960938 58.160156 112.113281 59.28125 112.042969 C 60.789062 111.945312 61.488281 113.007812 62.042969 114.140625 C 63.015625 116.128906 63.417969 118.289062 63.539062 120.472656 C 63.683594 123.125 63.636719 125.78125 63.050781 128.394531 C 62.902344 129.042969 63.011719 129.671875 63.105469 130.316406 C 63.734375 134.707031 64.988281 138.953125 66.125 143.21875 C 67.8125 149.539062 69.972656 155.726562 71.109375 162.253906 C 71.601562 162.101562 71.597656 161.722656 71.625 161.4375 C 72.101562 157.035156 72.480469 152.636719 71.855469 148.207031 C 71.734375 147.347656 71.472656 146.789062 70.78125 146.167969 C 68.109375 143.796875 67.015625 140.6875 67.050781 137.15625 C 67.054688 136.921875 67.101562 136.683594 67.15625 136.457031 C 67.472656 135.160156 68.351562 134.246094 69.335938 134.191406 C 70.316406 134.128906 71.070312 134.703125 71.59375 136.097656 C 72.40625 138.253906 73.054688 140.492188 73.097656 142.800781 C 73.140625 145.519531 73.472656 148.207031 73.664062 150.914062 C 73.8125 152.980469 73.84375 155.027344 73.632812 157.089844 C 73.308594 160.199219 73.0625 163.308594 72.191406 166.332031 C 72.015625 166.945312 71.925781 167.570312 72.007812 168.246094 C 72.644531 173.277344 72.90625 178.347656 73.144531 183.410156 C 73.152344 183.625 73.113281 183.867188 73.332031 184.027344 C 73.660156 183.878906 73.609375 183.535156 73.679688 183.273438 C 74.609375 179.660156 76.097656 176.253906 77.730469 172.917969 C 79.023438 170.265625 80.296875 167.601562 81.761719 165.042969 C 84.332031 160.554688 85.605469 155.675781 86.285156 150.625 C 87.316406 142.941406 87.25 135.214844 86.746094 127.492188 C 86.078125 117.238281 85.96875 106.984375 86.589844 96.726562 C 86.65625 95.65625 86.871094 94.621094 87.332031 93.648438 C 87.621094 93.042969 87.976562 92.484375 88.765625 92.546875 C 89.558594 92.613281 89.847656 93.234375 90.019531 93.863281 C 90.234375 94.65625 90.421875 95.46875 90.484375 96.289062 C 90.789062 100.265625 91.6875 104.078125 93.347656 107.722656 C 95.628906 112.726562 96.039062 118.0625 95.976562 123.46875 C 95.929688 127.433594 95.511719 131.355469 94.558594 135.210938 C 94.488281 135.488281 94.394531 135.769531 94.570312 136.058594 C 94.976562 135.839844 95.066406 135.417969 95.226562 135.050781 C 96.714844 131.707031 98.421875 128.472656 100.21875 125.285156 C 102.996094 120.351562 105.394531 115.222656 107.96875 110.175781 C 108.878906 108.394531 109.757812 106.582031 110.816406 104.882812 C 111.796875 103.296875 112.480469 101.652344 112.746094 99.8125 C 113.339844 95.699219 114.589844 91.773438 116.304688 88 C 116.722656 87.085938 116.734375 86.289062 116.296875 85.332031 C 114.734375 81.9375 115.238281 78.542969 116.558594 75.207031 C 116.839844 74.488281 117.320312 73.875 117.921875 73.375 C 119.339844 72.207031 120.640625 72.597656 121.140625 74.355469 C 121.472656 75.511719 121.398438 76.710938 121.253906 77.871094 C 120.816406 81.347656 119.769531 84.609375 118.199219 87.777344 C 116.554688 91.085938 115.105469 94.527344 114.722656 98.390625 C 115.453125 98.125 115.671875 97.492188 115.976562 96.984375 C 118.605469 92.644531 121.3125 88.355469 124.265625 84.222656 C 126.152344 81.585938 128.160156 79.039062 129.761719 76.203125 C 130.296875 75.253906 130.710938 74.339844 130.597656 73.210938 C 130.472656 72.019531 130.773438 70.863281 131.160156 69.742188 C 132.230469 66.648438 133.644531 63.75 135.820312 61.269531 C 136.367188 60.648438 136.933594 60.042969 137.691406 59.675781 C 138.859375 59.109375 139.773438 59.457031 140.257812 60.660156 C 140.652344 61.632812 140.546875 62.636719 140.3125 63.621094 C 139.714844 66.132812 138.648438 68.46875 136.863281 70.316406 C 133.441406 73.851562 130.65625 77.839844 127.894531 81.882812 C 124.730469 86.507812 121.390625 91.011719 118.566406 95.859375 C 118.027344 96.777344 117.484375 97.695312 116.851562 98.546875 C 112.730469 104.128906 109.597656 110.269531 106.585938 116.484375 C 104.753906 120.253906 102.816406 123.960938 100.746094 127.605469 C 97.917969 132.589844 95.753906 137.890625 93.410156 143.105469 C 93.320312 143.300781 93.269531 143.511719 93.113281 143.980469 C 93.839844 143.480469 94.09375 142.953125 94.386719 142.476562 C 95.78125 140.21875 97.230469 137.992188 98.511719 135.667969 C 100.945312 131.261719 103.632812 127.050781 107.144531 123.402344 C 107.636719 122.894531 108.117188 122.371094 108.539062 121.804688 C 113.347656 115.421875 119.148438 109.929688 124.453125 103.992188 C 125.355469 102.980469 126.296875 102 127.253906 101.042969 C 132.175781 96.125 137.109375 91.214844 142.039062 86.300781 C 143.921875 84.425781 145.929688 82.699219 148.089844 81.144531 C 149.382812 80.214844 150.632812 79.207031 151.785156 78.117188 C 155.429688 74.660156 159.359375 71.542969 163.214844 68.335938 C 163.484375 68.105469 163.769531 67.894531 164.050781 67.683594 C 164.519531 67.335938 165.007812 66.816406 165.621094 67.175781 C 166.289062 67.5625 165.722656 68.234375 165.8125 68.714844 Z M 132.359375 72.847656 C 134.199219 71.019531 135.796875 69.402344 137.003906 67.445312 C 137.871094 66.039062 138.519531 64.539062 138.828125 62.902344 C 138.949219 62.273438 139.136719 61.640625 138.519531 61.144531 C 135.699219 62.882812 132.296875 69.175781 132.359375 72.847656 Z M 117.925781 84.683594 C 119.152344 81.171875 120.105469 78 119.539062 74.4375 C 117.066406 76.007812 116.199219 81.265625 117.925781 84.683594 Z M 71.589844 144.335938 C 71.464844 141.277344 71.015625 138.460938 69.539062 135.628906 C 67.914062 137.890625 69.109375 142.679688 71.589844 144.335938 Z M 61.90625 120.09375 C 61.746094 118.257812 61.386719 116.480469 60.589844 114.8125 C 60.347656 114.304688 60.101562 113.605469 59.378906 113.761719 C 58.789062 113.886719 58.742188 114.539062 58.640625 115.058594 C 58.621094 115.175781 58.613281 115.289062 58.597656 115.40625 C 58.144531 118.867188 58.546875 122.226562 59.835938 125.460938 C 60.175781 126.316406 60.570312 127.175781 61.324219 127.800781 C 61.890625 127.285156 61.792969 126.652344 61.832031 126.09375 C 61.960938 124.097656 62.082031 122.097656 61.90625 120.09375 Z M 56.574219 143.386719 C 55.136719 140.128906 53.652344 136.96875 51.253906 134.332031 C 50.683594 133.699219 49.9375 132.636719 49.121094 133.132812 C 48.195312 133.691406 48.78125 134.859375 49.15625 135.6875 C 50.464844 138.589844 52.394531 141.019531 54.960938 142.910156 C 55.359375 143.207031 55.746094 143.648438 56.574219 143.386719 Z M 68.417969 211.152344 C 67.679688 208.855469 66.867188 206.578125 66.171875 204.265625 C 65.492188 201.996094 64.640625 199.789062 63.503906 197.726562 C 60.015625 191.410156 57.328125 184.753906 54.914062 177.972656 C 54.726562 177.4375 54.617188 176.867188 54.070312 176.492188 C 55.785156 182.84375 58.199219 188.96875 60.355469 195.175781 C 62.675781 201.828125 67.335938 211.449219 68.886719 213.039062 C 68.964844 212.324219 68.613281 211.753906 68.417969 211.152344 Z M 70.3125 213.457031 C 69.398438 209.378906 68.660156 205.253906 67.03125 201.378906 C 63.972656 194.109375 60.710938 186.933594 56.972656 179.980469 C 56.808594 179.671875 56.683594 179.332031 55.992188 178.960938 C 57.84375 183.703125 59.25 188.1875 61.5 192.339844 C 64.144531 197.207031 66.480469 202.203125 67.917969 207.59375 C 68.511719 209.828125 69.394531 211.980469 70.144531 214.175781 C 70.316406 213.910156 70.359375 213.671875 70.3125 213.457031 Z M 37.699219 208.753906 C 39.15625 208.886719 40.644531 209.089844 42.015625 209.636719 C 46.773438 211.53125 51.613281 213.246094 55.902344 216.15625 C 58.726562 218.070312 61.570312 219.976562 64.566406 221.628906 C 65.074219 221.90625 65.527344 222.386719 66.320312 222.308594 C 65.550781 221.433594 64.710938 220.882812 63.902344 220.300781 C 61.5625 218.605469 59.21875 216.917969 56.875 215.230469 C 53.859375 213.058594 50.707031 211.097656 47.453125 209.304688 C 44.613281 207.742188 41.582031 206.890625 38.378906 206.578125 C 36.675781 206.410156 34.980469 206.175781 33.285156 205.996094 C 32.441406 205.910156 31.597656 205.867188 30.753906 205.808594 C 30.734375 205.9375 30.707031 206.066406 30.683594 206.191406 C 33.027344 207.035156 35.097656 208.515625 37.699219 208.753906 Z M 68.6875 225.136719 C 67.855469 224.144531 66.730469 223.625 65.675781 223.007812 C 63.75 221.875 61.722656 220.878906 59.914062 219.582031 C 54.664062 215.808594 48.972656 212.921875 42.9375 210.648438 C 40.585938 209.765625 38.148438 209.480469 35.636719 209.160156 C 35.78125 209.691406 36.132812 209.832031 36.394531 210.046875 C 38.789062 211.992188 41.480469 213.433594 44.246094 214.773438 C 49.910156 217.511719 55.769531 219.851562 61.292969 222.898438 C 63.582031 224.164062 66.113281 224.695312 68.6875 225.136719 Z M 78.257812 232.289062 C 80.6875 235.527344 82.917969 238.855469 85.683594 241.765625 C 88.761719 245.015625 91.910156 248.203125 94.523438 251.863281 C 96.34375 254.410156 98.40625 256.742188 100.667969 258.917969 C 102.839844 261.003906 105.152344 262.917969 107.402344 264.914062 C 108.597656 265.976562 109.9375 266.878906 111.214844 267.855469 C 111.125 267.046875 110.597656 266.671875 110.160156 266.238281 C 107.351562 263.457031 104.59375 260.628906 102.0625 257.589844 C 98.636719 253.472656 95.253906 249.308594 91.839844 245.171875 C 89.097656 241.855469 86.179688 238.691406 83.09375 235.683594 C 81.675781 234.304688 80.152344 233.042969 78.257812 232.289062 Z M 78.015625 234.230469 C 81.335938 240.40625 84.953125 246.410156 88.851562 252.238281 C 91.179688 255.722656 93.886719 258.917969 96.757812 261.964844 C 98.511719 263.816406 100.4375 265.484375 102.824219 266.445312 C 105.773438 267.636719 108.6875 268.902344 111.589844 270.199219 C 112.019531 270.394531 112.457031 270.84375 113.03125 270.507812 C 112.855469 270.089844 112.460938 269.902344 112.160156 269.628906 C 109.589844 267.292969 106.742188 265.289062 104.136719 262.984375 C 100.285156 259.574219 96.601562 256.035156 93.640625 251.800781 C 92.417969 250.066406 91.089844 248.402344 89.601562 246.890625 C 85.753906 242.980469 82.160156 238.855469 78.875 234.460938 C 78.617188 234.117188 78.410156 233.683594 77.933594 233.558594 C 77.722656 233.839844 77.910156 234.035156 78.015625 234.230469 Z M 86.925781 204.210938 C 83.136719 209.785156 79.4375 215.402344 78.242188 222.226562 C 81.882812 216.578125 84.976562 210.671875 86.925781 204.210938 Z M 75.496094 226.972656 C 76.453125 224.894531 77.1875 222.742188 77.789062 220.535156 C 78.582031 217.625 79.691406 214.847656 81.109375 212.175781 C 82.941406 208.734375 85.128906 205.511719 87.082031 202.144531 C 87.574219 201.292969 88.15625 200.472656 88.496094 199.136719 C 88.144531 199.410156 88.027344 199.460938 87.964844 199.554688 C 84.3125 205.058594 80.496094 210.457031 77.449219 216.339844 C 76.464844 218.238281 75.753906 220.226562 75.546875 222.375 C 75.429688 223.609375 75.273438 224.832031 75.144531 226.066406 C 75.113281 226.378906 74.898438 226.757812 75.496094 226.972656 Z M 121.519531 132.105469 C 121.089844 132.667969 120.761719 133.078125 120.457031 133.503906 C 117.890625 137.105469 115.550781 140.851562 113.257812 144.632812 C 110.941406 148.449219 108.925781 152.457031 105.925781 155.84375 C 102.410156 159.8125 99.078125 163.945312 95.132812 167.519531 C 92.816406 169.628906 90.347656 171.527344 87.789062 173.328125 C 86.660156 174.121094 85.441406 174.839844 84.542969 176.074219 C 84.84375 176.097656 85.027344 176.160156 85.179688 176.113281 C 87.394531 175.460938 89.53125 174.65625 91.464844 173.355469 C 93.175781 172.203125 94.871094 171.019531 96.660156 170 C 98.835938 168.761719 100.742188 167.214844 102.523438 165.480469 C 105.980469 162.117188 108.664062 158.183594 110.957031 153.972656 C 112.847656 150.507812 114.6875 147.019531 116.550781 143.535156 C 118.304688 140.261719 119.875 136.902344 121.289062 133.46875 C 121.433594 133.109375 121.757812 132.773438 121.519531 132.105469 Z M 81.796875 176.96875 C 82.378906 176.957031 82.570312 176.71875 82.773438 176.523438 C 84.84375 174.589844 87.140625 172.9375 89.460938 171.316406 C 90.859375 170.335938 92.160156 169.222656 93.472656 168.132812 C 97.527344 164.753906 100.839844 160.671875 104.296875 156.738281 C 106 154.796875 107.738281 152.839844 109.027344 150.578125 C 112.824219 143.929688 116.738281 137.351562 121.316406 131.191406 C 121.609375 130.800781 122.023438 130.4375 122.023438 129.621094 C 119.15625 131.96875 116.683594 134.371094 114.632812 137.179688 C 110.941406 142.21875 107.171875 147.199219 103.4375 152.207031 C 98.285156 159.125 92.605469 165.5625 86.472656 171.613281 C 84.835938 173.226562 83.277344 174.90625 81.796875 176.96875 Z M 88.648438 148.101562 C 89.855469 143.472656 90.746094 138.796875 90.9375 134.007812 C 91.019531 131.890625 90.980469 129.765625 91.101562 127.648438 C 91.273438 124.632812 91.136719 121.636719 90.6875 118.660156 C 89.734375 112.3125 88.867188 105.957031 88.671875 99.527344 C 88.644531 98.605469 88.507812 97.683594 88.425781 96.761719 C 87.890625 98.492188 88.011719 100.242188 87.933594 101.972656 C 87.597656 109.753906 87.707031 117.523438 88.207031 125.296875 C 88.546875 130.589844 88.90625 135.878906 88.566406 141.191406 C 88.402344 143.75 88.429688 146.316406 88.09375 149.269531 C 88.40625 148.628906 88.582031 148.378906 88.648438 148.101562 Z M 91.765625 140.457031 C 92.953125 135.167969 94.316406 129.910156 94.414062 124.441406 C 94.496094 120.003906 94.382812 115.582031 92.972656 111.328125 C 91.992188 108.378906 90.792969 105.5 89.699219 102.585938 L 89.4375 102.664062 C 89.722656 105.648438 89.882812 108.652344 90.328125 111.613281 C 91.203125 117.382812 92.039062 123.128906 91.714844 129.007812 C 91.5 133.003906 91.59375 137.015625 90.847656 140.976562 C 90.523438 142.703125 90.226562 144.4375 89.921875 146.164062 C 90.902344 144.359375 91.332031 142.40625 91.765625 140.457031 Z M 159.234375 75.539062 C 157.1875 76.980469 155.457031 78.730469 153.871094 80.632812 C 150.628906 84.527344 147.378906 88.429688 143.636719 91.863281 C 139.683594 95.484375 135.535156 98.886719 131.273438 102.148438 C 126.167969 106.058594 121.222656 110.148438 116.691406 114.726562 C 116.226562 115.199219 115.785156 115.703125 115.199219 116.34375 C 116.089844 116.34375 116.550781 115.949219 117.0625 115.695312 C 121.203125 113.65625 124.835938 110.804688 128.710938 108.34375 C 130.550781 107.175781 132.339844 105.917969 133.960938 104.449219 C 141 98.066406 147.550781 91.207031 153.597656 83.875 C 155.734375 81.292969 157.617188 78.519531 159.234375 75.539062 Z M 161.441406 72.15625 C 160.917969 72.050781 160.710938 72.492188 160.417969 72.722656 C 155.527344 76.617188 151.160156 81.136719 146.046875 84.769531 C 145.136719 85.410156 144.273438 86.191406 143.617188 87.082031 C 142.976562 87.945312 142.234375 88.675781 141.476562 89.414062 C 136.871094 93.902344 132.265625 98.386719 127.671875 102.890625 C 126.757812 103.789062 125.917969 104.765625 125.046875 105.707031 C 125.144531 105.792969 125.234375 105.878906 125.328125 105.960938 C 127.089844 104.589844 128.851562 103.214844 130.613281 101.835938 C 138.300781 95.84375 145.816406 89.660156 151.902344 81.953125 C 154.433594 78.742188 157.277344 75.851562 160.535156 73.367188 C 160.941406 73.0625 161.390625 72.761719 161.441406 72.15625 Z M 161.441406 72.15625 " fill-opacity="1" fill-rule="nonzero"/></g></svg>