<svg xmlns="http://www.w3.org/2000/svg" xmlns:xlink="http://www.w3.org/1999/xlink" width="500" zoomAndPan="magnify" viewBox="0 0 375 374.999991" height="500" preserveAspectRatio="xMidYMid meet" version="1.0"><defs><clipPath id="f1ffa0b86a"><path d="M 23.144531 37.5 L 351.644531 37.5 L 351.644531 351 L 23.144531 351 Z M 23.144531 37.5 " clip-rule="nonzero"/></clipPath><clipPath id="b994281b8a"><path d="M 153.355469 78.332031 L 172.445312 78.332031 L 172.445312 132.652344 L 153.355469 132.652344 Z M 153.355469 78.332031 " clip-rule="nonzero"/></clipPath><clipPath id="5f71ec030d"><path d="M 169.5 87.195312 C 165.605469 79.804688 165.011719 79.609375 164.617188 79.738281 C 164.15625 79.9375 164.019531 80.53125 163.691406 81.589844 C 162.238281 85.613281 158.347656 104.484375 156.894531 112.933594 C 155.90625 118.609375 154.058594 124.679688 155.113281 127.1875 C 155.640625 128.441406 156.894531 129.300781 157.949219 129.234375 C 159.269531 129.167969 161.183594 125.734375 162.4375 125.207031 C 163.164062 124.945312 163.691406 124.945312 164.417969 125.140625 C 165.671875 125.539062 167.714844 127.121094 168.773438 128.242188 C 169.566406 129.03125 169.699219 130.617188 170.355469 130.816406 C 170.882812 131.015625 172.273438 130.089844 172.273438 129.957031 C 172.273438 129.890625 171.613281 129.957031 171.613281 129.957031 C 171.613281 129.957031 172.207031 130.023438 172.273438 130.15625 C 172.335938 130.484375 171.015625 132.199219 170.421875 132.265625 C 169.960938 132.335938 169.5 131.875 169.105469 131.476562 C 168.511719 130.882812 168.308594 129.628906 167.585938 128.835938 C 166.660156 127.910156 164.546875 126.726562 163.691406 126.460938 C 163.363281 126.328125 163.230469 126.261719 162.898438 126.394531 C 162.042969 126.726562 160.324219 129.5625 159.203125 130.15625 C 158.480469 130.550781 157.753906 130.617188 157.089844 130.484375 C 156.433594 130.355469 155.839844 130.023438 155.3125 129.496094 C 154.652344 128.769531 154.058594 127.648438 153.792969 126.195312 C 153.398438 123.6875 154.253906 120.125 154.980469 115.636719 C 156.300781 107.390625 160.257812 85.351562 162.4375 80.796875 C 163.03125 79.542969 163.492188 78.882812 164.222656 78.617188 C 164.945312 78.355469 166.132812 78.488281 166.925781 79.082031 C 168.046875 79.871094 169.105469 82.511719 169.632812 84.027344 C 170.027344 85.214844 170.421875 86.933594 170.160156 87.261719 C 170.027344 87.394531 169.5 87.195312 169.5 87.195312 " clip-rule="nonzero"/></clipPath><clipPath id="8f382b62ac"><path d="M 168.203125 85.316406 L 175.550781 85.316406 L 175.550781 133.632812 L 168.203125 133.632812 Z M 168.203125 85.316406 " clip-rule="nonzero"/></clipPath><clipPath id="b6c96b262b"><path d="M 174.976562 86.867188 C 169.894531 90.167969 170.226562 98.285156 170.027344 103.628906 C 169.828125 109.171875 170.09375 116.101562 170.621094 120.589844 C 170.949219 123.621094 171.476562 126 172.070312 128.113281 C 172.535156 129.695312 173.65625 131.078125 173.65625 132.070312 C 173.65625 132.730469 172.929688 133.589844 172.996094 133.589844 C 172.996094 133.589844 173.394531 132.996094 173.394531 132.996094 C 173.394531 132.996094 172.996094 133.589844 172.800781 133.523438 C 172.335938 133.457031 171.679688 131.605469 171.148438 130.15625 C 170.355469 127.910156 169.566406 124.679688 169.105469 121.117188 C 168.511719 116.164062 168.378906 108.910156 168.640625 103.101562 C 168.90625 97.554688 168.574219 89.375 170.488281 87 C 171.476562 85.808594 173.65625 85.546875 174.515625 85.679688 C 174.976562 85.742188 175.441406 86.207031 175.441406 86.40625 C 175.441406 86.601562 174.976562 86.867188 174.976562 86.867188 " clip-rule="nonzero"/></clipPath><clipPath id="62577f8c4f"><path d="M 217 76.265625 L 239.179688 76.265625 L 239.179688 137.308594 L 217 137.308594 Z M 217 76.265625 " clip-rule="nonzero"/></clipPath><clipPath id="3c6aa7f23a"><path d="M 217.738281 88.449219 C 223.347656 78.222656 223.941406 77.367188 224.601562 76.96875 C 224.996094 76.703125 225.390625 76.570312 225.855469 76.703125 C 226.648438 76.902344 227.769531 78.222656 228.691406 79.410156 C 230.011719 81.125 231.199219 83.5 232.320312 86.539062 C 234.105469 91.289062 236.148438 100.0625 237.269531 105.539062 C 238.128906 109.699219 238.65625 112.933594 238.921875 116.496094 C 239.183594 119.859375 239.183594 123.292969 238.988281 126.328125 C 238.789062 129.03125 238.460938 131.9375 237.933594 133.851562 C 237.601562 135.105469 237.339844 136.558594 236.675781 136.886719 C 236.214844 137.152344 235.359375 136.953125 234.832031 136.488281 C 233.972656 135.632812 234.238281 132.136719 233.3125 130.683594 C 232.519531 129.429688 231.132812 127.847656 230.011719 127.910156 C 228.691406 127.976562 226.910156 131.671875 225.921875 132.070312 C 225.523438 132.265625 225.261719 132.199219 224.929688 132.070312 C 224.535156 131.875 224.269531 130.882812 223.808594 130.683594 C 223.347656 130.484375 222.554688 130.550781 222.027344 130.683594 C 221.566406 130.816406 221.167969 131.078125 220.773438 131.476562 C 220.246094 132.070312 220.046875 133.851562 219.386719 134.3125 C 218.792969 134.710938 217.210938 134.644531 217.144531 134.445312 C 217.078125 134.378906 217.40625 133.984375 217.539062 133.984375 C 217.609375 133.984375 217.804688 134.445312 217.738281 134.511719 C 217.671875 134.578125 217.144531 134.183594 217.144531 134.183594 C 217.144531 134.183594 217.804688 134.378906 217.804688 134.378906 C 217.804688 134.378906 217.144531 134.246094 217.144531 134.183594 C 217.144531 134.117188 217.609375 134.246094 217.871094 134.117188 C 218.664062 133.652344 219.980469 129.957031 221.300781 129.300781 C 222.222656 128.835938 223.675781 129.03125 224.402344 129.429688 C 224.929688 129.695312 224.996094 130.882812 225.457031 130.882812 C 226.25 130.949219 227.769531 127.648438 228.824219 126.988281 C 229.484375 126.59375 230.011719 126.261719 230.738281 126.460938 C 231.925781 126.789062 233.839844 129.03125 234.765625 130.550781 C 235.621094 132.003906 236.609375 135.105469 236.28125 135.433594 C 236.148438 135.570312 235.6875 135.5 235.554688 135.238281 C 235.027344 134.378906 236.8125 129.429688 237.074219 126.328125 C 237.339844 123.09375 237.269531 119.597656 237.007812 116.164062 C 236.742188 112.667969 236.148438 109.503906 235.421875 105.675781 C 234.5625 100.988281 233.046875 94.390625 231.859375 90.296875 C 231.070312 87.460938 230.34375 85.214844 229.417969 83.238281 C 228.625 81.589844 227.703125 79.9375 226.84375 79.082031 C 226.316406 78.550781 225.921875 78.023438 225.328125 78.15625 C 223.875 78.550781 221.101562 86.40625 219.652344 87.988281 C 219.058594 88.648438 218.398438 89.113281 218.066406 89.042969 C 217.871094 88.976562 217.738281 88.449219 217.738281 88.449219 " clip-rule="nonzero"/></clipPath><clipPath id="0d4e9c1cf7"><path d="M 224.007812 78.683594 L 228.316406 78.683594 L 228.316406 124.878906 L 224.007812 124.878906 Z M 224.007812 78.683594 " clip-rule="nonzero"/></clipPath><clipPath id="e57a8590a0"><path d="M 224.007812 79.542969 C 224.929688 78.683594 225.128906 78.949219 225.328125 79.410156 C 226.121094 81.589844 225.59375 93.199219 226.050781 100.460938 C 226.515625 108.246094 228.957031 124.480469 228.097656 124.742188 C 227.835938 124.8125 227.109375 123.425781 226.714844 122.433594 C 226.1875 120.984375 225.984375 119.332031 225.722656 116.691406 C 225.066406 110.753906 224.269531 94.390625 224.269531 87.789062 C 224.269531 84.292969 225.128906 80.730469 224.601562 79.871094 C 224.46875 79.609375 224.007812 79.542969 224.007812 79.542969 " clip-rule="nonzero"/></clipPath><clipPath id="a882b5d73c"><path d="M 164 86.339844 L 168 86.339844 L 168 91.523438 L 164 91.523438 Z M 164 86.339844 " clip-rule="nonzero"/></clipPath><clipPath id="216a424046"><path d="M 164.816406 86.339844 C 169.367188 92.671875 167.652344 91.484375 166.859375 90.628906 C 165.871094 89.640625 164.085938 87.261719 164.222656 86.667969 C 164.285156 86.472656 164.816406 86.339844 164.816406 86.339844 " clip-rule="nonzero"/></clipPath><clipPath id="2caa53458f"><path d="M 165 91 L 167.789062 91 L 167.789062 94.628906 L 165 94.628906 Z M 165 91 " clip-rule="nonzero"/></clipPath><clipPath id="b6aaaff522"><path d="M 165.9375 91.222656 C 168.835938 96.304688 166.332031 93.792969 165.738281 92.808594 C 165.40625 92.277344 165.144531 91.484375 165.277344 91.289062 C 165.34375 91.15625 165.9375 91.222656 165.9375 91.222656 " clip-rule="nonzero"/></clipPath><clipPath id="e35981872f"><path d="M 164.683594 95 L 169 95 L 169 100.65625 L 164.683594 100.65625 Z M 164.683594 95 " clip-rule="nonzero"/></clipPath><clipPath id="49eadce056"><path d="M 165.40625 95.378906 C 168.179688 98.679688 168.90625 100.527344 168.773438 100.59375 C 168.707031 100.65625 168.308594 100.261719 168.308594 100.195312 C 168.308594 100.0625 168.90625 99.933594 168.90625 100 C 168.90625 100.0625 168.640625 100.527344 168.445312 100.527344 C 167.851562 100.527344 165.804688 97.820312 165.210938 96.832031 C 164.878906 96.304688 164.617188 95.644531 164.75 95.445312 C 164.816406 95.3125 165.40625 95.378906 165.40625 95.378906 " clip-rule="nonzero"/></clipPath><clipPath id="4dc5e2a8c1"><path d="M 216 88.382812 L 220.558594 88.382812 L 220.558594 95.40625 L 216 95.40625 Z M 216 88.382812 " clip-rule="nonzero"/></clipPath><clipPath id="dbe1402448"><path d="M 220.378906 88.84375 C 218.527344 92.671875 216.484375 95.3125 216.21875 95.179688 C 216.023438 95.050781 216.550781 93.402344 216.945312 92.476562 C 217.472656 91.355469 218.664062 89.707031 219.257812 89.042969 C 219.519531 88.714844 219.785156 88.382812 219.980469 88.382812 C 220.113281 88.382812 220.378906 88.84375 220.378906 88.84375 " clip-rule="nonzero"/></clipPath><clipPath id="2990b4d147"><path d="M 217.453125 96.304688 L 219.628906 96.304688 L 219.628906 99 L 217.453125 99 Z M 217.453125 96.304688 " clip-rule="nonzero"/></clipPath><clipPath id="34029cc2b5"><path d="M 219.324219 96.765625 C 217.738281 100.0625 217.804688 97.953125 218.066406 97.292969 C 218.265625 96.832031 218.664062 96.304688 218.925781 96.304688 C 219.058594 96.304688 219.324219 96.765625 219.324219 96.765625 " clip-rule="nonzero"/></clipPath><clipPath id="b36fd7d200"><path d="M 174 82.335938 L 220.558594 82.335938 L 220.558594 103.890625 L 174 103.890625 Z M 174 82.335938 " clip-rule="nonzero"/></clipPath><clipPath id="39a01e1810"><path d="M 175.503906 86.074219 C 177.878906 95.644531 179.265625 97.164062 180.785156 98.21875 C 182.234375 99.273438 183.816406 99.800781 185.796875 100.328125 C 188.503906 101.054688 192.726562 101.714844 195.765625 101.453125 C 198.46875 101.183594 201.371094 100.128906 203.222656 99.207031 C 204.539062 98.546875 205.199219 97.820312 206.253906 96.894531 C 207.511719 95.773438 209.226562 94.457031 210.214844 92.808594 C 211.335938 90.957031 211.46875 87.921875 212.394531 86.140625 C 213.050781 84.753906 213.976562 83.039062 214.765625 82.777344 C 215.230469 82.644531 215.957031 82.90625 216.089844 83.171875 C 216.21875 83.5 215.625 84.621094 215.625 84.621094 C 215.625 84.621094 215.5625 83.304688 215.890625 83.171875 C 216.484375 82.90625 220.378906 85.480469 220.3125 85.878906 C 220.246094 86.074219 219.058594 86.207031 218.925781 86.007812 C 218.792969 85.878906 218.925781 85.414062 218.992188 85.414062 C 219.058594 85.414062 219.453125 85.878906 219.453125 85.878906 C 219.453125 85.878906 218.859375 85.546875 218.859375 85.546875 C 218.859375 85.546875 219.453125 85.742188 219.453125 85.878906 C 219.519531 86.074219 219.125 86.667969 218.730469 86.734375 C 218.136719 86.867188 216.484375 85.742188 215.757812 85.28125 C 215.296875 85.019531 214.902344 84.886719 214.703125 84.492188 C 214.503906 84.09375 214.503906 82.972656 214.765625 82.777344 C 215.035156 82.578125 215.890625 82.90625 216.089844 83.171875 C 216.285156 83.433594 216.15625 83.898438 216.023438 84.292969 C 215.757812 85.019531 214.636719 85.679688 214.042969 86.800781 C 213.117188 88.449219 212.722656 92.078125 211.800781 93.726562 C 211.207031 94.785156 210.679688 95.179688 209.753906 96.105469 C 208.367188 97.488281 206.253906 99.800781 204.011719 100.988281 C 201.636719 102.308594 198.730469 103.167969 195.765625 103.429688 C 192.398438 103.695312 187.78125 102.835938 184.808594 101.980469 C 182.628906 101.386719 180.914062 100.921875 179.332031 99.601562 C 177.484375 98.085938 175.503906 95.378906 174.710938 93.136719 C 174.050781 91.15625 174.117188 88.253906 174.382812 87 C 174.515625 86.40625 174.710938 85.808594 174.976562 85.742188 C 175.109375 85.679688 175.503906 86.074219 175.503906 86.074219 " clip-rule="nonzero"/></clipPath><clipPath id="ee8429ea5b"><path d="M 213.574219 89 L 217.433594 89 L 217.433594 135.675781 L 213.574219 135.675781 Z M 213.574219 89 " clip-rule="nonzero"/></clipPath><clipPath id="3fad1b0b28"><path d="M 217.277344 89.242188 C 217.40625 131.476562 216.75 135.042969 215.890625 135.367188 C 215.496094 135.5 214.636719 134.839844 214.570312 134.578125 C 214.503906 134.378906 214.835938 133.984375 214.902344 133.984375 C 214.96875 133.984375 215.164062 134.445312 215.097656 134.511719 C 215.035156 134.578125 214.703125 134.183594 214.503906 134.246094 C 214.304688 134.3125 213.976562 135.171875 213.910156 135.105469 C 213.710938 135.042969 215.496094 131.605469 215.957031 128.441406 C 217.078125 121.046875 215.625 95.578125 216.15625 90.957031 C 216.285156 89.902344 216.351562 89.242188 216.617188 89.042969 C 216.8125 88.976562 217.277344 89.242188 217.277344 89.242188 " clip-rule="nonzero"/></clipPath><clipPath id="4877ce29d2"><path d="M 149.394531 133.851562 L 173 133.851562 L 173 296 L 149.394531 296 Z M 149.394531 133.851562 " clip-rule="nonzero"/></clipPath><clipPath id="7a58ced798"><path d="M 171.941406 133.851562 C 173.195312 135.042969 172.863281 136.097656 172.535156 137.414062 C 171.875 140.121094 169.234375 145.335938 168.113281 149.558594 C 166.925781 153.914062 166.265625 158.863281 165.671875 163.285156 C 165.144531 167.308594 164.617188 171.203125 164.546875 174.960938 C 164.484375 178.394531 164.683594 181.496094 165.011719 184.796875 C 165.34375 188.226562 166.332031 191.527344 166.59375 195.289062 C 166.925781 199.578125 167.1875 203.800781 166.59375 209.210938 C 165.671875 217.128906 161.183594 231.054688 159.933594 237.851562 C 159.203125 241.546875 159.269531 243.921875 158.675781 246.429688 C 158.148438 248.542969 157.359375 249.664062 156.699219 252.042969 C 155.507812 256.132812 153.859375 263.589844 153.066406 268.933594 C 152.339844 273.683594 151.945312 278.105469 151.8125 282.53125 C 151.679688 286.753906 153.003906 293.085938 152.273438 294.871094 C 152.011719 295.527344 151.21875 295.925781 151.21875 295.925781 C 151.21875 295.925781 151.679688 295.464844 151.679688 295.464844 C 151.679688 295.464844 151.417969 295.925781 151.21875 295.925781 C 150.957031 295.925781 150.492188 295.464844 150.296875 295 C 149.964844 294.339844 149.964844 293.480469 149.835938 292.296875 C 149.636719 289.851562 149.703125 285.101562 149.898438 281.273438 C 150.097656 277.117188 150.296875 274.148438 151.21875 268.339844 C 153.265625 255.738281 163.164062 222.011719 164.617188 209.144531 C 165.277344 203.011719 164.878906 200.238281 164.617188 195.421875 C 164.285156 189.941406 162.636719 182.882812 162.503906 177.867188 C 162.4375 174.171875 162.703125 171.929688 163.164062 168.234375 C 163.824219 163.085938 164.945312 155.300781 166.53125 149.820312 C 167.851562 145.203125 170.621094 140.1875 171.414062 137.285156 C 171.808594 135.832031 171.941406 133.851562 171.941406 133.851562 " clip-rule="nonzero"/></clipPath><clipPath id="ccc93d0757"><path d="M 214.441406 137 L 215.757812 137 L 215.757812 138 L 214.441406 138 Z M 214.441406 137 " clip-rule="nonzero"/></clipPath><clipPath id="b3d5e61ae6"><path d="M 214.703125 137.878906 C 214.570312 136.820312 215.363281 137.285156 215.363281 137.285156 " clip-rule="nonzero"/></clipPath><clipPath id="209ec3645b"><path d="M 151.492188 135.238281 L 232.972656 135.238281 L 232.972656 312.972656 L 151.492188 312.972656 Z M 151.492188 135.238281 " clip-rule="nonzero"/></clipPath><clipPath id="53bf406605"><path d="M 214.636719 135.238281 C 216.878906 143.023438 219.125 144.609375 220.378906 146.71875 C 221.695312 148.964844 222.6875 151.339844 223.546875 154.175781 C 224.601562 157.738281 225.523438 161.964844 225.789062 166.449219 C 226.121094 171.863281 225.523438 178.722656 224.796875 184.53125 C 224.074219 190.078125 222.09375 195.683594 221.632812 200.699219 C 221.234375 205.058594 221.167969 208.023438 221.632812 212.972656 C 222.289062 220.566406 225.921875 235.082031 226.78125 241.746094 C 227.242188 245.246094 226.910156 246.960938 227.375 249.796875 C 227.902344 253.097656 229.21875 256.332031 229.949219 260.289062 C 230.871094 265.4375 231.726562 271.441406 232.058594 278.171875 C 232.519531 286.882812 233.3125 303.511719 231.664062 308.332031 C 231.070312 310.109375 230.078125 310.972656 229.21875 311.5625 C 228.625 311.960938 228.097656 312.289062 227.4375 312.15625 C 226.382812 311.960938 224.863281 309.648438 223.546875 309.1875 C 222.492188 308.859375 221.632812 308.859375 220.445312 309.121094 C 218.597656 309.519531 215.890625 311.5625 213.847656 312.15625 C 212.261719 312.621094 211.007812 312.949219 209.355469 312.816406 C 207.113281 312.621094 204.34375 311.5625 201.769531 310.3125 C 198.730469 308.859375 195.171875 305.691406 192.464844 304.238281 C 190.550781 303.25 188.964844 302.191406 187.25 302.125 C 185.667969 302.0625 184.414062 303.316406 182.628906 303.710938 C 180.320312 304.171875 176.824219 303.910156 174.515625 304.371094 C 172.734375 304.699219 171.542969 305.558594 169.960938 305.820312 C 168.246094 306.089844 166.398438 306.21875 164.617188 305.820312 C 162.636719 305.359375 160.523438 304.042969 158.609375 302.855469 C 156.699219 301.664062 154.320312 300.015625 153.132812 298.566406 C 152.273438 297.574219 151.746094 296.585938 151.550781 295.527344 C 151.417969 294.605469 152.144531 292.691406 152.011719 292.625 C 151.945312 292.625 151.617188 293.085938 151.617188 293.085938 C 151.617188 293.085938 152.011719 292.691406 152.207031 292.757812 C 152.671875 292.953125 153.132812 295.398438 153.792969 296.386719 C 154.386719 297.242188 154.980469 297.707031 155.839844 298.429688 C 156.960938 299.355469 158.480469 300.542969 159.996094 301.46875 C 161.648438 302.457031 163.691406 303.644531 165.472656 303.976562 C 166.925781 304.304688 168.113281 304.042969 169.761719 303.84375 C 172.070312 303.511719 175.570312 302.191406 177.878906 301.863281 C 179.597656 301.664062 180.914062 302.0625 182.433594 301.796875 C 184.019531 301.53125 185.734375 300.347656 187.25 300.347656 C 188.636719 300.347656 189.558594 300.742188 191.144531 301.46875 C 194.046875 302.71875 199.128906 307.011719 202.628906 308.59375 C 205.199219 309.785156 207.839844 310.640625 209.820312 310.839844 C 211.140625 310.972656 211.996094 310.839844 213.183594 310.441406 C 214.765625 309.914062 216.8125 308.199219 218.265625 307.671875 C 219.324219 307.273438 220.113281 307.210938 221.039062 307.144531 C 221.960938 307.078125 223.019531 306.945312 223.941406 307.339844 C 225.128906 307.804688 226.449219 310.046875 227.308594 310.246094 C 227.769531 310.378906 228.097656 310.246094 228.429688 309.980469 C 228.957031 309.582031 229.355469 308.988281 229.679688 307.738281 C 230.804688 303.511719 230.476562 286.292969 230.011719 277.644531 C 229.679688 270.980469 228.824219 264.710938 227.964844 260.09375 C 227.375 256.992188 226.515625 255.472656 225.921875 252.503906 C 225.128906 248.476562 225.066406 243.460938 224.207031 237.984375 C 223.148438 230.921875 220.3125 220.695312 219.652344 213.636719 C 219.191406 208.355469 219.191406 204.261719 219.71875 199.578125 C 220.246094 194.757812 222.160156 190.144531 222.816406 184.992188 C 223.613281 179.25 224.140625 172.0625 223.808594 166.648438 C 223.546875 162.296875 222.816406 158.269531 221.832031 154.839844 C 221.039062 152.066406 219.917969 149.359375 218.730469 147.511719 C 217.871094 146.191406 216.75 145.597656 215.957031 144.410156 C 215.164062 143.15625 214.375 141.703125 213.976562 140.25 C 213.582031 138.800781 213.183594 136.226562 213.644531 135.570312 C 213.847656 135.238281 214.636719 135.238281 214.636719 135.238281 " clip-rule="nonzero"/></clipPath><clipPath id="b2a13d26f5"><path d="M 214.503906 223.027344 L 225.214844 223.027344 L 225.214844 308.375 L 214.503906 308.375 Z M 214.503906 223.027344 " clip-rule="nonzero"/></clipPath><clipPath id="45ee13a9c2"><path d="M 216.75 223.53125 C 215.691406 239.769531 219.125 250.523438 220.445312 258.507812 C 221.632812 265.765625 222.554688 272.300781 223.28125 279.226562 C 224.007812 286.089844 224.734375 295.195312 224.929688 299.816406 C 225.066406 302.125 225.261719 303.511719 224.996094 305.03125 C 224.796875 306.21875 224.207031 308.265625 223.875 308.199219 C 223.148438 308.066406 223.414062 295.132812 222.886719 288.402344 C 222.289062 281.273438 221.566406 274.675781 220.378906 266.625 C 218.925781 256.59375 214.570312 240.824219 214.503906 233.035156 C 214.503906 228.878906 215.230469 224.058594 216.023438 223.464844 C 216.21875 223.269531 216.75 223.53125 216.75 223.53125 " clip-rule="nonzero"/></clipPath><clipPath id="a8d2a0297d"><path d="M 176.324219 233.367188 L 187.1875 233.367188 L 187.1875 301 L 176.324219 301 Z M 176.324219 233.367188 " clip-rule="nonzero"/></clipPath><clipPath id="2925f76c48"><path d="M 176.957031 233.367188 C 180.054688 237.457031 181.179688 240.160156 182.167969 243.261719 C 183.6875 248.015625 185.601562 256.859375 186.328125 261.9375 C 186.855469 265.371094 186.917969 267.023438 186.984375 270.582031 C 187.121094 276.457031 186.917969 288.335938 186.457031 293.75 C 186.195312 296.648438 186.261719 299.6875 185.535156 300.476562 C 185.203125 300.808594 184.675781 300.742188 184.347656 300.675781 C 184.148438 300.609375 183.816406 300.28125 183.816406 300.214844 C 183.816406 300.148438 184.480469 300.476562 184.480469 300.476562 C 184.480469 300.476562 183.953125 300.542969 183.816406 300.347656 C 183.359375 299.6875 184.675781 296.253906 184.941406 293.75 C 185.269531 290.378906 185.46875 286.488281 185.46875 281.933594 C 185.46875 275.863281 185.601562 267.152344 184.742188 260.484375 C 183.953125 254.546875 182.5 248.609375 180.914062 243.792969 C 179.597656 239.898438 175.96875 234.554688 176.363281 233.628906 C 176.429688 233.433594 176.957031 233.367188 176.957031 233.367188 " clip-rule="nonzero"/></clipPath><clipPath id="75be7ab712"><path d="M 165.804688 161.371094 L 166.238281 161.371094 L 166.238281 162 L 165.804688 162 Z M 165.804688 161.371094 " clip-rule="nonzero"/></clipPath><clipPath id="5dab86b30f"><path d="M 165.804688 161.371094 C 166.59375 161.699219 165.804688 161.964844 165.804688 161.964844 " clip-rule="nonzero"/></clipPath><clipPath id="af065d071d"><path d="M 209.691406 141.242188 L 215.125 141.242188 L 215.125 152 L 209.691406 152 Z M 209.691406 141.242188 " clip-rule="nonzero"/></clipPath><clipPath id="f896259a05"><path d="M 215.097656 141.703125 C 211.667969 150.28125 210.152344 152.066406 209.882812 151.933594 C 209.488281 151.734375 212.328125 144.277344 213.382812 142.628906 C 213.847656 141.902344 214.304688 141.242188 214.636719 141.242188 C 214.835938 141.242188 215.097656 141.703125 215.097656 141.703125 " clip-rule="nonzero"/></clipPath><clipPath id="0d3e0a8797"><path d="M 207.464844 140.1875 L 213 140.1875 L 213 146.621094 L 207.464844 146.621094 Z M 207.464844 140.1875 " clip-rule="nonzero"/></clipPath><clipPath id="a32ac85e2c"><path d="M 212.988281 140.648438 C 210.085938 145.664062 208.632812 146.71875 208.234375 146.585938 C 208.039062 146.523438 207.90625 145.929688 207.972656 145.929688 C 208.039062 145.929688 208.433594 146.191406 208.433594 146.324219 C 208.433594 146.457031 207.972656 146.652344 207.90625 146.585938 C 207.707031 146.390625 211.007812 141.769531 211.800781 140.847656 C 212.128906 140.515625 212.328125 140.1875 212.523438 140.1875 C 212.722656 140.1875 212.988281 140.648438 212.988281 140.648438 " clip-rule="nonzero"/></clipPath><clipPath id="8b15ccc23a"><path d="M 164 186.910156 L 189.515625 186.910156 L 189.515625 233.980469 L 164 233.980469 Z M 164 186.910156 " clip-rule="nonzero"/></clipPath><clipPath id="cfc65c1dfb"><path d="M 164.878906 186.910156 C 168.90625 203.140625 169.039062 203.472656 169.828125 204.726562 C 171.414062 207.367188 175.636719 212.445312 178.539062 215.878906 C 181.246094 219.046875 184.742188 221.816406 186.65625 224.585938 C 188.042969 226.632812 189.363281 228.746094 189.496094 230.460938 C 189.625 231.648438 189.03125 233.628906 188.636719 233.628906 C 188.175781 233.628906 187.511719 230.066406 186.722656 228.480469 C 185.996094 226.964844 185.269531 225.84375 184.082031 224.324219 C 182.433594 222.214844 179.597656 220.101562 177.285156 217.398438 C 174.382812 214.097656 170.355469 209.875 168.308594 205.648438 C 166.398438 201.6875 165.671875 196.476562 165.011719 193.042969 C 164.546875 190.734375 163.824219 187.765625 164.222656 187.105469 C 164.351562 186.910156 164.878906 186.910156 164.878906 186.910156 " clip-rule="nonzero"/></clipPath><clipPath id="c694c45725"><path d="M 216 202.492188 L 220 202.492188 L 220 217.703125 L 216 217.703125 Z M 216 202.492188 " clip-rule="nonzero"/></clipPath><clipPath id="c3b50d8572"><path d="M 219.917969 202.945312 C 217.011719 216.207031 216.417969 217.398438 216.285156 217.332031 C 215.957031 217.195312 217.210938 211.125 217.738281 208.488281 C 218.199219 206.375 218.664062 203.074219 219.257812 202.746094 C 219.453125 202.613281 219.917969 202.945312 219.917969 202.945312 " clip-rule="nonzero"/></clipPath><clipPath id="a79c050906"><path d="M 218.230469 199.378906 L 221 199.378906 L 221 204.820312 L 218.230469 204.820312 Z M 218.230469 199.378906 " clip-rule="nonzero"/></clipPath><clipPath id="d3b46049a2"><path d="M 220.972656 199.84375 C 216.683594 208.753906 219.125 201.953125 219.851562 200.5 C 220.113281 199.910156 220.3125 199.378906 220.507812 199.378906 C 220.640625 199.378906 220.972656 199.84375 220.972656 199.84375 " clip-rule="nonzero"/></clipPath><clipPath id="19f1e0f4a4"><path d="M 217 202.613281 L 219 202.613281 L 219 206.371094 L 217 206.371094 Z M 217 202.613281 " clip-rule="nonzero"/></clipPath><clipPath id="e3f3e2e025"><path d="M 218.792969 203.074219 C 216.285156 208.949219 217.144531 205.058594 217.539062 203.933594 C 217.738281 203.339844 218 202.679688 218.265625 202.613281 C 218.464844 202.613281 218.792969 203.074219 218.792969 203.074219 " clip-rule="nonzero"/></clipPath><clipPath id="783e0aab4b"><path d="M 172 131.9375 L 173 131.9375 L 173 134.980469 L 172 134.980469 Z M 172 131.9375 " clip-rule="nonzero"/></clipPath><clipPath id="59839c7050"><path d="M 172.800781 131.9375 C 173.457031 137.480469 171.808594 132.730469 172.140625 132.136719 C 172.273438 131.9375 172.800781 131.9375 172.800781 131.9375 " clip-rule="nonzero"/></clipPath><clipPath id="b1a3bd23ad"><path d="M 171.171875 132.464844 L 173.996094 132.464844 L 173.996094 137 L 171.171875 137 Z M 171.171875 132.464844 " clip-rule="nonzero"/></clipPath><clipPath id="6555f5d180"><path d="M 172.273438 132.464844 C 174.847656 138.734375 172.996094 136.425781 172.402344 135.304688 C 171.941406 134.445312 171.414062 133.058594 171.613281 132.664062 C 171.742188 132.464844 172.273438 132.464844 172.273438 132.464844 " clip-rule="nonzero"/></clipPath><clipPath id="54bed1345b"><path d="M 172 132.652344 L 173.996094 132.652344 L 173.996094 137 L 172 137 Z M 172 132.652344 " clip-rule="nonzero"/></clipPath><clipPath id="c9d606ba73"><path d="M 172.800781 132.996094 C 175.109375 140.121094 172.800781 135.367188 172.402344 134.183594 C 172.207031 133.652344 172.003906 133.257812 172.140625 133.058594 C 172.207031 132.929688 172.800781 132.996094 172.800781 132.996094 " clip-rule="nonzero"/></clipPath><clipPath id="f02a328cbf"><path d="M 171.667969 133.984375 L 173.996094 133.984375 L 173.996094 138 L 171.667969 138 Z M 171.667969 133.984375 " clip-rule="nonzero"/></clipPath><clipPath id="03740a9cf6"><path d="M 172.273438 133.984375 C 175.570312 141.242188 171.476562 135.238281 171.679688 134.378906 C 171.742188 134.117188 172.273438 133.984375 172.273438 133.984375 " clip-rule="nonzero"/></clipPath><clipPath id="6d122068d4"><path d="M 171.679688 136.558594 L 176.324219 136.558594 L 176.324219 141 L 171.679688 141 Z M 171.679688 136.558594 " clip-rule="nonzero"/></clipPath><clipPath id="e371a2c2e3"><path d="M 172.207031 136.558594 C 178.078125 141.441406 175.832031 140.78125 174.777344 140.1875 C 173.589844 139.460938 171.679688 137.613281 171.679688 137.019531 C 171.679688 136.820312 172.207031 136.558594 172.207031 136.558594 " clip-rule="nonzero"/></clipPath><clipPath id="bb3ff6363e"><path d="M 171.171875 136.164062 L 175.550781 136.164062 L 175.550781 141.964844 L 171.171875 141.964844 Z M 171.171875 136.164062 " clip-rule="nonzero"/></clipPath><clipPath id="e8360acde0"><path d="M 172.273438 136.164062 C 178.144531 145.464844 173.65625 139.988281 172.601562 138.339844 C 172.070312 137.480469 171.476562 136.691406 171.613281 136.359375 C 171.679688 136.164062 172.273438 136.164062 172.273438 136.164062 " clip-rule="nonzero"/></clipPath><clipPath id="bd7d45d3df"><path d="M 173 136.53125 L 175.550781 136.53125 L 175.550781 140 L 173 140 Z M 173 136.53125 " clip-rule="nonzero"/></clipPath><clipPath id="2c89596723"><path d="M 173.855469 136.691406 C 176.429688 142.101562 174.316406 139.460938 173.789062 138.472656 C 173.457031 137.8125 173.0625 137.019531 173.195312 136.757812 C 173.261719 136.625 173.855469 136.691406 173.855469 136.691406 " clip-rule="nonzero"/></clipPath><clipPath id="c748e04836"><path d="M 172 135.105469 L 174.773438 135.105469 L 174.773438 139.636719 L 172 139.636719 Z M 172 135.105469 " clip-rule="nonzero"/></clipPath><clipPath id="4a7977d3a9"><path d="M 172.800781 135.105469 C 176.097656 141.308594 173.988281 139.128906 173.261719 138.074219 C 172.667969 137.152344 171.941406 135.699219 172.140625 135.304688 C 172.207031 135.105469 172.800781 135.105469 172.800781 135.105469 " clip-rule="nonzero"/></clipPath><clipPath id="cb106c772f"><path d="M 169.566406 143 L 170.445312 143 L 170.445312 143.515625 L 169.566406 143.515625 Z M 169.566406 143 " clip-rule="nonzero"/></clipPath><clipPath id="71b97d8966"><path d="M 169.566406 143.484375 C 169.960938 142.695312 170.160156 143.484375 170.160156 143.484375 " clip-rule="nonzero"/></clipPath><clipPath id="7d6e18a851"><path d="M 164.683594 154.378906 L 170.53125 154.378906 L 170.53125 170.675781 L 164.683594 170.675781 Z M 164.683594 154.378906 " clip-rule="nonzero"/></clipPath><clipPath id="075fe6cdd9"><path d="M 164.816406 156.222656 C 165.40625 154.636719 165.738281 154.703125 166 154.96875 C 166.859375 155.894531 166.992188 162.09375 167.851562 164.933594 C 168.511719 167.179688 170.488281 170.609375 170.289062 170.671875 C 170.09375 170.738281 167.519531 167.242188 166.660156 165.195312 C 165.738281 163.019531 165.210938 159.785156 165.011719 157.871094 C 164.878906 156.683594 164.75 155.300781 165.078125 154.96875 C 165.277344 154.769531 165.871094 154.769531 166 154.96875 C 166.132812 155.164062 165.671875 156.488281 165.40625 156.554688 C 165.210938 156.617188 164.816406 156.222656 164.816406 156.222656 " clip-rule="nonzero"/></clipPath><clipPath id="0d95778ef4"><path d="M 162.355469 175.382812 L 171.667969 175.382812 L 171.667969 193 L 162.355469 193 Z M 162.355469 175.382812 " clip-rule="nonzero"/></clipPath><clipPath id="963e5948fa"><path d="M 163.296875 175.820312 C 169.167969 190.007812 171.542969 192.714844 171.347656 192.914062 C 171.214844 193.042969 169.105469 191.394531 168.378906 190.539062 C 167.78125 189.875 167.585938 189.414062 167.058594 188.359375 C 166 186.179688 163.757812 179.78125 163.097656 177.667969 C 162.832031 176.8125 162.4375 176.019531 162.636719 175.820312 C 162.769531 175.691406 163.296875 175.820312 163.296875 175.820312 " clip-rule="nonzero"/></clipPath><clipPath id="bf2302549f"><path d="M 216 93.664062 L 218.90625 93.664062 L 218.90625 96.957031 L 216 96.957031 Z M 216 93.664062 " clip-rule="nonzero"/></clipPath><clipPath id="46da923940"><path d="M 218.792969 94.125 C 215.691406 98.285156 216.417969 96.5 216.878906 95.710938 C 217.277344 94.984375 218.066406 93.664062 218.398438 93.664062 C 218.597656 93.664062 218.792969 94.125 218.792969 94.125 " clip-rule="nonzero"/></clipPath><clipPath id="d85aab9f3e"><path d="M 215.125 93.664062 L 219.542969 93.664062 L 219.542969 99 L 215.125 99 Z M 215.125 93.664062 " clip-rule="nonzero"/></clipPath><clipPath id="20b17401de"><path d="M 219.324219 94.191406 C 214.503906 101.453125 215.625 98.21875 216.351562 96.832031 C 217.011719 95.578125 218.332031 93.664062 218.859375 93.664062 C 219.058594 93.664062 219.324219 94.191406 219.324219 94.191406 " clip-rule="nonzero"/></clipPath><clipPath id="a25648eff9"><path d="M 216.675781 97 L 218.839844 97 L 218.839844 100 L 216.675781 100 Z M 216.675781 97 " clip-rule="nonzero"/></clipPath><clipPath id="d5fcbdd5e0"><path d="M 218.664062 98.019531 C 215.5625 102.441406 216.878906 98.085938 217.609375 97.488281 C 217.933594 97.226562 218.464844 97.226562 218.597656 97.359375 C 218.730469 97.488281 218.664062 98.019531 218.664062 98.019531 " clip-rule="nonzero"/></clipPath></defs><g clip-path="url(#f1ffa0b86a)"><path fill="#c7a974" d="M 194.804688 350.945312 C 194.574219 350.945312 194.339844 350.859375 194.164062 350.679688 L 122.171875 278.71875 C 121.816406 278.363281 121.816406 277.789062 122.171875 277.433594 C 122.527344 277.082031 123.097656 277.082031 123.453125 277.433594 L 194.804688 348.757812 L 349.347656 194.277344 L 194.804688 39.800781 L 169.378906 65.214844 C 169.023438 65.570312 168.449219 65.570312 168.09375 65.214844 C 167.742188 64.859375 167.742188 64.285156 168.09375 63.933594 L 194.164062 37.875 C 194.519531 37.519531 195.09375 37.519531 195.445312 37.875 L 351.269531 193.636719 C 351.625 193.992188 351.625 194.566406 351.269531 194.917969 L 195.445312 350.679688 C 195.269531 350.859375 195.035156 350.945312 194.804688 350.945312 Z M 165.8125 68.714844 C 166.097656 70.261719 165.105469 70.917969 164.125 71.640625 C 163.636719 72 163.3125 72.488281 162.992188 72.984375 C 162.101562 74.375 161.210938 75.761719 160.320312 77.15625 C 157.578125 81.4375 154.558594 85.503906 151.140625 89.273438 C 147.09375 93.730469 142.964844 98.105469 138.652344 102.3125 C 135.683594 105.199219 132.515625 107.835938 129.019531 110.070312 C 124.503906 112.960938 120.179688 116.152344 115.273438 118.425781 C 113.1875 119.390625 111.46875 120.855469 109.886719 122.601562 C 105.78125 127.136719 102.296875 132.050781 99.328125 137.394531 C 96.898438 141.773438 94.070312 145.933594 91.433594 150.195312 C 89.910156 152.652344 88.542969 155.199219 87.425781 157.871094 C 86.585938 159.898438 85.351562 161.707031 84.320312 163.625 C 81.554688 168.765625 78.777344 173.902344 76.640625 179.351562 C 76.226562 180.40625 75.648438 181.441406 75.699219 182.679688 C 76.183594 182.542969 76.277344 182.167969 76.457031 181.878906 C 79.125 177.386719 82.402344 173.394531 86.113281 169.722656 C 91.652344 164.238281 96.828125 158.425781 101.484375 152.15625 C 105.417969 146.851562 109.375 141.558594 113.320312 136.261719 C 114.769531 134.3125 116.382812 132.519531 118.171875 130.878906 C 120.042969 129.164062 121.910156 127.445312 123.785156 125.730469 C 124.265625 125.292969 124.78125 124.765625 125.476562 125.261719 C 126.09375 125.695312 125.804688 126.316406 125.613281 126.875 C 124.464844 130.289062 123.019531 133.585938 121.5625 136.871094 C 118.472656 143.832031 114.683594 150.433594 110.980469 157.078125 C 108.5625 161.429688 105.417969 165.269531 101.582031 168.503906 C 100.496094 169.417969 99.351562 170.238281 98.132812 170.96875 C 96.613281 171.875 95.101562 172.800781 93.65625 173.820312 C 91.269531 175.507812 88.683594 176.707031 85.898438 177.589844 C 83.527344 178.34375 81.347656 179.488281 79.464844 181.1875 C 76.851562 183.546875 75.359375 186.574219 74.746094 189.90625 C 74.019531 193.828125 73.199219 197.753906 73.046875 201.789062 C 72.898438 205.691406 73.25 209.566406 73.34375 213.453125 C 73.382812 215.222656 73.503906 216.988281 73.566406 218.753906 C 73.59375 219.410156 73.710938 220.035156 73.917969 220.65625 C 74.433594 220.507812 74.316406 220.042969 74.402344 219.726562 C 74.984375 217.601562 75.949219 215.648438 77.027344 213.75 C 81.042969 206.726562 85.652344 200.085938 90.207031 193.40625 C 90.46875 193.023438 90.808594 192.683594 91.148438 192.363281 C 91.417969 192.105469 91.769531 192.011719 92.125 192.199219 C 92.46875 192.382812 92.605469 192.695312 92.613281 193.078125 C 92.621094 193.632812 92.402344 194.128906 92.164062 194.59375 C 90.65625 197.558594 89.796875 200.742188 88.902344 203.921875 C 87.566406 208.660156 85.433594 213.078125 83.050781 217.355469 C 81.046875 220.957031 79.265625 224.699219 76.78125 228.023438 C 76.335938 228.617188 76.515625 228.941406 77.085938 229.273438 C 83.867188 233.195312 88.78125 239.109375 93.722656 244.976562 C 95.847656 247.503906 97.902344 250.097656 99.988281 252.660156 C 103.492188 256.964844 107.203125 261.074219 111.15625 264.980469 C 113.921875 267.71875 116.605469 270.550781 119.308594 273.347656 C 119.824219 273.882812 120.660156 274.480469 120.070312 275.285156 C 119.417969 276.175781 118.554688 275.535156 117.855469 275.148438 C 112.90625 272.378906 107.714844 270.136719 102.453125 268.046875 C 99.882812 267.027344 97.765625 265.3125 95.878906 263.34375 C 92.605469 259.925781 89.589844 256.292969 86.992188 252.335938 C 82.902344 246.121094 79.109375 239.734375 75.636719 233.160156 C 75.304688 232.535156 74.898438 231.953125 74.574219 231.324219 C 73.28125 228.832031 71.117188 227.472656 68.476562 226.914062 C 64.277344 226.027344 60.449219 224.304688 56.664062 222.316406 C 52.648438 220.207031 48.464844 218.421875 44.324219 216.558594 C 40.808594 214.976562 37.492188 213.085938 34.523438 210.613281 C 32.21875 208.691406 29.542969 207.492188 26.730469 206.542969 C 25.78125 206.226562 24.84375 205.867188 23.914062 205.492188 C 23.441406 205.304688 23.140625 204.941406 23.238281 204.386719 C 23.347656 203.769531 23.84375 203.722656 24.328125 203.75 C 26.035156 203.855469 27.738281 203.996094 29.449219 204.101562 C 33.21875 204.339844 36.964844 204.792969 40.707031 205.300781 C 43.367188 205.664062 45.851562 206.585938 48.183594 207.902344 C 50.082031 208.976562 51.972656 210.074219 53.816406 211.238281 C 58.058594 213.921875 61.953125 217.09375 66.078125 219.945312 C 67.484375 220.917969 68.671875 222.167969 69.882812 223.382812 C 70.289062 223.789062 70.628906 224.285156 71.296875 224.574219 C 71.347656 223.265625 70.933594 222.175781 70.554688 221.085938 C 69.726562 218.683594 68.566406 216.425781 67.382812 214.1875 C 64.121094 208.035156 61.160156 201.761719 58.578125 195.277344 C 56.523438 190.117188 55.234375 184.722656 53.199219 179.570312 C 52.660156 178.210938 52.421875 176.730469 52.117188 175.292969 C 51.957031 174.546875 51.910156 173.773438 51.890625 173.007812 C 51.863281 172.179688 51.816406 171.1875 52.828125 170.949219 C 53.75 170.738281 54.132812 171.601562 54.449219 172.296875 C 55.527344 174.667969 57.058594 176.777344 58.296875 179.058594 C 61.867188 185.652344 64.914062 192.492188 67.925781 199.347656 C 69.136719 202.109375 70.039062 204.972656 70.695312 207.917969 C 70.8125 208.46875 70.984375 209.015625 71.296875 209.503906 C 71.296875 207.398438 71.414062 205.292969 71.269531 203.199219 C 71.007812 199.238281 71.273438 195.296875 71.410156 191.347656 C 71.8125 179.207031 70.960938 167.195312 67.957031 155.375 C 67.664062 154.222656 67.214844 153.53125 66.015625 153.207031 C 62.519531 152.257812 60.175781 149.796875 58.132812 146.96875 C 57.480469 146.066406 56.851562 145.152344 55.5625 145.03125 C 55.125 144.988281 54.6875 144.675781 54.308594 144.402344 C 51.324219 142.253906 49.074219 139.496094 47.609375 136.113281 C 47.179688 135.113281 47.03125 134.070312 47.261719 132.996094 C 47.554688 131.667969 48.394531 131.152344 49.742188 131.433594 C 50.464844 131.585938 51.046875 131.96875 51.585938 132.433594 C 52.539062 133.242188 53.371094 134.167969 54.027344 135.226562 C 55.820312 138.132812 57.703125 141.003906 58.4375 144.421875 C 58.449219 144.476562 58.46875 144.535156 58.488281 144.589844 C 59.441406 147.308594 63.605469 150.878906 66.539062 151.484375 C 66.898438 151.015625 66.527344 150.578125 66.417969 150.164062 C 65.234375 145.785156 64.027344 141.40625 62.808594 137.035156 C 62.300781 135.210938 62.0625 133.339844 61.789062 131.472656 C 61.660156 130.601562 61.527344 129.796875 60.558594 129.320312 C 59.757812 128.925781 59.359375 128.042969 58.945312 127.257812 C 56.886719 123.347656 56.628906 119.152344 57.046875 114.863281 C 57.050781 114.804688 57.078125 114.746094 57.089844 114.6875 C 57.480469 112.960938 58.160156 112.113281 59.28125 112.042969 C 60.789062 111.945312 61.488281 113.007812 62.042969 114.140625 C 63.015625 116.128906 63.417969 118.289062 63.539062 120.472656 C 63.683594 123.125 63.636719 125.78125 63.050781 128.394531 C 62.902344 129.042969 63.011719 129.671875 63.105469 130.316406 C 63.734375 134.707031 64.988281 138.953125 66.125 143.21875 C 67.8125 149.539062 69.972656 155.726562 71.109375 162.253906 C 71.601562 162.101562 71.597656 161.722656 71.625 161.4375 C 72.101562 157.035156 72.480469 152.636719 71.855469 148.207031 C 71.734375 147.347656 71.472656 146.789062 70.78125 146.167969 C 68.109375 143.796875 67.015625 140.6875 67.050781 137.15625 C 67.054688 136.921875 67.101562 136.683594 67.15625 136.457031 C 67.472656 135.160156 68.351562 134.246094 69.335938 134.191406 C 70.316406 134.128906 71.070312 134.703125 71.59375 136.097656 C 72.40625 138.253906 73.054688 140.492188 73.097656 142.800781 C 73.140625 145.519531 73.472656 148.207031 73.664062 150.914062 C 73.8125 152.980469 73.84375 155.027344 73.632812 157.089844 C 73.308594 160.199219 73.0625 163.308594 72.191406 166.332031 C 72.015625 166.945312 71.925781 167.570312 72.007812 168.246094 C 72.644531 173.277344 72.90625 178.347656 73.144531 183.410156 C 73.152344 183.625 73.113281 183.867188 73.332031 184.027344 C 73.660156 183.878906 73.609375 183.535156 73.679688 183.273438 C 74.609375 179.660156 76.097656 176.253906 77.730469 172.917969 C 79.023438 170.265625 80.296875 167.601562 81.761719 165.042969 C 84.332031 160.554688 85.605469 155.675781 86.285156 150.625 C 87.316406 142.941406 87.25 135.214844 86.746094 127.492188 C 86.078125 117.238281 85.96875 106.984375 86.589844 96.726562 C 86.65625 95.65625 86.871094 94.621094 87.332031 93.648438 C 87.621094 93.042969 87.976562 92.484375 88.765625 92.546875 C 89.558594 92.613281 89.847656 93.234375 90.019531 93.863281 C 90.234375 94.65625 90.421875 95.46875 90.484375 96.289062 C 90.789062 100.265625 91.6875 104.078125 93.347656 107.722656 C 95.628906 112.726562 96.039062 118.0625 95.976562 123.46875 C 95.929688 127.433594 95.511719 131.355469 94.558594 135.210938 C 94.488281 135.488281 94.394531 135.769531 94.570312 136.058594 C 94.976562 135.839844 95.066406 135.417969 95.226562 135.050781 C 96.714844 131.707031 98.421875 128.472656 100.21875 125.285156 C 102.996094 120.351562 105.394531 115.222656 107.96875 110.175781 C 108.878906 108.394531 109.757812 106.582031 110.816406 104.882812 C 111.796875 103.296875 112.480469 101.652344 112.746094 99.8125 C 113.339844 95.699219 114.589844 91.773438 116.304688 88 C 116.722656 87.085938 116.734375 86.289062 116.296875 85.332031 C 114.734375 81.9375 115.238281 78.542969 116.558594 75.207031 C 116.839844 74.488281 117.320312 73.875 117.921875 73.375 C 119.339844 72.207031 120.640625 72.597656 121.140625 74.355469 C 121.472656 75.511719 121.398438 76.710938 121.253906 77.871094 C 120.816406 81.347656 119.769531 84.609375 118.199219 87.777344 C 116.554688 91.085938 115.105469 94.527344 114.722656 98.390625 C 115.453125 98.125 115.671875 97.492188 115.976562 96.984375 C 118.605469 92.644531 121.3125 88.355469 124.265625 84.222656 C 126.152344 81.585938 128.160156 79.039062 129.761719 76.203125 C 130.296875 75.253906 130.710938 74.339844 130.597656 73.210938 C 130.472656 72.019531 130.773438 70.863281 131.160156 69.742188 C 132.230469 66.648438 133.644531 63.75 135.820312 61.269531 C 136.367188 60.648438 136.933594 60.042969 137.691406 59.675781 C 138.859375 59.109375 139.773438 59.457031 140.257812 60.660156 C 140.652344 61.632812 140.546875 62.636719 140.3125 63.621094 C 139.714844 66.132812 138.648438 68.46875 136.863281 70.316406 C 133.441406 73.851562 130.65625 77.839844 127.894531 81.882812 C 124.730469 86.507812 121.390625 91.011719 118.566406 95.859375 C 118.027344 96.777344 117.484375 97.695312 116.851562 98.546875 C 112.730469 104.128906 109.597656 110.269531 106.585938 116.484375 C 104.753906 120.253906 102.816406 123.960938 100.746094 127.605469 C 97.917969 132.589844 95.753906 137.890625 93.410156 143.105469 C 93.320312 143.300781 93.269531 143.511719 93.113281 143.980469 C 93.839844 143.480469 94.09375 142.953125 94.386719 142.476562 C 95.78125 140.21875 97.230469 137.992188 98.511719 135.667969 C 100.945312 131.261719 103.632812 127.050781 107.144531 123.402344 C 107.636719 122.894531 108.117188 122.371094 108.539062 121.804688 C 113.347656 115.421875 119.148438 109.929688 124.453125 103.992188 C 125.355469 102.980469 126.296875 102 127.253906 101.042969 C 132.175781 96.125 137.109375 91.214844 142.039062 86.300781 C 143.921875 84.425781 145.929688 82.699219 148.089844 81.144531 C 149.382812 80.214844 150.632812 79.207031 151.785156 78.117188 C 155.429688 74.660156 159.359375 71.542969 163.214844 68.335938 C 163.484375 68.105469 163.769531 67.894531 164.050781 67.683594 C 164.519531 67.335938 165.007812 66.816406 165.621094 67.175781 C 166.289062 67.5625 165.722656 68.234375 165.8125 68.714844 Z M 132.359375 72.847656 C 134.199219 71.019531 135.796875 69.402344 137.003906 67.445312 C 137.871094 66.039062 138.519531 64.539062 138.828125 62.902344 C 138.949219 62.273438 139.136719 61.640625 138.519531 61.144531 C 135.699219 62.882812 132.296875 69.175781 132.359375 72.847656 Z M 117.925781 84.683594 C 119.152344 81.171875 120.105469 78 119.539062 74.4375 C 117.066406 76.007812 116.199219 81.265625 117.925781 84.683594 Z M 71.589844 144.335938 C 71.464844 141.277344 71.015625 138.460938 69.539062 135.628906 C 67.914062 137.890625 69.109375 142.679688 71.589844 144.335938 Z M 61.90625 120.09375 C 61.746094 118.257812 61.386719 116.480469 60.589844 114.8125 C 60.347656 114.304688 60.101562 113.605469 59.378906 113.761719 C 58.789062 113.886719 58.742188 114.539062 58.640625 115.058594 C 58.621094 115.175781 58.613281 115.289062 58.597656 115.40625 C 58.144531 118.867188 58.546875 122.226562 59.835938 125.460938 C 60.175781 126.316406 60.570312 127.175781 61.324219 127.800781 C 61.890625 127.285156 61.792969 126.652344 61.832031 126.09375 C 61.960938 124.097656 62.082031 122.097656 61.90625 120.09375 Z M 56.574219 143.386719 C 55.136719 140.128906 53.652344 136.96875 51.253906 134.332031 C 50.683594 133.699219 49.9375 132.636719 49.121094 133.132812 C 48.195312 133.691406 48.78125 134.859375 49.15625 135.6875 C 50.464844 138.589844 52.394531 141.019531 54.960938 142.910156 C 55.359375 143.207031 55.746094 143.648438 56.574219 143.386719 Z M 68.417969 211.152344 C 67.679688 208.855469 66.867188 206.578125 66.171875 204.265625 C 65.492188 201.996094 64.640625 199.789062 63.503906 197.726562 C 60.015625 191.410156 57.328125 184.753906 54.914062 177.972656 C 54.726562 177.4375 54.617188 176.867188 54.070312 176.492188 C 55.785156 182.84375 58.199219 188.96875 60.355469 195.175781 C 62.675781 201.828125 67.335938 211.449219 68.886719 213.039062 C 68.964844 212.324219 68.613281 211.753906 68.417969 211.152344 Z M 70.3125 213.457031 C 69.398438 209.378906 68.660156 205.253906 67.03125 201.378906 C 63.972656 194.109375 60.710938 186.933594 56.972656 179.980469 C 56.808594 179.671875 56.683594 179.332031 55.992188 178.960938 C 57.84375 183.703125 59.25 188.1875 61.5 192.339844 C 64.144531 197.207031 66.480469 202.203125 67.917969 207.59375 C 68.511719 209.828125 69.394531 211.980469 70.144531 214.175781 C 70.316406 213.910156 70.359375 213.671875 70.3125 213.457031 Z M 37.699219 208.753906 C 39.15625 208.886719 40.644531 209.089844 42.015625 209.636719 C 46.773438 211.53125 51.613281 213.246094 55.902344 216.15625 C 58.726562 218.070312 61.570312 219.976562 64.566406 221.628906 C 65.074219 221.90625 65.527344 222.386719 66.320312 222.308594 C 65.550781 221.433594 64.710938 220.882812 63.902344 220.300781 C 61.5625 218.605469 59.21875 216.917969 56.875 215.230469 C 53.859375 213.058594 50.707031 211.097656 47.453125 209.304688 C 44.613281 207.742188 41.582031 206.890625 38.378906 206.578125 C 36.675781 206.410156 34.980469 206.175781 33.285156 205.996094 C 32.441406 205.910156 31.597656 205.867188 30.753906 205.808594 C 30.734375 205.9375 30.707031 206.066406 30.683594 206.191406 C 33.027344 207.035156 35.097656 208.515625 37.699219 208.753906 Z M 68.6875 225.136719 C 67.855469 224.144531 66.730469 223.625 65.675781 223.007812 C 63.75 221.875 61.722656 220.878906 59.914062 219.582031 C 54.664062 215.808594 48.972656 212.921875 42.9375 210.648438 C 40.585938 209.765625 38.148438 209.480469 35.636719 209.160156 C 35.78125 209.691406 36.132812 209.832031 36.394531 210.046875 C 38.789062 211.992188 41.480469 213.433594 44.246094 214.773438 C 49.910156 217.511719 55.769531 219.851562 61.292969 222.898438 C 63.582031 224.164062 66.113281 224.695312 68.6875 225.136719 Z M 78.257812 232.289062 C 80.6875 235.527344 82.917969 238.855469 85.683594 241.765625 C 88.761719 245.015625 91.910156 248.203125 94.523438 251.863281 C 96.34375 254.410156 98.40625 256.742188 100.667969 258.917969 C 102.839844 261.003906 105.152344 262.917969 107.402344 264.914062 C 108.597656 265.976562 109.9375 266.878906 111.214844 267.855469 C 111.125 267.046875 110.597656 266.671875 110.160156 266.238281 C 107.351562 263.457031 104.59375 260.628906 102.0625 257.589844 C 98.636719 253.472656 95.253906 249.308594 91.839844 245.171875 C 89.097656 241.855469 86.179688 238.691406 83.09375 235.683594 C 81.675781 234.304688 80.152344 233.042969 78.257812 232.289062 Z M 78.015625 234.230469 C 81.335938 240.40625 84.953125 246.410156 88.851562 252.238281 C 91.179688 255.722656 93.886719 258.917969 96.757812 261.964844 C 98.511719 263.816406 100.4375 265.484375 102.824219 266.445312 C 105.773438 267.636719 108.6875 268.902344 111.589844 270.199219 C 112.019531 270.394531 112.457031 270.84375 113.03125 270.507812 C 112.855469 270.089844 112.460938 269.902344 112.160156 269.628906 C 109.589844 267.292969 106.742188 265.289062 104.136719 262.984375 C 100.285156 259.574219 96.601562 256.035156 93.640625 251.800781 C 92.417969 250.066406 91.089844 248.402344 89.601562 246.890625 C 85.753906 242.980469 82.160156 238.855469 78.875 234.460938 C 78.617188 234.117188 78.410156 233.683594 77.933594 233.558594 C 77.722656 233.839844 77.910156 234.035156 78.015625 234.230469 Z M 86.925781 204.210938 C 83.136719 209.785156 79.4375 215.402344 78.242188 222.226562 C 81.882812 216.578125 84.976562 210.671875 86.925781 204.210938 Z M 75.496094 226.972656 C 76.453125 224.894531 77.1875 222.742188 77.789062 220.535156 C 78.582031 217.625 79.691406 214.847656 81.109375 212.175781 C 82.941406 208.734375 85.128906 205.511719 87.082031 202.144531 C 87.574219 201.292969 88.15625 200.472656 88.496094 199.136719 C 88.144531 199.410156 88.027344 199.460938 87.964844 199.554688 C 84.3125 205.058594 80.496094 210.457031 77.449219 216.339844 C 76.464844 218.238281 75.753906 220.226562 75.546875 222.375 C 75.429688 223.609375 75.273438 224.832031 75.144531 226.066406 C 75.113281 226.378906 74.898438 226.757812 75.496094 226.972656 Z M 121.519531 132.105469 C 121.089844 132.667969 120.761719 133.078125 120.457031 133.503906 C 117.890625 137.105469 115.550781 140.851562 113.257812 144.632812 C 110.941406 148.449219 108.925781 152.457031 105.925781 155.84375 C 102.410156 159.8125 99.078125 163.945312 95.132812 167.519531 C 92.816406 169.628906 90.347656 171.527344 87.789062 173.328125 C 86.660156 174.121094 85.441406 174.839844 84.542969 176.074219 C 84.84375 176.097656 85.027344 176.160156 85.179688 176.113281 C 87.394531 175.460938 89.53125 174.65625 91.464844 173.355469 C 93.175781 172.203125 94.871094 171.019531 96.660156 170 C 98.835938 168.761719 100.742188 167.214844 102.523438 165.480469 C 105.980469 162.117188 108.664062 158.183594 110.957031 153.972656 C 112.847656 150.507812 114.6875 147.019531 116.550781 143.535156 C 118.304688 140.261719 119.875 136.902344 121.289062 133.46875 C 121.433594 133.109375 121.757812 132.773438 121.519531 132.105469 Z M 81.796875 176.96875 C 82.378906 176.957031 82.570312 176.71875 82.773438 176.523438 C 84.84375 174.589844 87.140625 172.9375 89.460938 171.316406 C 90.859375 170.335938 92.160156 169.222656 93.472656 168.132812 C 97.527344 164.753906 100.839844 160.671875 104.296875 156.738281 C 106 154.796875 107.738281 152.839844 109.027344 150.578125 C 112.824219 143.929688 116.738281 137.351562 121.316406 131.191406 C 121.609375 130.800781 122.023438 130.4375 122.023438 129.621094 C 119.15625 131.96875 116.683594 134.371094 114.632812 137.179688 C 110.941406 142.21875 107.171875 147.199219 103.4375 152.207031 C 98.285156 159.125 92.605469 165.5625 86.472656 171.613281 C 84.835938 173.226562 83.277344 174.90625 81.796875 176.96875 Z M 88.648438 148.101562 C 89.855469 143.472656 90.746094 138.796875 90.9375 134.007812 C 91.019531 131.890625 90.980469 129.765625 91.101562 127.648438 C 91.273438 124.632812 91.136719 121.636719 90.6875 118.660156 C 89.734375 112.3125 88.867188 105.957031 88.671875 99.527344 C 88.644531 98.605469 88.507812 97.683594 88.425781 96.761719 C 87.890625 98.492188 88.011719 100.242188 87.933594 101.972656 C 87.597656 109.753906 87.707031 117.523438 88.207031 125.296875 C 88.546875 130.589844 88.90625 135.878906 88.566406 141.191406 C 88.402344 143.75 88.429688 146.316406 88.09375 149.269531 C 88.40625 148.628906 88.582031 148.378906 88.648438 148.101562 Z M 91.765625 140.457031 C 92.953125 135.167969 94.316406 129.910156 94.414062 124.441406 C 94.496094 120.003906 94.382812 115.582031 92.972656 111.328125 C 91.992188 108.378906 90.792969 105.5 89.699219 102.585938 L 89.4375 102.664062 C 89.722656 105.648438 89.882812 108.652344 90.328125 111.613281 C 91.203125 117.382812 92.039062 123.128906 91.714844 129.007812 C 91.5 133.003906 91.59375 137.015625 90.847656 140.976562 C 90.523438 142.703125 90.226562 144.4375 89.921875 146.164062 C 90.902344 144.359375 91.332031 142.40625 91.765625 140.457031 Z M 159.234375 75.539062 C 157.1875 76.980469 155.457031 78.730469 153.871094 80.632812 C 150.628906 84.527344 147.378906 88.429688 143.636719 91.863281 C 139.683594 95.484375 135.535156 98.886719 131.273438 102.148438 C 126.167969 106.058594 121.222656 110.148438 116.691406 114.726562 C 116.226562 115.199219 115.785156 115.703125 115.199219 116.34375 C 116.089844 116.34375 116.550781 115.949219 117.0625 115.695312 C 121.203125 113.65625 124.835938 110.804688 128.710938 108.34375 C 130.550781 107.175781 132.339844 105.917969 133.960938 104.449219 C 141 98.066406 147.550781 91.207031 153.597656 83.875 C 155.734375 81.292969 157.617188 78.519531 159.234375 75.539062 Z M 161.441406 72.15625 C 160.917969 72.050781 160.710938 72.492188 160.417969 72.722656 C 155.527344 76.617188 151.160156 81.136719 146.046875 84.769531 C 145.136719 85.410156 144.273438 86.191406 143.617188 87.082031 C 142.976562 87.945312 142.234375 88.675781 141.476562 89.414062 C 136.871094 93.902344 132.265625 98.386719 127.671875 102.890625 C 126.757812 103.789062 125.917969 104.765625 125.046875 105.707031 C 125.144531 105.792969 125.234375 105.878906 125.328125 105.960938 C 127.089844 104.589844 128.851562 103.214844 130.613281 101.835938 C 138.300781 95.84375 145.816406 89.660156 151.902344 81.953125 C 154.433594 78.742188 157.277344 75.851562 160.535156 73.367188 C 160.941406 73.0625 161.390625 72.761719 161.441406 72.15625 Z M 161.441406 72.15625 " fill-opacity="1" fill-rule="nonzero"/></g><g clip-path="url(#b994281b8a)"><g clip-path="url(#5f71ec030d)"><path fill="#c7a974" d="M 151.152344 75.976562 L 174.910156 75.976562 L 174.910156 134.929688 L 151.152344 134.929688 Z M 151.152344 75.976562 " fill-opacity="1" fill-rule="nonzero"/></g></g><g clip-path="url(#8f382b62ac)"><g clip-path="url(#b6c96b262b)"><path fill="#c7a974" d="M 166 83.039062 L 177.878906 83.039062 L 177.878906 136.273438 L 166 136.273438 Z M 166 83.039062 " fill-opacity="1" fill-rule="nonzero"/></g></g><g clip-path="url(#62577f8c4f)"><g clip-path="url(#3c6aa7f23a)"><path fill="#c7a974" d="M 214.503906 74.0625 L 241.78125 74.0625 L 241.78125 139.613281 L 214.503906 139.613281 Z M 214.503906 74.0625 " fill-opacity="1" fill-rule="nonzero"/></g></g><g clip-path="url(#0d4e9c1cf7)"><g clip-path="url(#e57a8590a0)"><path fill="#c7a974" d="M 221.367188 76.042969 L 230.605469 76.042969 L 230.605469 127.515625 L 221.367188 127.515625 Z M 221.367188 76.042969 " fill-opacity="1" fill-rule="nonzero"/></g></g><g clip-path="url(#a882b5d73c)"><g clip-path="url(#216a424046)"><path fill="#c7a974" d="M 161.582031 83.699219 L 172.140625 83.699219 L 172.140625 95.136719 L 161.582031 95.136719 Z M 161.582031 83.699219 " fill-opacity="1" fill-rule="nonzero"/></g></g><g clip-path="url(#2caa53458f)"><g clip-path="url(#b6aaaff522)"><path fill="#c7a974" d="M 162.636719 88.582031 L 171.4375 88.582031 L 171.4375 98.699219 L 162.636719 98.699219 Z M 162.636719 88.582031 " fill-opacity="1" fill-rule="nonzero"/></g></g><g clip-path="url(#e35981872f)"><g clip-path="url(#49eadce056)"><path fill="#c7a974" d="M 162.109375 92.738281 L 171.347656 92.738281 L 171.347656 103.296875 L 162.109375 103.296875 Z M 162.109375 92.738281 " fill-opacity="1" fill-rule="nonzero"/></g></g><g clip-path="url(#4dc5e2a8c1)"><g clip-path="url(#dbe1402448)"><path fill="#c7a974" d="M 213.582031 85.742188 L 222.816406 85.742188 L 222.816406 97.625 L 213.582031 97.625 Z M 213.582031 85.742188 " fill-opacity="1" fill-rule="nonzero"/></g></g><g clip-path="url(#2990b4d147)"><g clip-path="url(#34029cc2b5)"><path fill="#c7a974" d="M 215.230469 93.664062 L 221.832031 93.664062 L 221.832031 102.902344 L 215.230469 102.902344 Z M 215.230469 93.664062 " fill-opacity="1" fill-rule="nonzero"/></g></g><g clip-path="url(#b36fd7d200)"><g clip-path="url(#39a01e1810)"><path fill="#c7a974" d="M 171.742188 80.136719 L 222.777344 80.136719 L 222.777344 106.09375 L 171.742188 106.09375 Z M 171.742188 80.136719 " fill-opacity="1" fill-rule="nonzero"/></g></g><g clip-path="url(#ee8429ea5b)"><g clip-path="url(#3fad1b0b28)"><path fill="#c7a974" d="M 211.273438 86.40625 L 220.507812 86.40625 L 220.507812 137.878906 L 211.273438 137.878906 Z M 211.273438 86.40625 " fill-opacity="1" fill-rule="nonzero"/></g></g><g clip-path="url(#4877ce29d2)"><g clip-path="url(#7a58ced798)"><path fill="#c7a974" d="M 147.195312 131.210938 L 175.792969 131.210938 L 175.792969 298.390625 L 147.195312 298.390625 Z M 147.195312 131.210938 " fill-opacity="1" fill-rule="nonzero"/></g></g><g clip-path="url(#ccc93d0757)"><g clip-path="url(#b3d5e61ae6)"><path fill="#c7a974" d="M 211.800781 134.3125 L 217.960938 134.3125 L 217.960938 140.472656 L 211.800781 140.472656 Z M 211.800781 134.3125 " fill-opacity="1" fill-rule="nonzero"/></g></g><g clip-path="url(#209ec3645b)"><g clip-path="url(#53bf406605)"><path fill="#c7a974" d="M 148.910156 132.597656 L 234.699219 132.597656 L 234.699219 315.613281 L 148.910156 315.613281 Z M 148.910156 132.597656 " fill-opacity="1" fill-rule="nonzero"/></g></g><g clip-path="url(#b2a13d26f5)"><g clip-path="url(#45ee13a9c2)"><path fill="#c7a974" d="M 211.867188 220.828125 L 227.703125 220.828125 L 227.703125 311.015625 L 211.867188 311.015625 Z M 211.867188 220.828125 " fill-opacity="1" fill-rule="nonzero"/></g></g><g clip-path="url(#a8d2a0297d)"><g clip-path="url(#2925f76c48)"><path fill="#c7a974" d="M 173.722656 230.726562 L 189.558594 230.726562 L 189.558594 303.316406 L 173.722656 303.316406 Z M 173.722656 230.726562 " fill-opacity="1" fill-rule="nonzero"/></g></g><g clip-path="url(#75be7ab712)"><g clip-path="url(#5dab86b30f)"><path fill="#c7a974" d="M 163.164062 158.730469 L 169.324219 158.730469 L 169.324219 164.449219 L 163.164062 164.449219 Z M 163.164062 158.730469 " fill-opacity="1" fill-rule="nonzero"/></g></g><g clip-path="url(#af065d071d)"><g clip-path="url(#f896259a05)"><path fill="#c7a974" d="M 207.246094 138.601562 L 217.804688 138.601562 L 217.804688 154.441406 L 207.246094 154.441406 Z M 207.246094 138.601562 " fill-opacity="1" fill-rule="nonzero"/></g></g><g clip-path="url(#0d3e0a8797)"><g clip-path="url(#a32ac85e2c)"><path fill="#c7a974" d="M 205.265625 137.546875 L 215.824219 137.546875 L 215.824219 149.425781 L 205.265625 149.425781 Z M 205.265625 137.546875 " fill-opacity="1" fill-rule="nonzero"/></g></g><g clip-path="url(#8b15ccc23a)"><g clip-path="url(#cfc65c1dfb)"><path fill="#c7a974" d="M 161.582031 184.269531 L 191.9375 184.269531 L 191.9375 236.183594 L 161.582031 236.183594 Z M 161.582031 184.269531 " fill-opacity="1" fill-rule="nonzero"/></g></g><g clip-path="url(#c694c45725)"><g clip-path="url(#c3b50d8572)"><path fill="#c7a974" d="M 213.644531 200.105469 L 222.445312 200.105469 L 222.445312 219.902344 L 213.644531 219.902344 Z M 213.644531 200.105469 " fill-opacity="1" fill-rule="nonzero"/></g></g><g clip-path="url(#a79c050906)"><g clip-path="url(#d3b46049a2)"><path fill="#c7a974" d="M 214.175781 196.742188 L 223.414062 196.742188 L 223.414062 211.257812 L 214.175781 211.257812 Z M 214.175781 196.742188 " fill-opacity="1" fill-rule="nonzero"/></g></g><g clip-path="url(#19f1e0f4a4)"><g clip-path="url(#e3f3e2e025)"><path fill="#c7a974" d="M 213.777344 199.972656 L 221.257812 199.972656 L 221.257812 211.851562 L 213.777344 211.851562 Z M 213.777344 199.972656 " fill-opacity="1" fill-rule="nonzero"/></g></g><g clip-path="url(#783e0aab4b)"><g clip-path="url(#59839c7050)"><path fill="#c7a974" d="M 169.5 129.300781 L 176.097656 129.300781 L 176.097656 140.296875 L 169.5 140.296875 Z M 169.5 129.300781 " fill-opacity="1" fill-rule="nonzero"/></g></g><g clip-path="url(#b1a3bd23ad)"><g clip-path="url(#6555f5d180)"><path fill="#c7a974" d="M 168.972656 129.828125 L 177.769531 129.828125 L 177.769531 141.265625 L 168.972656 141.265625 Z M 168.972656 129.828125 " fill-opacity="1" fill-rule="nonzero"/></g></g><g clip-path="url(#54bed1345b)"><g clip-path="url(#c9d606ba73)"><path fill="#c7a974" d="M 169.5 130.355469 L 177.859375 130.355469 L 177.859375 142.671875 L 169.5 142.671875 Z M 169.5 130.355469 " fill-opacity="1" fill-rule="nonzero"/></g></g><g clip-path="url(#f02a328cbf)"><g clip-path="url(#03740a9cf6)"><path fill="#c7a974" d="M 169.039062 131.34375 L 178.277344 131.34375 L 178.277344 143.660156 L 169.039062 143.660156 Z M 169.039062 131.34375 " fill-opacity="1" fill-rule="nonzero"/></g></g><g clip-path="url(#6d122068d4)"><g clip-path="url(#e371a2c2e3)"><path fill="#c7a974" d="M 169.039062 133.917969 L 180.914062 133.917969 L 180.914062 144.039062 L 169.039062 144.039062 Z M 169.039062 133.917969 " fill-opacity="1" fill-rule="nonzero"/></g></g><g clip-path="url(#bb3ff6363e)"><g clip-path="url(#e8360acde0)"><path fill="#c7a974" d="M 168.972656 133.523438 L 180.851562 133.523438 L 180.851562 148.039062 L 168.972656 148.039062 Z M 168.972656 133.523438 " fill-opacity="1" fill-rule="nonzero"/></g></g><g clip-path="url(#bd7d45d3df)"><g clip-path="url(#2c89596723)"><path fill="#c7a974" d="M 170.554688 134.050781 L 179.351562 134.050781 L 179.351562 144.609375 L 170.554688 144.609375 Z M 170.554688 134.050781 " fill-opacity="1" fill-rule="nonzero"/></g></g><g clip-path="url(#c748e04836)"><g clip-path="url(#4a7977d3a9)"><path fill="#c7a974" d="M 169.5 132.464844 L 178.738281 132.464844 L 178.738281 143.90625 L 169.5 143.90625 Z M 169.5 132.464844 " fill-opacity="1" fill-rule="nonzero"/></g></g><g clip-path="url(#cb106c772f)"><g clip-path="url(#71b97d8966)"><path fill="#c7a974" d="M 166.925781 140.054688 L 172.644531 140.054688 L 172.644531 146.214844 L 166.925781 146.214844 Z M 166.925781 140.054688 " fill-opacity="1" fill-rule="nonzero"/></g></g><g clip-path="url(#7d6e18a851)"><g clip-path="url(#075fe6cdd9)"><path fill="#c7a974" d="M 162.175781 152.132812 L 172.734375 152.132812 L 172.734375 173.246094 L 162.175781 173.246094 Z M 162.175781 152.132812 " fill-opacity="1" fill-rule="nonzero"/></g></g><g clip-path="url(#0d95778ef4)"><g clip-path="url(#963e5948fa)"><path fill="#c7a974" d="M 159.996094 173.183594 L 174.074219 173.183594 L 174.074219 195.617188 L 159.996094 195.617188 Z M 159.996094 173.183594 " fill-opacity="1" fill-rule="nonzero"/></g></g><g clip-path="url(#bf2302549f)"><g clip-path="url(#46da923940)"><path fill="#c7a974" d="M 213.183594 91.023438 L 221.546875 91.023438 L 221.546875 101.144531 L 213.183594 101.144531 Z M 213.183594 91.023438 " fill-opacity="1" fill-rule="nonzero"/></g></g><g clip-path="url(#d85aab9f3e)"><g clip-path="url(#20b17401de)"><path fill="#c7a974" d="M 212.0625 91.023438 L 222.183594 91.023438 L 222.183594 104.222656 L 212.0625 104.222656 Z M 212.0625 91.023438 " fill-opacity="1" fill-rule="nonzero"/></g></g><g clip-path="url(#a25648eff9)"><g clip-path="url(#d5fcbdd5e0)"><path fill="#c7a974" d="M 213.117188 94.71875 L 221.476562 94.71875 L 221.476562 105.277344 L 213.117188 105.277344 Z M 213.117188 94.71875 " fill-opacity="1" fill-rule="nonzero"/></g></g></svg>