<svg xmlns="http://www.w3.org/2000/svg" xmlns:xlink="http://www.w3.org/1999/xlink" width="500" zoomAndPan="magnify" viewBox="0 0 375 374.999991" height="500" preserveAspectRatio="xMidYMid meet" version="1.0"><defs><clipPath id="394d4d9e6e"><path d="M 23.144531 37.5 L 351.644531 37.5 L 351.644531 351 L 23.144531 351 Z M 23.144531 37.5 " clip-rule="nonzero"/></clipPath><clipPath id="484b74eb12"><path d="M 107.246094 113.15625 L 286.496094 113.15625 L 286.496094 292.40625 L 107.246094 292.40625 Z M 107.246094 113.15625 " clip-rule="nonzero"/></clipPath></defs><g clip-path="url(#394d4d9e6e)"><path fill="#c7a974" d="M 194.804688 350.945312 C 194.574219 350.945312 194.339844 350.859375 194.164062 350.679688 L 122.171875 278.71875 C 121.816406 278.363281 121.816406 277.789062 122.171875 277.433594 C 122.527344 277.082031 123.097656 277.082031 123.453125 277.433594 L 194.804688 348.757812 L 349.347656 194.277344 L 194.804688 39.800781 L 169.378906 65.214844 C 169.023438 65.570312 168.449219 65.570312 168.09375 65.214844 C 167.742188 64.859375 167.742188 64.285156 168.09375 63.933594 L 194.164062 37.875 C 194.519531 37.519531 195.09375 37.519531 195.445312 37.875 L 351.269531 193.636719 C 351.625 193.992188 351.625 194.566406 351.269531 194.917969 L 195.445312 350.679688 C 195.269531 350.859375 195.035156 350.945312 194.804688 350.945312 Z M 165.8125 68.714844 C 166.097656 70.261719 165.105469 70.917969 164.125 71.640625 C 163.636719 72 163.3125 72.488281 162.992188 72.984375 C 162.101562 74.375 161.210938 75.761719 160.320312 77.15625 C 157.578125 81.4375 154.558594 85.503906 151.140625 89.273438 C 147.09375 93.730469 142.964844 98.105469 138.652344 102.3125 C 135.683594 105.199219 132.515625 107.835938 129.019531 110.070312 C 124.503906 112.960938 120.179688 116.152344 115.273438 118.425781 C 113.1875 119.390625 111.46875 120.855469 109.886719 122.601562 C 105.78125 127.136719 102.296875 132.050781 99.328125 137.394531 C 96.898438 141.773438 94.070312 145.933594 91.433594 150.195312 C 89.910156 152.652344 88.542969 155.199219 87.425781 157.871094 C 86.585938 159.898438 85.351562 161.707031 84.320312 163.625 C 81.554688 168.765625 78.777344 173.902344 76.640625 179.351562 C 76.226562 180.40625 75.648438 181.441406 75.699219 182.679688 C 76.183594 182.542969 76.277344 182.167969 76.457031 181.878906 C 79.125 177.386719 82.402344 173.394531 86.113281 169.722656 C 91.652344 164.238281 96.828125 158.425781 101.484375 152.15625 C 105.417969 146.851562 109.375 141.558594 113.320312 136.261719 C 114.769531 134.3125 116.382812 132.519531 118.171875 130.878906 C 120.042969 129.164062 121.910156 127.445312 123.785156 125.730469 C 124.265625 125.292969 124.78125 124.765625 125.476562 125.261719 C 126.09375 125.695312 125.804688 126.316406 125.613281 126.875 C 124.464844 130.289062 123.019531 133.585938 121.5625 136.871094 C 118.472656 143.832031 114.683594 150.433594 110.980469 157.078125 C 108.5625 161.429688 105.417969 165.269531 101.582031 168.503906 C 100.496094 169.417969 99.351562 170.238281 98.132812 170.96875 C 96.613281 171.875 95.101562 172.800781 93.65625 173.820312 C 91.269531 175.507812 88.683594 176.707031 85.898438 177.589844 C 83.527344 178.34375 81.347656 179.488281 79.464844 181.1875 C 76.851562 183.546875 75.359375 186.574219 74.746094 189.90625 C 74.019531 193.828125 73.199219 197.753906 73.046875 201.789062 C 72.898438 205.691406 73.25 209.566406 73.34375 213.453125 C 73.382812 215.222656 73.503906 216.988281 73.566406 218.753906 C 73.59375 219.410156 73.710938 220.035156 73.917969 220.65625 C 74.433594 220.507812 74.316406 220.042969 74.402344 219.726562 C 74.984375 217.601562 75.949219 215.648438 77.027344 213.75 C 81.042969 206.726562 85.652344 200.085938 90.207031 193.40625 C 90.46875 193.023438 90.808594 192.683594 91.148438 192.363281 C 91.417969 192.105469 91.769531 192.011719 92.125 192.199219 C 92.46875 192.382812 92.605469 192.695312 92.613281 193.078125 C 92.621094 193.632812 92.402344 194.128906 92.164062 194.59375 C 90.65625 197.558594 89.796875 200.742188 88.902344 203.921875 C 87.566406 208.660156 85.433594 213.078125 83.050781 217.355469 C 81.046875 220.957031 79.265625 224.699219 76.78125 228.023438 C 76.335938 228.617188 76.515625 228.941406 77.085938 229.273438 C 83.867188 233.195312 88.78125 239.109375 93.722656 244.976562 C 95.847656 247.503906 97.902344 250.097656 99.988281 252.660156 C 103.492188 256.964844 107.203125 261.074219 111.15625 264.980469 C 113.921875 267.71875 116.605469 270.550781 119.308594 273.347656 C 119.824219 273.882812 120.660156 274.480469 120.070312 275.285156 C 119.417969 276.175781 118.554688 275.535156 117.855469 275.148438 C 112.90625 272.378906 107.714844 270.136719 102.453125 268.046875 C 99.882812 267.027344 97.765625 265.3125 95.878906 263.34375 C 92.605469 259.925781 89.589844 256.292969 86.992188 252.335938 C 82.902344 246.121094 79.109375 239.734375 75.636719 233.160156 C 75.304688 232.535156 74.898438 231.953125 74.574219 231.324219 C 73.28125 228.832031 71.117188 227.472656 68.476562 226.914062 C 64.277344 226.027344 60.449219 224.304688 56.664062 222.316406 C 52.648438 220.207031 48.464844 218.421875 44.324219 216.558594 C 40.808594 214.976562 37.492188 213.085938 34.523438 210.613281 C 32.21875 208.691406 29.542969 207.492188 26.730469 206.542969 C 25.78125 206.226562 24.84375 205.867188 23.914062 205.492188 C 23.441406 205.304688 23.140625 204.941406 23.238281 204.386719 C 23.347656 203.769531 23.84375 203.722656 24.328125 203.75 C 26.035156 203.855469 27.738281 203.996094 29.449219 204.101562 C 33.21875 204.339844 36.964844 204.792969 40.707031 205.300781 C 43.367188 205.664062 45.851562 206.585938 48.183594 207.902344 C 50.082031 208.976562 51.972656 210.074219 53.816406 211.238281 C 58.058594 213.921875 61.953125 217.09375 66.078125 219.945312 C 67.484375 220.917969 68.671875 222.167969 69.882812 223.382812 C 70.289062 223.789062 70.628906 224.285156 71.296875 224.574219 C 71.347656 223.265625 70.933594 222.175781 70.554688 221.085938 C 69.726562 218.683594 68.566406 216.425781 67.382812 214.1875 C 64.121094 208.035156 61.160156 201.761719 58.578125 195.277344 C 56.523438 190.117188 55.234375 184.722656 53.199219 179.570312 C 52.660156 178.210938 52.421875 176.730469 52.117188 175.292969 C 51.957031 174.546875 51.910156 173.773438 51.890625 173.007812 C 51.863281 172.179688 51.816406 171.1875 52.828125 170.949219 C 53.75 170.738281 54.132812 171.601562 54.449219 172.296875 C 55.527344 174.667969 57.058594 176.777344 58.296875 179.058594 C 61.867188 185.652344 64.914062 192.492188 67.925781 199.347656 C 69.136719 202.109375 70.039062 204.972656 70.695312 207.917969 C 70.8125 208.46875 70.984375 209.015625 71.296875 209.503906 C 71.296875 207.398438 71.414062 205.292969 71.269531 203.199219 C 71.007812 199.238281 71.273438 195.296875 71.410156 191.347656 C 71.8125 179.207031 70.960938 167.195312 67.957031 155.375 C 67.664062 154.222656 67.214844 153.53125 66.015625 153.207031 C 62.519531 152.257812 60.175781 149.796875 58.132812 146.96875 C 57.480469 146.066406 56.851562 145.152344 55.5625 145.03125 C 55.125 144.988281 54.6875 144.675781 54.308594 144.402344 C 51.324219 142.253906 49.074219 139.496094 47.609375 136.113281 C 47.179688 135.113281 47.03125 134.070312 47.261719 132.996094 C 47.554688 131.667969 48.394531 131.152344 49.742188 131.433594 C 50.464844 131.585938 51.046875 131.96875 51.585938 132.433594 C 52.539062 133.242188 53.371094 134.167969 54.027344 135.226562 C 55.820312 138.132812 57.703125 141.003906 58.4375 144.421875 C 58.449219 144.476562 58.46875 144.535156 58.488281 144.589844 C 59.441406 147.308594 63.605469 150.878906 66.539062 151.484375 C 66.898438 151.015625 66.527344 150.578125 66.417969 150.164062 C 65.234375 145.785156 64.027344 141.40625 62.808594 137.035156 C 62.300781 135.210938 62.0625 133.339844 61.789062 131.472656 C 61.660156 130.601562 61.527344 129.796875 60.558594 129.320312 C 59.757812 128.925781 59.359375 128.042969 58.945312 127.257812 C 56.886719 123.347656 56.628906 119.152344 57.046875 114.863281 C 57.050781 114.804688 57.078125 114.746094 57.089844 114.6875 C 57.480469 112.960938 58.160156 112.113281 59.28125 112.042969 C 60.789062 111.945312 61.488281 113.007812 62.042969 114.140625 C 63.015625 116.128906 63.417969 118.289062 63.539062 120.472656 C 63.683594 123.125 63.636719 125.78125 63.050781 128.394531 C 62.902344 129.042969 63.011719 129.671875 63.105469 130.316406 C 63.734375 134.707031 64.988281 138.953125 66.125 143.21875 C 67.8125 149.539062 69.972656 155.726562 71.109375 162.253906 C 71.601562 162.101562 71.597656 161.722656 71.625 161.4375 C 72.101562 157.035156 72.480469 152.636719 71.855469 148.207031 C 71.734375 147.347656 71.472656 146.789062 70.78125 146.167969 C 68.109375 143.796875 67.015625 140.6875 67.050781 137.15625 C 67.054688 136.921875 67.101562 136.683594 67.15625 136.457031 C 67.472656 135.160156 68.351562 134.246094 69.335938 134.191406 C 70.316406 134.128906 71.070312 134.703125 71.59375 136.097656 C 72.40625 138.253906 73.054688 140.492188 73.097656 142.800781 C 73.140625 145.519531 73.472656 148.207031 73.664062 150.914062 C 73.8125 152.980469 73.84375 155.027344 73.632812 157.089844 C 73.308594 160.199219 73.0625 163.308594 72.191406 166.332031 C 72.015625 166.945312 71.925781 167.570312 72.007812 168.246094 C 72.644531 173.277344 72.90625 178.347656 73.144531 183.410156 C 73.152344 183.625 73.113281 183.867188 73.332031 184.027344 C 73.660156 183.878906 73.609375 183.535156 73.679688 183.273438 C 74.609375 179.660156 76.097656 176.253906 77.730469 172.917969 C 79.023438 170.265625 80.296875 167.601562 81.761719 165.042969 C 84.332031 160.554688 85.605469 155.675781 86.285156 150.625 C 87.316406 142.941406 87.25 135.214844 86.746094 127.492188 C 86.078125 117.238281 85.96875 106.984375 86.589844 96.726562 C 86.65625 95.65625 86.871094 94.621094 87.332031 93.648438 C 87.621094 93.042969 87.976562 92.484375 88.765625 92.546875 C 89.558594 92.613281 89.847656 93.234375 90.019531 93.863281 C 90.234375 94.65625 90.421875 95.46875 90.484375 96.289062 C 90.789062 100.265625 91.6875 104.078125 93.347656 107.722656 C 95.628906 112.726562 96.039062 118.0625 95.976562 123.46875 C 95.929688 127.433594 95.511719 131.355469 94.558594 135.210938 C 94.488281 135.488281 94.394531 135.769531 94.570312 136.058594 C 94.976562 135.839844 95.066406 135.417969 95.226562 135.050781 C 96.714844 131.707031 98.421875 128.472656 100.21875 125.285156 C 102.996094 120.351562 105.394531 115.222656 107.96875 110.175781 C 108.878906 108.394531 109.757812 106.582031 110.816406 104.882812 C 111.796875 103.296875 112.480469 101.652344 112.746094 99.8125 C 113.339844 95.699219 114.589844 91.773438 116.304688 88 C 116.722656 87.085938 116.734375 86.289062 116.296875 85.332031 C 114.734375 81.9375 115.238281 78.542969 116.558594 75.207031 C 116.839844 74.488281 117.320312 73.875 117.921875 73.375 C 119.339844 72.207031 120.640625 72.597656 121.140625 74.355469 C 121.472656 75.511719 121.398438 76.710938 121.253906 77.871094 C 120.816406 81.347656 119.769531 84.609375 118.199219 87.777344 C 116.554688 91.085938 115.105469 94.527344 114.722656 98.390625 C 115.453125 98.125 115.671875 97.492188 115.976562 96.984375 C 118.605469 92.644531 121.3125 88.355469 124.265625 84.222656 C 126.152344 81.585938 128.160156 79.039062 129.761719 76.203125 C 130.296875 75.253906 130.710938 74.339844 130.597656 73.210938 C 130.472656 72.019531 130.773438 70.863281 131.160156 69.742188 C 132.230469 66.648438 133.644531 63.75 135.820312 61.269531 C 136.367188 60.648438 136.933594 60.042969 137.691406 59.675781 C 138.859375 59.109375 139.773438 59.457031 140.257812 60.660156 C 140.652344 61.632812 140.546875 62.636719 140.3125 63.621094 C 139.714844 66.132812 138.648438 68.46875 136.863281 70.316406 C 133.441406 73.851562 130.65625 77.839844 127.894531 81.882812 C 124.730469 86.507812 121.390625 91.011719 118.566406 95.859375 C 118.027344 96.777344 117.484375 97.695312 116.851562 98.546875 C 112.730469 104.128906 109.597656 110.269531 106.585938 116.484375 C 104.753906 120.253906 102.816406 123.960938 100.746094 127.605469 C 97.917969 132.589844 95.753906 137.890625 93.410156 143.105469 C 93.320312 143.300781 93.269531 143.511719 93.113281 143.980469 C 93.839844 143.480469 94.09375 142.953125 94.386719 142.476562 C 95.78125 140.21875 97.230469 137.992188 98.511719 135.667969 C 100.945312 131.261719 103.632812 127.050781 107.144531 123.402344 C 107.636719 122.894531 108.117188 122.371094 108.539062 121.804688 C 113.347656 115.421875 119.148438 109.929688 124.453125 103.992188 C 125.355469 102.980469 126.296875 102 127.253906 101.042969 C 132.175781 96.125 137.109375 91.214844 142.039062 86.300781 C 143.921875 84.425781 145.929688 82.699219 148.089844 81.144531 C 149.382812 80.214844 150.632812 79.207031 151.785156 78.117188 C 155.429688 74.660156 159.359375 71.542969 163.214844 68.335938 C 163.484375 68.105469 163.769531 67.894531 164.050781 67.683594 C 164.519531 67.335938 165.007812 66.816406 165.621094 67.175781 C 166.289062 67.5625 165.722656 68.234375 165.8125 68.714844 Z M 132.359375 72.847656 C 134.199219 71.019531 135.796875 69.402344 137.003906 67.445312 C 137.871094 66.039062 138.519531 64.539062 138.828125 62.902344 C 138.949219 62.273438 139.136719 61.640625 138.519531 61.144531 C 135.699219 62.882812 132.296875 69.175781 132.359375 72.847656 Z M 117.925781 84.683594 C 119.152344 81.171875 120.105469 78 119.539062 74.4375 C 117.066406 76.007812 116.199219 81.265625 117.925781 84.683594 Z M 71.589844 144.335938 C 71.464844 141.277344 71.015625 138.460938 69.539062 135.628906 C 67.914062 137.890625 69.109375 142.679688 71.589844 144.335938 Z M 61.90625 120.09375 C 61.746094 118.257812 61.386719 116.480469 60.589844 114.8125 C 60.347656 114.304688 60.101562 113.605469 59.378906 113.761719 C 58.789062 113.886719 58.742188 114.539062 58.640625 115.058594 C 58.621094 115.175781 58.613281 115.289062 58.597656 115.40625 C 58.144531 118.867188 58.546875 122.226562 59.835938 125.460938 C 60.175781 126.316406 60.570312 127.175781 61.324219 127.800781 C 61.890625 127.285156 61.792969 126.652344 61.832031 126.09375 C 61.960938 124.097656 62.082031 122.097656 61.90625 120.09375 Z M 56.574219 143.386719 C 55.136719 140.128906 53.652344 136.96875 51.253906 134.332031 C 50.683594 133.699219 49.9375 132.636719 49.121094 133.132812 C 48.195312 133.691406 48.78125 134.859375 49.15625 135.6875 C 50.464844 138.589844 52.394531 141.019531 54.960938 142.910156 C 55.359375 143.207031 55.746094 143.648438 56.574219 143.386719 Z M 68.417969 211.152344 C 67.679688 208.855469 66.867188 206.578125 66.171875 204.265625 C 65.492188 201.996094 64.640625 199.789062 63.503906 197.726562 C 60.015625 191.410156 57.328125 184.753906 54.914062 177.972656 C 54.726562 177.4375 54.617188 176.867188 54.070312 176.492188 C 55.785156 182.84375 58.199219 188.96875 60.355469 195.175781 C 62.675781 201.828125 67.335938 211.449219 68.886719 213.039062 C 68.964844 212.324219 68.613281 211.753906 68.417969 211.152344 Z M 70.3125 213.457031 C 69.398438 209.378906 68.660156 205.253906 67.03125 201.378906 C 63.972656 194.109375 60.710938 186.933594 56.972656 179.980469 C 56.808594 179.671875 56.683594 179.332031 55.992188 178.960938 C 57.84375 183.703125 59.25 188.1875 61.5 192.339844 C 64.144531 197.207031 66.480469 202.203125 67.917969 207.59375 C 68.511719 209.828125 69.394531 211.980469 70.144531 214.175781 C 70.316406 213.910156 70.359375 213.671875 70.3125 213.457031 Z M 37.699219 208.753906 C 39.15625 208.886719 40.644531 209.089844 42.015625 209.636719 C 46.773438 211.53125 51.613281 213.246094 55.902344 216.15625 C 58.726562 218.070312 61.570312 219.976562 64.566406 221.628906 C 65.074219 221.90625 65.527344 222.386719 66.320312 222.308594 C 65.550781 221.433594 64.710938 220.882812 63.902344 220.300781 C 61.5625 218.605469 59.21875 216.917969 56.875 215.230469 C 53.859375 213.058594 50.707031 211.097656 47.453125 209.304688 C 44.613281 207.742188 41.582031 206.890625 38.378906 206.578125 C 36.675781 206.410156 34.980469 206.175781 33.285156 205.996094 C 32.441406 205.910156 31.597656 205.867188 30.753906 205.808594 C 30.734375 205.9375 30.707031 206.066406 30.683594 206.191406 C 33.027344 207.035156 35.097656 208.515625 37.699219 208.753906 Z M 68.6875 225.136719 C 67.855469 224.144531 66.730469 223.625 65.675781 223.007812 C 63.75 221.875 61.722656 220.878906 59.914062 219.582031 C 54.664062 215.808594 48.972656 212.921875 42.9375 210.648438 C 40.585938 209.765625 38.148438 209.480469 35.636719 209.160156 C 35.78125 209.691406 36.132812 209.832031 36.394531 210.046875 C 38.789062 211.992188 41.480469 213.433594 44.246094 214.773438 C 49.910156 217.511719 55.769531 219.851562 61.292969 222.898438 C 63.582031 224.164062 66.113281 224.695312 68.6875 225.136719 Z M 78.257812 232.289062 C 80.6875 235.527344 82.917969 238.855469 85.683594 241.765625 C 88.761719 245.015625 91.910156 248.203125 94.523438 251.863281 C 96.34375 254.410156 98.40625 256.742188 100.667969 258.917969 C 102.839844 261.003906 105.152344 262.917969 107.402344 264.914062 C 108.597656 265.976562 109.9375 266.878906 111.214844 267.855469 C 111.125 267.046875 110.597656 266.671875 110.160156 266.238281 C 107.351562 263.457031 104.59375 260.628906 102.0625 257.589844 C 98.636719 253.472656 95.253906 249.308594 91.839844 245.171875 C 89.097656 241.855469 86.179688 238.691406 83.09375 235.683594 C 81.675781 234.304688 80.152344 233.042969 78.257812 232.289062 Z M 78.015625 234.230469 C 81.335938 240.40625 84.953125 246.410156 88.851562 252.238281 C 91.179688 255.722656 93.886719 258.917969 96.757812 261.964844 C 98.511719 263.816406 100.4375 265.484375 102.824219 266.445312 C 105.773438 267.636719 108.6875 268.902344 111.589844 270.199219 C 112.019531 270.394531 112.457031 270.84375 113.03125 270.507812 C 112.855469 270.089844 112.460938 269.902344 112.160156 269.628906 C 109.589844 267.292969 106.742188 265.289062 104.136719 262.984375 C 100.285156 259.574219 96.601562 256.035156 93.640625 251.800781 C 92.417969 250.066406 91.089844 248.402344 89.601562 246.890625 C 85.753906 242.980469 82.160156 238.855469 78.875 234.460938 C 78.617188 234.117188 78.410156 233.683594 77.933594 233.558594 C 77.722656 233.839844 77.910156 234.035156 78.015625 234.230469 Z M 86.925781 204.210938 C 83.136719 209.785156 79.4375 215.402344 78.242188 222.226562 C 81.882812 216.578125 84.976562 210.671875 86.925781 204.210938 Z M 75.496094 226.972656 C 76.453125 224.894531 77.1875 222.742188 77.789062 220.535156 C 78.582031 217.625 79.691406 214.847656 81.109375 212.175781 C 82.941406 208.734375 85.128906 205.511719 87.082031 202.144531 C 87.574219 201.292969 88.15625 200.472656 88.496094 199.136719 C 88.144531 199.410156 88.027344 199.460938 87.964844 199.554688 C 84.3125 205.058594 80.496094 210.457031 77.449219 216.339844 C 76.464844 218.238281 75.753906 220.226562 75.546875 222.375 C 75.429688 223.609375 75.273438 224.832031 75.144531 226.066406 C 75.113281 226.378906 74.898438 226.757812 75.496094 226.972656 Z M 121.519531 132.105469 C 121.089844 132.667969 120.761719 133.078125 120.457031 133.503906 C 117.890625 137.105469 115.550781 140.851562 113.257812 144.632812 C 110.941406 148.449219 108.925781 152.457031 105.925781 155.84375 C 102.410156 159.8125 99.078125 163.945312 95.132812 167.519531 C 92.816406 169.628906 90.347656 171.527344 87.789062 173.328125 C 86.660156 174.121094 85.441406 174.839844 84.542969 176.074219 C 84.84375 176.097656 85.027344 176.160156 85.179688 176.113281 C 87.394531 175.460938 89.53125 174.65625 91.464844 173.355469 C 93.175781 172.203125 94.871094 171.019531 96.660156 170 C 98.835938 168.761719 100.742188 167.214844 102.523438 165.480469 C 105.980469 162.117188 108.664062 158.183594 110.957031 153.972656 C 112.847656 150.507812 114.6875 147.019531 116.550781 143.535156 C 118.304688 140.261719 119.875 136.902344 121.289062 133.46875 C 121.433594 133.109375 121.757812 132.773438 121.519531 132.105469 Z M 81.796875 176.96875 C 82.378906 176.957031 82.570312 176.71875 82.773438 176.523438 C 84.84375 174.589844 87.140625 172.9375 89.460938 171.316406 C 90.859375 170.335938 92.160156 169.222656 93.472656 168.132812 C 97.527344 164.753906 100.839844 160.671875 104.296875 156.738281 C 106 154.796875 107.738281 152.839844 109.027344 150.578125 C 112.824219 143.929688 116.738281 137.351562 121.316406 131.191406 C 121.609375 130.800781 122.023438 130.4375 122.023438 129.621094 C 119.15625 131.96875 116.683594 134.371094 114.632812 137.179688 C 110.941406 142.21875 107.171875 147.199219 103.4375 152.207031 C 98.285156 159.125 92.605469 165.5625 86.472656 171.613281 C 84.835938 173.226562 83.277344 174.90625 81.796875 176.96875 Z M 88.648438 148.101562 C 89.855469 143.472656 90.746094 138.796875 90.9375 134.007812 C 91.019531 131.890625 90.980469 129.765625 91.101562 127.648438 C 91.273438 124.632812 91.136719 121.636719 90.6875 118.660156 C 89.734375 112.3125 88.867188 105.957031 88.671875 99.527344 C 88.644531 98.605469 88.507812 97.683594 88.425781 96.761719 C 87.890625 98.492188 88.011719 100.242188 87.933594 101.972656 C 87.597656 109.753906 87.707031 117.523438 88.207031 125.296875 C 88.546875 130.589844 88.90625 135.878906 88.566406 141.191406 C 88.402344 143.75 88.429688 146.316406 88.09375 149.269531 C 88.40625 148.628906 88.582031 148.378906 88.648438 148.101562 Z M 91.765625 140.457031 C 92.953125 135.167969 94.316406 129.910156 94.414062 124.441406 C 94.496094 120.003906 94.382812 115.582031 92.972656 111.328125 C 91.992188 108.378906 90.792969 105.5 89.699219 102.585938 L 89.4375 102.664062 C 89.722656 105.648438 89.882812 108.652344 90.328125 111.613281 C 91.203125 117.382812 92.039062 123.128906 91.714844 129.007812 C 91.5 133.003906 91.59375 137.015625 90.847656 140.976562 C 90.523438 142.703125 90.226562 144.4375 89.921875 146.164062 C 90.902344 144.359375 91.332031 142.40625 91.765625 140.457031 Z M 159.234375 75.539062 C 157.1875 76.980469 155.457031 78.730469 153.871094 80.632812 C 150.628906 84.527344 147.378906 88.429688 143.636719 91.863281 C 139.683594 95.484375 135.535156 98.886719 131.273438 102.148438 C 126.167969 106.058594 121.222656 110.148438 116.691406 114.726562 C 116.226562 115.199219 115.785156 115.703125 115.199219 116.34375 C 116.089844 116.34375 116.550781 115.949219 117.0625 115.695312 C 121.203125 113.65625 124.835938 110.804688 128.710938 108.34375 C 130.550781 107.175781 132.339844 105.917969 133.960938 104.449219 C 141 98.066406 147.550781 91.207031 153.597656 83.875 C 155.734375 81.292969 157.617188 78.519531 159.234375 75.539062 Z M 161.441406 72.15625 C 160.917969 72.050781 160.710938 72.492188 160.417969 72.722656 C 155.527344 76.617188 151.160156 81.136719 146.046875 84.769531 C 145.136719 85.410156 144.273438 86.191406 143.617188 87.082031 C 142.976562 87.945312 142.234375 88.675781 141.476562 89.414062 C 136.871094 93.902344 132.265625 98.386719 127.671875 102.890625 C 126.757812 103.789062 125.917969 104.765625 125.046875 105.707031 C 125.144531 105.792969 125.234375 105.878906 125.328125 105.960938 C 127.089844 104.589844 128.851562 103.214844 130.613281 101.835938 C 138.300781 95.84375 145.816406 89.660156 151.902344 81.953125 C 154.433594 78.742188 157.277344 75.851562 160.535156 73.367188 C 160.941406 73.0625 161.390625 72.761719 161.441406 72.15625 Z M 161.441406 72.15625 " fill-opacity="1" fill-rule="nonzero"/></g><path fill="#c7a974" d="M 165.210938 197.015625 C 165.550781 198.207031 166.800781 198.875 167.996094 198.535156 C 169.175781 198.179688 169.855469 196.945312 169.5 195.765625 C 169.160156 194.585938 167.910156 193.90625 166.730469 194.257812 C 165.539062 194.601562 164.855469 195.835938 165.210938 197.015625 Z M 165.210938 197.015625 " fill-opacity="1" fill-rule="nonzero"/><path fill="#c7a974" d="M 166.050781 184.046875 C 165.707031 182.855469 164.457031 182.1875 163.28125 182.527344 C 162.085938 182.882812 161.40625 184.117188 161.757812 185.296875 C 162.101562 186.476562 163.351562 187.15625 164.53125 186.800781 C 165.722656 186.460938 166.402344 185.226562 166.050781 184.046875 Z M 166.050781 184.046875 " fill-opacity="1" fill-rule="nonzero"/><path fill="#c7a974" d="M 162.597656 172.316406 C 162.257812 171.136719 161.007812 170.453125 159.8125 170.808594 C 158.636719 171.148438 157.953125 172.386719 158.308594 173.578125 C 158.648438 174.757812 159.898438 175.425781 161.078125 175.085938 C 162.269531 174.742188 162.953125 173.492188 162.597656 172.316406 Z M 162.597656 172.316406 " fill-opacity="1" fill-rule="nonzero"/><g clip-path="url(#484b74eb12)"><path fill="#c7a974" d="M 285.484375 149.699219 L 249.714844 129.675781 C 249.710938 129.675781 249.710938 129.671875 249.707031 129.671875 C 249.703125 129.667969 249.703125 129.667969 249.699219 129.667969 L 220.773438 113.480469 C 220.441406 113.292969 220.046875 113.246094 219.679688 113.355469 C 219.3125 113.464844 219.003906 113.714844 218.824219 114.050781 L 200.800781 147.996094 C 198.757812 146.375 196.28125 145.378906 193.644531 145.160156 L 170.011719 143.292969 C 168.097656 140.019531 164.09375 138.359375 163.914062 138.289062 C 163.859375 138.265625 163.796875 138.269531 163.738281 138.253906 C 163.644531 138.230469 163.546875 138.203125 163.445312 138.199219 C 163.351562 138.195312 163.265625 138.210938 163.171875 138.222656 C 163.109375 138.234375 163.046875 138.21875 162.980469 138.238281 L 139.503906 145.101562 C 139.4375 145.121094 139.390625 145.164062 139.332031 145.191406 C 139.246094 145.230469 139.164062 145.265625 139.085938 145.320312 C 139.003906 145.378906 138.9375 145.449219 138.871094 145.523438 C 138.828125 145.566406 138.773438 145.597656 138.738281 145.644531 C 138.625 145.804688 136.160156 149.359375 136.3125 153.136719 L 117.453125 167.449219 C 114.566406 169.636719 112.6875 172.957031 112.308594 176.554688 L 108.054688 217.167969 C 108.050781 217.1875 108.050781 217.203125 108.046875 217.222656 L 107.253906 224.808594 C 107.199219 225.34375 107.449219 225.863281 107.902344 226.152344 C 112.679688 229.195312 118.171875 230.714844 124.316406 230.714844 C 127.941406 230.714844 131.8125 230.152344 135.882812 229.089844 L 151.496094 287.390625 C 151.660156 288.003906 152.214844 288.433594 152.847656 288.445312 C 152.859375 288.445312 152.917969 288.445312 153.015625 288.445312 C 153.574219 288.445312 155.488281 288.421875 158.613281 288.152344 C 158.996094 288.121094 159.351562 287.933594 159.59375 287.636719 C 159.832031 287.339844 159.945312 286.957031 159.902344 286.574219 L 158.84375 277.5 L 164.195312 286.6875 C 164.488281 287.183594 165.042969 287.457031 165.621094 287.378906 C 173.59375 286.273438 182.125 284.421875 191.011719 281.894531 L 209.859375 292.09375 C 210.070312 292.207031 210.300781 292.265625 210.535156 292.265625 C 210.675781 292.265625 210.8125 292.246094 210.945312 292.203125 C 211.308594 292.09375 211.613281 291.84375 211.789062 291.511719 L 223.601562 269.273438 C 227 267.492188 229.40625 266.097656 229.429688 266.082031 C 230.003906 265.746094 230.273438 265.054688 230.066406 264.417969 L 228.597656 259.855469 L 235.277344 247.273438 L 245.988281 254.863281 C 246.230469 255.035156 246.515625 255.125 246.808594 255.125 C 246.898438 255.125 246.984375 255.113281 247.074219 255.097656 C 247.453125 255.027344 247.785156 254.804688 247.996094 254.480469 L 262.871094 231.828125 C 263.285156 231.195312 263.132812 230.347656 262.523438 229.902344 L 249.546875 220.382812 L 286.042969 151.605469 C 286.40625 150.921875 286.160156 150.078125 285.484375 149.699219 Z M 220.652344 116.667969 L 229.082031 121.386719 L 224.035156 130.070312 C 223.84375 130.394531 223.792969 130.785156 223.890625 131.152344 C 223.988281 131.515625 224.230469 131.828125 224.558594 132.015625 L 230.46875 135.398438 C 230.6875 135.523438 230.929688 135.585938 231.171875 135.585938 C 231.660156 135.585938 232.136719 135.328125 232.398438 134.875 L 237.496094 126.097656 L 247.132812 131.488281 L 231.023438 161.835938 C 230.28125 163.238281 230.042969 164.816406 230.277344 166.371094 L 222.464844 174.40625 L 202.925781 150.089844 C 202.921875 150.082031 202.917969 150.078125 202.914062 150.074219 L 208.027344 140.445312 L 220.859375 133.4375 C 221.546875 133.058594 221.800781 132.199219 221.421875 131.507812 C 221.046875 130.820312 220.183594 130.566406 219.496094 130.945312 L 210.449219 135.886719 Z M 211.585938 206.96875 C 213.800781 206.246094 215.875 205.425781 217.792969 204.511719 L 213.832031 213.960938 Z M 227.6875 180.902344 L 224.261719 176.636719 L 231.375 169.320312 C 231.605469 169.671875 231.863281 169.992188 232.140625 170.285156 Z M 167.820312 145.230469 C 169.492188 148.945312 170.558594 164.574219 168.355469 166.097656 C 168.089844 166.28125 167.097656 166.246094 165.070312 164.953125 C 162.296875 163.171875 159.242188 160.09375 158 158.792969 L 164.171875 141.601562 C 165.375 142.3125 167.082031 143.554688 167.820312 145.230469 Z M 155.695312 156.804688 L 142.984375 147.042969 L 161.097656 141.75 Z M 139.203125 153.574219 C 138.921875 151.765625 139.679688 149.8125 140.3125 148.570312 L 154.824219 159.71875 C 154.441406 161.703125 153.546875 165.820312 152.230469 168.707031 C 151.234375 170.863281 150.425781 171.4375 150.101562 171.4375 C 150.097656 171.4375 150.09375 171.4375 150.089844 171.4375 C 147.410156 171.34375 139.816406 157.609375 139.203125 153.574219 Z M 157.234375 162.070312 C 158.734375 163.558594 160.921875 165.574219 163.085938 167.042969 L 172.804688 200.011719 L 164.738281 202.371094 L 155.023438 169.382812 C 156.019531 167.042969 156.757812 164.242188 157.234375 162.070312 Z M 209.953125 288.914062 L 194.875 280.757812 C 203.835938 278.007812 210.347656 275.300781 215.554688 272.980469 C 216.0625 272.757812 216.394531 272.253906 216.398438 271.699219 L 216.527344 259.085938 L 220.957031 268.191406 Z M 223.1875 266.277344 L 216.445312 252.425781 C 216.152344 251.835938 215.5 251.511719 214.855469 251.664062 C 214.210938 251.808594 213.753906 252.375 213.746094 253.035156 L 213.570312 270.757812 C 208.109375 273.164062 201.238281 275.964844 191.621094 278.777344 L 191.273438 278.875 C 191.101562 278.921875 190.929688 278.96875 190.796875 279.011719 C 190.792969 279.015625 190.792969 279.015625 190.789062 279.015625 C 190.785156 279.015625 190.785156 279.015625 190.78125 279.019531 C 182.195312 281.488281 173.921875 283.308594 166.171875 284.433594 L 157.875 270.1875 C 157.535156 269.609375 156.835938 269.347656 156.199219 269.558594 C 155.558594 269.769531 155.160156 270.402344 155.234375 271.070312 L 156.910156 285.441406 C 155.628906 285.53125 154.632812 285.570312 153.953125 285.589844 L 127.210938 185.738281 C 127.007812 184.980469 126.230469 184.53125 125.46875 184.734375 C 124.710938 184.9375 124.261719 185.714844 124.464844 186.472656 L 133.230469 219.199219 C 125.105469 220.707031 117.628906 219.800781 110.980469 216.480469 L 115.132812 176.855469 C 115.433594 174.03125 116.902344 171.429688 119.167969 169.710938 L 137.019531 156.164062 C 139.0625 161.8125 145.449219 174.117188 149.996094 174.273438 C 150.03125 174.277344 150.066406 174.277344 150.097656 174.277344 C 151.324219 174.277344 152.296875 173.582031 153.050781 172.734375 L 162.410156 204.53125 C 162.59375 205.152344 163.160156 205.550781 163.773438 205.550781 C 163.90625 205.550781 164.039062 205.53125 164.171875 205.492188 L 174.96875 202.339844 C 175.328125 202.234375 175.636719 201.988281 175.816406 201.65625 C 175.996094 201.328125 176.039062 200.9375 175.933594 200.574219 L 166.5625 168.804688 C 167.03125 168.933594 167.519531 169.019531 168.003906 169.019531 C 168.679688 169.019531 169.355469 168.859375 169.964844 168.4375 C 173.710938 165.84375 172.40625 152.066406 171.058594 146.222656 L 193.417969 147.992188 C 195.996094 148.203125 198.398438 149.359375 200.195312 151.269531 C 200.363281 151.441406 200.519531 151.621094 200.691406 151.839844 L 225.683594 182.949219 C 221.898438 189.308594 216.105469 194.097656 208.445312 197.214844 L 198.066406 164.949219 C 197.824219 164.199219 197.03125 163.792969 196.277344 164.03125 C 195.53125 164.269531 195.121094 165.070312 195.359375 165.816406 L 206.230469 199.597656 C 206.230469 199.601562 206.230469 199.605469 206.230469 199.605469 C 206.234375 199.609375 206.234375 199.613281 206.234375 199.617188 L 208.429688 206.433594 C 208.429688 206.445312 208.429688 206.457031 208.429688 206.46875 C 208.4375 206.488281 208.449219 206.5 208.457031 206.519531 L 225.707031 260.125 C 225.707031 260.125 225.707031 260.125 225.707031 260.128906 L 225.710938 260.144531 L 227.003906 264.1875 C 226.164062 264.664062 224.828125 265.40625 223.1875 266.277344 Z M 259.753906 231.394531 L 246.429688 251.691406 L 236.617188 244.742188 L 248.199219 222.917969 Z M 273.195312 169.753906 L 271.765625 160.257812 C 271.644531 159.480469 270.917969 158.945312 270.144531 159.0625 C 269.371094 159.183594 268.835938 159.90625 268.953125 160.679688 L 270.957031 173.972656 L 227.382812 256.082031 L 215.167969 218.117188 L 221.773438 202.355469 C 227.136719 199.015625 231.097656 194.675781 233.527344 189.433594 C 233.753906 188.941406 233.683594 188.367188 233.347656 187.945312 L 229.710938 183.421875 L 234.492188 172.019531 L 235.285156 172.472656 C 235.507812 172.597656 235.746094 172.65625 235.984375 172.65625 C 236.480469 172.65625 236.960938 172.398438 237.222656 171.9375 C 237.609375 171.253906 237.371094 170.386719 236.6875 170 L 235.324219 169.226562 C 235.144531 169.121094 234.941406 169 234.703125 168.785156 C 233.964844 168.222656 233.421875 167.402344 233.167969 166.472656 C 232.863281 165.359375 232.992188 164.183594 233.535156 163.164062 L 249.609375 132.875 L 266.050781 142.078125 L 261.148438 150.523438 C 260.957031 150.847656 260.90625 151.238281 261.003906 151.605469 C 261.101562 151.96875 261.339844 152.28125 261.671875 152.46875 L 267.578125 155.847656 C 267.800781 155.976562 268.042969 156.035156 268.28125 156.035156 C 268.773438 156.035156 269.25 155.78125 269.511719 155.328125 L 274.46875 146.789062 L 282.882812 151.5 Z M 273.195312 169.753906 " fill-opacity="1" fill-rule="nonzero"/></g><path fill="#c7a974" d="M 257.105469 141.976562 C 257.105469 142.265625 257.078125 142.554688 257.023438 142.835938 C 256.964844 143.121094 256.882812 143.398438 256.769531 143.667969 C 256.660156 143.933594 256.523438 144.1875 256.359375 144.429688 C 256.199219 144.671875 256.015625 144.894531 255.808594 145.097656 C 255.605469 145.304688 255.378906 145.488281 255.136719 145.648438 C 254.894531 145.808594 254.640625 145.945312 254.371094 146.058594 C 254.101562 146.167969 253.824219 146.25 253.539062 146.308594 C 253.253906 146.363281 252.964844 146.394531 252.675781 146.394531 C 252.382812 146.394531 252.097656 146.363281 251.8125 146.308594 C 251.527344 146.25 251.25 146.167969 250.980469 146.058594 C 250.710938 145.945312 250.457031 145.808594 250.214844 145.648438 C 249.972656 145.488281 249.746094 145.304688 249.542969 145.097656 C 249.335938 144.894531 249.152344 144.671875 248.992188 144.429688 C 248.828125 144.1875 248.691406 143.933594 248.582031 143.667969 C 248.46875 143.398438 248.386719 143.121094 248.328125 142.835938 C 248.273438 142.554688 248.246094 142.265625 248.246094 141.976562 C 248.246094 141.6875 248.273438 141.398438 248.328125 141.113281 C 248.386719 140.828125 248.46875 140.554688 248.582031 140.285156 C 248.691406 140.015625 248.828125 139.761719 248.992188 139.523438 C 249.152344 139.28125 249.335938 139.058594 249.542969 138.851562 C 249.746094 138.648438 249.972656 138.464844 250.214844 138.304688 C 250.457031 138.140625 250.710938 138.003906 250.980469 137.894531 C 251.25 137.785156 251.527344 137.699219 251.8125 137.644531 C 252.097656 137.585938 252.382812 137.558594 252.675781 137.558594 C 252.964844 137.558594 253.253906 137.585938 253.539062 137.644531 C 253.824219 137.699219 254.101562 137.785156 254.371094 137.894531 C 254.640625 138.003906 254.894531 138.140625 255.136719 138.304688 C 255.378906 138.464844 255.605469 138.648438 255.808594 138.851562 C 256.015625 139.058594 256.199219 139.28125 256.359375 139.523438 C 256.523438 139.761719 256.660156 140.015625 256.769531 140.285156 C 256.882812 140.554688 256.964844 140.828125 257.023438 141.113281 C 257.078125 141.398438 257.105469 141.6875 257.105469 141.976562 Z M 257.105469 141.976562 " fill-opacity="1" fill-rule="nonzero"/></svg>