<svg xmlns="http://www.w3.org/2000/svg" xmlns:xlink="http://www.w3.org/1999/xlink" width="500" zoomAndPan="magnify" viewBox="0 0 375 374.999991" height="500" preserveAspectRatio="xMidYMid meet" version="1.0"><defs><clipPath id="4f4a689184"><path d="M 23.144531 37.5 L 351.644531 37.5 L 351.644531 351 L 23.144531 351 Z M 23.144531 37.5 " clip-rule="nonzero"/></clipPath><clipPath id="776c8fc01c"><path d="M 121.789062 112.5 L 270.289062 112.5 L 270.289062 262.5 L 121.789062 262.5 Z M 121.789062 112.5 " clip-rule="nonzero"/></clipPath></defs><g clip-path="url(#4f4a689184)"><path fill="#c7a974" d="M 194.804688 350.945312 C 194.574219 350.945312 194.339844 350.859375 194.164062 350.679688 L 122.171875 278.71875 C 121.816406 278.363281 121.816406 277.789062 122.171875 277.433594 C 122.527344 277.082031 123.097656 277.082031 123.453125 277.433594 L 194.804688 348.757812 L 349.347656 194.277344 L 194.804688 39.800781 L 169.378906 65.214844 C 169.023438 65.570312 168.449219 65.570312 168.09375 65.214844 C 167.742188 64.859375 167.742188 64.285156 168.09375 63.933594 L 194.164062 37.875 C 194.519531 37.519531 195.09375 37.519531 195.445312 37.875 L 351.269531 193.636719 C 351.625 193.992188 351.625 194.566406 351.269531 194.917969 L 195.445312 350.679688 C 195.269531 350.859375 195.035156 350.945312 194.804688 350.945312 Z M 165.8125 68.714844 C 166.097656 70.261719 165.105469 70.917969 164.125 71.640625 C 163.636719 72 163.3125 72.488281 162.992188 72.984375 C 162.101562 74.375 161.210938 75.761719 160.320312 77.15625 C 157.578125 81.4375 154.558594 85.503906 151.140625 89.273438 C 147.09375 93.730469 142.964844 98.105469 138.652344 102.3125 C 135.683594 105.199219 132.515625 107.835938 129.019531 110.070312 C 124.503906 112.960938 120.179688 116.152344 115.273438 118.425781 C 113.1875 119.390625 111.46875 120.855469 109.886719 122.601562 C 105.78125 127.136719 102.296875 132.050781 99.328125 137.394531 C 96.898438 141.773438 94.070312 145.933594 91.433594 150.195312 C 89.910156 152.652344 88.542969 155.199219 87.425781 157.871094 C 86.585938 159.898438 85.351562 161.707031 84.320312 163.625 C 81.554688 168.765625 78.777344 173.902344 76.640625 179.351562 C 76.226562 180.40625 75.648438 181.441406 75.699219 182.679688 C 76.183594 182.542969 76.277344 182.167969 76.457031 181.878906 C 79.125 177.386719 82.402344 173.394531 86.113281 169.722656 C 91.652344 164.238281 96.828125 158.425781 101.484375 152.15625 C 105.417969 146.851562 109.375 141.558594 113.320312 136.261719 C 114.769531 134.3125 116.382812 132.519531 118.171875 130.878906 C 120.042969 129.164062 121.910156 127.445312 123.785156 125.730469 C 124.265625 125.292969 124.78125 124.765625 125.476562 125.261719 C 126.09375 125.695312 125.804688 126.316406 125.613281 126.875 C 124.464844 130.289062 123.019531 133.585938 121.5625 136.871094 C 118.472656 143.832031 114.683594 150.433594 110.980469 157.078125 C 108.5625 161.429688 105.417969 165.269531 101.582031 168.503906 C 100.496094 169.417969 99.351562 170.238281 98.132812 170.96875 C 96.613281 171.875 95.101562 172.800781 93.65625 173.820312 C 91.269531 175.507812 88.683594 176.707031 85.898438 177.589844 C 83.527344 178.34375 81.347656 179.488281 79.464844 181.1875 C 76.851562 183.546875 75.359375 186.574219 74.746094 189.90625 C 74.019531 193.828125 73.199219 197.753906 73.046875 201.789062 C 72.898438 205.691406 73.25 209.566406 73.34375 213.453125 C 73.382812 215.222656 73.503906 216.988281 73.566406 218.753906 C 73.59375 219.410156 73.710938 220.035156 73.917969 220.65625 C 74.433594 220.507812 74.316406 220.042969 74.402344 219.726562 C 74.984375 217.601562 75.949219 215.648438 77.027344 213.75 C 81.042969 206.726562 85.652344 200.085938 90.207031 193.40625 C 90.46875 193.023438 90.808594 192.683594 91.148438 192.363281 C 91.417969 192.105469 91.769531 192.011719 92.125 192.199219 C 92.46875 192.382812 92.605469 192.695312 92.613281 193.078125 C 92.621094 193.632812 92.402344 194.128906 92.164062 194.59375 C 90.65625 197.558594 89.796875 200.742188 88.902344 203.921875 C 87.566406 208.660156 85.433594 213.078125 83.050781 217.355469 C 81.046875 220.957031 79.265625 224.699219 76.78125 228.023438 C 76.335938 228.617188 76.515625 228.941406 77.085938 229.273438 C 83.867188 233.195312 88.78125 239.109375 93.722656 244.976562 C 95.847656 247.503906 97.902344 250.097656 99.988281 252.660156 C 103.492188 256.964844 107.203125 261.074219 111.15625 264.980469 C 113.921875 267.71875 116.605469 270.550781 119.308594 273.347656 C 119.824219 273.882812 120.660156 274.480469 120.070312 275.285156 C 119.417969 276.175781 118.554688 275.535156 117.855469 275.148438 C 112.90625 272.378906 107.714844 270.136719 102.453125 268.046875 C 99.882812 267.027344 97.765625 265.3125 95.878906 263.34375 C 92.605469 259.925781 89.589844 256.292969 86.992188 252.335938 C 82.902344 246.121094 79.109375 239.734375 75.636719 233.160156 C 75.304688 232.535156 74.898438 231.953125 74.574219 231.324219 C 73.28125 228.832031 71.117188 227.472656 68.476562 226.914062 C 64.277344 226.027344 60.449219 224.304688 56.664062 222.316406 C 52.648438 220.207031 48.464844 218.421875 44.324219 216.558594 C 40.808594 214.976562 37.492188 213.085938 34.523438 210.613281 C 32.21875 208.691406 29.542969 207.492188 26.730469 206.542969 C 25.78125 206.226562 24.84375 205.867188 23.914062 205.492188 C 23.441406 205.304688 23.140625 204.941406 23.238281 204.386719 C 23.347656 203.769531 23.84375 203.722656 24.328125 203.75 C 26.035156 203.855469 27.738281 203.996094 29.449219 204.101562 C 33.21875 204.339844 36.964844 204.792969 40.707031 205.300781 C 43.367188 205.664062 45.851562 206.585938 48.183594 207.902344 C 50.082031 208.976562 51.972656 210.074219 53.816406 211.238281 C 58.058594 213.921875 61.953125 217.09375 66.078125 219.945312 C 67.484375 220.917969 68.671875 222.167969 69.882812 223.382812 C 70.289062 223.789062 70.628906 224.285156 71.296875 224.574219 C 71.347656 223.265625 70.933594 222.175781 70.554688 221.085938 C 69.726562 218.683594 68.566406 216.425781 67.382812 214.1875 C 64.121094 208.035156 61.160156 201.761719 58.578125 195.277344 C 56.523438 190.117188 55.234375 184.722656 53.199219 179.570312 C 52.660156 178.210938 52.421875 176.730469 52.117188 175.292969 C 51.957031 174.546875 51.910156 173.773438 51.890625 173.007812 C 51.863281 172.179688 51.816406 171.1875 52.828125 170.949219 C 53.75 170.738281 54.132812 171.601562 54.449219 172.296875 C 55.527344 174.667969 57.058594 176.777344 58.296875 179.058594 C 61.867188 185.652344 64.914062 192.492188 67.925781 199.347656 C 69.136719 202.109375 70.039062 204.972656 70.695312 207.917969 C 70.8125 208.46875 70.984375 209.015625 71.296875 209.503906 C 71.296875 207.398438 71.414062 205.292969 71.269531 203.199219 C 71.007812 199.238281 71.273438 195.296875 71.410156 191.347656 C 71.8125 179.207031 70.960938 167.195312 67.957031 155.375 C 67.664062 154.222656 67.214844 153.53125 66.015625 153.207031 C 62.519531 152.257812 60.175781 149.796875 58.132812 146.96875 C 57.480469 146.066406 56.851562 145.152344 55.5625 145.03125 C 55.125 144.988281 54.6875 144.675781 54.308594 144.402344 C 51.324219 142.253906 49.074219 139.496094 47.609375 136.113281 C 47.179688 135.113281 47.03125 134.070312 47.261719 132.996094 C 47.554688 131.667969 48.394531 131.152344 49.742188 131.433594 C 50.464844 131.585938 51.046875 131.96875 51.585938 132.433594 C 52.539062 133.242188 53.371094 134.167969 54.027344 135.226562 C 55.820312 138.132812 57.703125 141.003906 58.4375 144.421875 C 58.449219 144.476562 58.46875 144.535156 58.488281 144.589844 C 59.441406 147.308594 63.605469 150.878906 66.539062 151.484375 C 66.898438 151.015625 66.527344 150.578125 66.417969 150.164062 C 65.234375 145.785156 64.027344 141.40625 62.808594 137.035156 C 62.300781 135.210938 62.0625 133.339844 61.789062 131.472656 C 61.660156 130.601562 61.527344 129.796875 60.558594 129.320312 C 59.757812 128.925781 59.359375 128.042969 58.945312 127.257812 C 56.886719 123.347656 56.628906 119.152344 57.046875 114.863281 C 57.050781 114.804688 57.078125 114.746094 57.089844 114.6875 C 57.480469 112.960938 58.160156 112.113281 59.28125 112.042969 C 60.789062 111.945312 61.488281 113.007812 62.042969 114.140625 C 63.015625 116.128906 63.417969 118.289062 63.539062 120.472656 C 63.683594 123.125 63.636719 125.78125 63.050781 128.394531 C 62.902344 129.042969 63.011719 129.671875 63.105469 130.316406 C 63.734375 134.707031 64.988281 138.953125 66.125 143.21875 C 67.8125 149.539062 69.972656 155.726562 71.109375 162.253906 C 71.601562 162.101562 71.597656 161.722656 71.625 161.4375 C 72.101562 157.035156 72.480469 152.636719 71.855469 148.207031 C 71.734375 147.347656 71.472656 146.789062 70.78125 146.167969 C 68.109375 143.796875 67.015625 140.6875 67.050781 137.15625 C 67.054688 136.921875 67.101562 136.683594 67.15625 136.457031 C 67.472656 135.160156 68.351562 134.246094 69.335938 134.191406 C 70.316406 134.128906 71.070312 134.703125 71.59375 136.097656 C 72.40625 138.253906 73.054688 140.492188 73.097656 142.800781 C 73.140625 145.519531 73.472656 148.207031 73.664062 150.914062 C 73.8125 152.980469 73.84375 155.027344 73.632812 157.089844 C 73.308594 160.199219 73.0625 163.308594 72.191406 166.332031 C 72.015625 166.945312 71.925781 167.570312 72.007812 168.246094 C 72.644531 173.277344 72.90625 178.347656 73.144531 183.410156 C 73.152344 183.625 73.113281 183.867188 73.332031 184.027344 C 73.660156 183.878906 73.609375 183.535156 73.679688 183.273438 C 74.609375 179.660156 76.097656 176.253906 77.730469 172.917969 C 79.023438 170.265625 80.296875 167.601562 81.761719 165.042969 C 84.332031 160.554688 85.605469 155.675781 86.285156 150.625 C 87.316406 142.941406 87.25 135.214844 86.746094 127.492188 C 86.078125 117.238281 85.96875 106.984375 86.589844 96.726562 C 86.65625 95.65625 86.871094 94.621094 87.332031 93.648438 C 87.621094 93.042969 87.976562 92.484375 88.765625 92.546875 C 89.558594 92.613281 89.847656 93.234375 90.019531 93.863281 C 90.234375 94.65625 90.421875 95.46875 90.484375 96.289062 C 90.789062 100.265625 91.6875 104.078125 93.347656 107.722656 C 95.628906 112.726562 96.039062 118.0625 95.976562 123.46875 C 95.929688 127.433594 95.511719 131.355469 94.558594 135.210938 C 94.488281 135.488281 94.394531 135.769531 94.570312 136.058594 C 94.976562 135.839844 95.066406 135.417969 95.226562 135.050781 C 96.714844 131.707031 98.421875 128.472656 100.21875 125.285156 C 102.996094 120.351562 105.394531 115.222656 107.96875 110.175781 C 108.878906 108.394531 109.757812 106.582031 110.816406 104.882812 C 111.796875 103.296875 112.480469 101.652344 112.746094 99.8125 C 113.339844 95.699219 114.589844 91.773438 116.304688 88 C 116.722656 87.085938 116.734375 86.289062 116.296875 85.332031 C 114.734375 81.9375 115.238281 78.542969 116.558594 75.207031 C 116.839844 74.488281 117.320312 73.875 117.921875 73.375 C 119.339844 72.207031 120.640625 72.597656 121.140625 74.355469 C 121.472656 75.511719 121.398438 76.710938 121.253906 77.871094 C 120.816406 81.347656 119.769531 84.609375 118.199219 87.777344 C 116.554688 91.085938 115.105469 94.527344 114.722656 98.390625 C 115.453125 98.125 115.671875 97.492188 115.976562 96.984375 C 118.605469 92.644531 121.3125 88.355469 124.265625 84.222656 C 126.152344 81.585938 128.160156 79.039062 129.761719 76.203125 C 130.296875 75.253906 130.710938 74.339844 130.597656 73.210938 C 130.472656 72.019531 130.773438 70.863281 131.160156 69.742188 C 132.230469 66.648438 133.644531 63.75 135.820312 61.269531 C 136.367188 60.648438 136.933594 60.042969 137.691406 59.675781 C 138.859375 59.109375 139.773438 59.457031 140.257812 60.660156 C 140.652344 61.632812 140.546875 62.636719 140.3125 63.621094 C 139.714844 66.132812 138.648438 68.46875 136.863281 70.316406 C 133.441406 73.851562 130.65625 77.839844 127.894531 81.882812 C 124.730469 86.507812 121.390625 91.011719 118.566406 95.859375 C 118.027344 96.777344 117.484375 97.695312 116.851562 98.546875 C 112.730469 104.128906 109.597656 110.269531 106.585938 116.484375 C 104.753906 120.253906 102.816406 123.960938 100.746094 127.605469 C 97.917969 132.589844 95.753906 137.890625 93.410156 143.105469 C 93.320312 143.300781 93.269531 143.511719 93.113281 143.980469 C 93.839844 143.480469 94.09375 142.953125 94.386719 142.476562 C 95.78125 140.21875 97.230469 137.992188 98.511719 135.667969 C 100.945312 131.261719 103.632812 127.050781 107.144531 123.402344 C 107.636719 122.894531 108.117188 122.371094 108.539062 121.804688 C 113.347656 115.421875 119.148438 109.929688 124.453125 103.992188 C 125.355469 102.980469 126.296875 102 127.253906 101.042969 C 132.175781 96.125 137.109375 91.214844 142.039062 86.300781 C 143.921875 84.425781 145.929688 82.699219 148.089844 81.144531 C 149.382812 80.214844 150.632812 79.207031 151.785156 78.117188 C 155.429688 74.660156 159.359375 71.542969 163.214844 68.335938 C 163.484375 68.105469 163.769531 67.894531 164.050781 67.683594 C 164.519531 67.335938 165.007812 66.816406 165.621094 67.175781 C 166.289062 67.5625 165.722656 68.234375 165.8125 68.714844 Z M 132.359375 72.847656 C 134.199219 71.019531 135.796875 69.402344 137.003906 67.445312 C 137.871094 66.039062 138.519531 64.539062 138.828125 62.902344 C 138.949219 62.273438 139.136719 61.640625 138.519531 61.144531 C 135.699219 62.882812 132.296875 69.175781 132.359375 72.847656 Z M 117.925781 84.683594 C 119.152344 81.171875 120.105469 78 119.539062 74.4375 C 117.066406 76.007812 116.199219 81.265625 117.925781 84.683594 Z M 71.589844 144.335938 C 71.464844 141.277344 71.015625 138.460938 69.539062 135.628906 C 67.914062 137.890625 69.109375 142.679688 71.589844 144.335938 Z M 61.90625 120.09375 C 61.746094 118.257812 61.386719 116.480469 60.589844 114.8125 C 60.347656 114.304688 60.101562 113.605469 59.378906 113.761719 C 58.789062 113.886719 58.742188 114.539062 58.640625 115.058594 C 58.621094 115.175781 58.613281 115.289062 58.597656 115.40625 C 58.144531 118.867188 58.546875 122.226562 59.835938 125.460938 C 60.175781 126.316406 60.570312 127.175781 61.324219 127.800781 C 61.890625 127.285156 61.792969 126.652344 61.832031 126.09375 C 61.960938 124.097656 62.082031 122.097656 61.90625 120.09375 Z M 56.574219 143.386719 C 55.136719 140.128906 53.652344 136.96875 51.253906 134.332031 C 50.683594 133.699219 49.9375 132.636719 49.121094 133.132812 C 48.195312 133.691406 48.78125 134.859375 49.15625 135.6875 C 50.464844 138.589844 52.394531 141.019531 54.960938 142.910156 C 55.359375 143.207031 55.746094 143.648438 56.574219 143.386719 Z M 68.417969 211.152344 C 67.679688 208.855469 66.867188 206.578125 66.171875 204.265625 C 65.492188 201.996094 64.640625 199.789062 63.503906 197.726562 C 60.015625 191.410156 57.328125 184.753906 54.914062 177.972656 C 54.726562 177.4375 54.617188 176.867188 54.070312 176.492188 C 55.785156 182.84375 58.199219 188.96875 60.355469 195.175781 C 62.675781 201.828125 67.335938 211.449219 68.886719 213.039062 C 68.964844 212.324219 68.613281 211.753906 68.417969 211.152344 Z M 70.3125 213.457031 C 69.398438 209.378906 68.660156 205.253906 67.03125 201.378906 C 63.972656 194.109375 60.710938 186.933594 56.972656 179.980469 C 56.808594 179.671875 56.683594 179.332031 55.992188 178.960938 C 57.84375 183.703125 59.25 188.1875 61.5 192.339844 C 64.144531 197.207031 66.480469 202.203125 67.917969 207.59375 C 68.511719 209.828125 69.394531 211.980469 70.144531 214.175781 C 70.316406 213.910156 70.359375 213.671875 70.3125 213.457031 Z M 37.699219 208.753906 C 39.15625 208.886719 40.644531 209.089844 42.015625 209.636719 C 46.773438 211.53125 51.613281 213.246094 55.902344 216.15625 C 58.726562 218.070312 61.570312 219.976562 64.566406 221.628906 C 65.074219 221.90625 65.527344 222.386719 66.320312 222.308594 C 65.550781 221.433594 64.710938 220.882812 63.902344 220.300781 C 61.5625 218.605469 59.21875 216.917969 56.875 215.230469 C 53.859375 213.058594 50.707031 211.097656 47.453125 209.304688 C 44.613281 207.742188 41.582031 206.890625 38.378906 206.578125 C 36.675781 206.410156 34.980469 206.175781 33.285156 205.996094 C 32.441406 205.910156 31.597656 205.867188 30.753906 205.808594 C 30.734375 205.9375 30.707031 206.066406 30.683594 206.191406 C 33.027344 207.035156 35.097656 208.515625 37.699219 208.753906 Z M 68.6875 225.136719 C 67.855469 224.144531 66.730469 223.625 65.675781 223.007812 C 63.75 221.875 61.722656 220.878906 59.914062 219.582031 C 54.664062 215.808594 48.972656 212.921875 42.9375 210.648438 C 40.585938 209.765625 38.148438 209.480469 35.636719 209.160156 C 35.78125 209.691406 36.132812 209.832031 36.394531 210.046875 C 38.789062 211.992188 41.480469 213.433594 44.246094 214.773438 C 49.910156 217.511719 55.769531 219.851562 61.292969 222.898438 C 63.582031 224.164062 66.113281 224.695312 68.6875 225.136719 Z M 78.257812 232.289062 C 80.6875 235.527344 82.917969 238.855469 85.683594 241.765625 C 88.761719 245.015625 91.910156 248.203125 94.523438 251.863281 C 96.34375 254.410156 98.40625 256.742188 100.667969 258.917969 C 102.839844 261.003906 105.152344 262.917969 107.402344 264.914062 C 108.597656 265.976562 109.9375 266.878906 111.214844 267.855469 C 111.125 267.046875 110.597656 266.671875 110.160156 266.238281 C 107.351562 263.457031 104.59375 260.628906 102.0625 257.589844 C 98.636719 253.472656 95.253906 249.308594 91.839844 245.171875 C 89.097656 241.855469 86.179688 238.691406 83.09375 235.683594 C 81.675781 234.304688 80.152344 233.042969 78.257812 232.289062 Z M 78.015625 234.230469 C 81.335938 240.40625 84.953125 246.410156 88.851562 252.238281 C 91.179688 255.722656 93.886719 258.917969 96.757812 261.964844 C 98.511719 263.816406 100.4375 265.484375 102.824219 266.445312 C 105.773438 267.636719 108.6875 268.902344 111.589844 270.199219 C 112.019531 270.394531 112.457031 270.84375 113.03125 270.507812 C 112.855469 270.089844 112.460938 269.902344 112.160156 269.628906 C 109.589844 267.292969 106.742188 265.289062 104.136719 262.984375 C 100.285156 259.574219 96.601562 256.035156 93.640625 251.800781 C 92.417969 250.066406 91.089844 248.402344 89.601562 246.890625 C 85.753906 242.980469 82.160156 238.855469 78.875 234.460938 C 78.617188 234.117188 78.410156 233.683594 77.933594 233.558594 C 77.722656 233.839844 77.910156 234.035156 78.015625 234.230469 Z M 86.925781 204.210938 C 83.136719 209.785156 79.4375 215.402344 78.242188 222.226562 C 81.882812 216.578125 84.976562 210.671875 86.925781 204.210938 Z M 75.496094 226.972656 C 76.453125 224.894531 77.1875 222.742188 77.789062 220.535156 C 78.582031 217.625 79.691406 214.847656 81.109375 212.175781 C 82.941406 208.734375 85.128906 205.511719 87.082031 202.144531 C 87.574219 201.292969 88.15625 200.472656 88.496094 199.136719 C 88.144531 199.410156 88.027344 199.460938 87.964844 199.554688 C 84.3125 205.058594 80.496094 210.457031 77.449219 216.339844 C 76.464844 218.238281 75.753906 220.226562 75.546875 222.375 C 75.429688 223.609375 75.273438 224.832031 75.144531 226.066406 C 75.113281 226.378906 74.898438 226.757812 75.496094 226.972656 Z M 121.519531 132.105469 C 121.089844 132.667969 120.761719 133.078125 120.457031 133.503906 C 117.890625 137.105469 115.550781 140.851562 113.257812 144.632812 C 110.941406 148.449219 108.925781 152.457031 105.925781 155.84375 C 102.410156 159.8125 99.078125 163.945312 95.132812 167.519531 C 92.816406 169.628906 90.347656 171.527344 87.789062 173.328125 C 86.660156 174.121094 85.441406 174.839844 84.542969 176.074219 C 84.84375 176.097656 85.027344 176.160156 85.179688 176.113281 C 87.394531 175.460938 89.53125 174.65625 91.464844 173.355469 C 93.175781 172.203125 94.871094 171.019531 96.660156 170 C 98.835938 168.761719 100.742188 167.214844 102.523438 165.480469 C 105.980469 162.117188 108.664062 158.183594 110.957031 153.972656 C 112.847656 150.507812 114.6875 147.019531 116.550781 143.535156 C 118.304688 140.261719 119.875 136.902344 121.289062 133.46875 C 121.433594 133.109375 121.757812 132.773438 121.519531 132.105469 Z M 81.796875 176.96875 C 82.378906 176.957031 82.570312 176.71875 82.773438 176.523438 C 84.84375 174.589844 87.140625 172.9375 89.460938 171.316406 C 90.859375 170.335938 92.160156 169.222656 93.472656 168.132812 C 97.527344 164.753906 100.839844 160.671875 104.296875 156.738281 C 106 154.796875 107.738281 152.839844 109.027344 150.578125 C 112.824219 143.929688 116.738281 137.351562 121.316406 131.191406 C 121.609375 130.800781 122.023438 130.4375 122.023438 129.621094 C 119.15625 131.96875 116.683594 134.371094 114.632812 137.179688 C 110.941406 142.21875 107.171875 147.199219 103.4375 152.207031 C 98.285156 159.125 92.605469 165.5625 86.472656 171.613281 C 84.835938 173.226562 83.277344 174.90625 81.796875 176.96875 Z M 88.648438 148.101562 C 89.855469 143.472656 90.746094 138.796875 90.9375 134.007812 C 91.019531 131.890625 90.980469 129.765625 91.101562 127.648438 C 91.273438 124.632812 91.136719 121.636719 90.6875 118.660156 C 89.734375 112.3125 88.867188 105.957031 88.671875 99.527344 C 88.644531 98.605469 88.507812 97.683594 88.425781 96.761719 C 87.890625 98.492188 88.011719 100.242188 87.933594 101.972656 C 87.597656 109.753906 87.707031 117.523438 88.207031 125.296875 C 88.546875 130.589844 88.90625 135.878906 88.566406 141.191406 C 88.402344 143.75 88.429688 146.316406 88.09375 149.269531 C 88.40625 148.628906 88.582031 148.378906 88.648438 148.101562 Z M 91.765625 140.457031 C 92.953125 135.167969 94.316406 129.910156 94.414062 124.441406 C 94.496094 120.003906 94.382812 115.582031 92.972656 111.328125 C 91.992188 108.378906 90.792969 105.5 89.699219 102.585938 L 89.4375 102.664062 C 89.722656 105.648438 89.882812 108.652344 90.328125 111.613281 C 91.203125 117.382812 92.039062 123.128906 91.714844 129.007812 C 91.5 133.003906 91.59375 137.015625 90.847656 140.976562 C 90.523438 142.703125 90.226562 144.4375 89.921875 146.164062 C 90.902344 144.359375 91.332031 142.40625 91.765625 140.457031 Z M 159.234375 75.539062 C 157.1875 76.980469 155.457031 78.730469 153.871094 80.632812 C 150.628906 84.527344 147.378906 88.429688 143.636719 91.863281 C 139.683594 95.484375 135.535156 98.886719 131.273438 102.148438 C 126.167969 106.058594 121.222656 110.148438 116.691406 114.726562 C 116.226562 115.199219 115.785156 115.703125 115.199219 116.34375 C 116.089844 116.34375 116.550781 115.949219 117.0625 115.695312 C 121.203125 113.65625 124.835938 110.804688 128.710938 108.34375 C 130.550781 107.175781 132.339844 105.917969 133.960938 104.449219 C 141 98.066406 147.550781 91.207031 153.597656 83.875 C 155.734375 81.292969 157.617188 78.519531 159.234375 75.539062 Z M 161.441406 72.15625 C 160.917969 72.050781 160.710938 72.492188 160.417969 72.722656 C 155.527344 76.617188 151.160156 81.136719 146.046875 84.769531 C 145.136719 85.410156 144.273438 86.191406 143.617188 87.082031 C 142.976562 87.945312 142.234375 88.675781 141.476562 89.414062 C 136.871094 93.902344 132.265625 98.386719 127.671875 102.890625 C 126.757812 103.789062 125.917969 104.765625 125.046875 105.707031 C 125.144531 105.792969 125.234375 105.878906 125.328125 105.960938 C 127.089844 104.589844 128.851562 103.214844 130.613281 101.835938 C 138.300781 95.84375 145.816406 89.660156 151.902344 81.953125 C 154.433594 78.742188 157.277344 75.851562 160.535156 73.367188 C 160.941406 73.0625 161.390625 72.761719 161.441406 72.15625 Z M 161.441406 72.15625 " fill-opacity="1" fill-rule="nonzero"/></g><g clip-path="url(#776c8fc01c)"><path fill="#c7a974" d="M 169.308594 262.5 C 176.53125 262.5 183.46875 260.917969 189.925781 257.804688 C 190.414062 257.570312 190.679688 257.035156 190.574219 256.503906 C 190.46875 255.972656 190.019531 255.578125 189.476562 255.546875 C 168.011719 254.324219 151.195312 236.503906 151.195312 214.984375 C 151.195312 193.460938 168.011719 175.640625 189.476562 174.417969 C 190.019531 174.386719 190.46875 173.992188 190.574219 173.460938 C 190.679688 172.929688 190.414062 172.394531 189.925781 172.160156 C 183.46875 169.046875 176.53125 167.46875 169.308594 167.46875 C 167.707031 167.46875 166.121094 167.546875 164.558594 167.703125 L 164.558594 153.496094 C 164.84375 153.695312 165.152344 153.867188 165.480469 154.007812 C 166.097656 154.269531 166.753906 154.398438 167.40625 154.398438 C 168.570312 154.398438 169.71875 153.988281 170.609375 153.210938 C 171.496094 152.433594 172.050781 151.386719 172.25 150.167969 C 173.328125 150.816406 174.507812 151.082031 175.695312 150.914062 C 177.636719 150.640625 179.304688 149.21875 179.945312 147.296875 C 180.375 146.003906 180.3125 144.660156 179.789062 143.398438 C 181.921875 143.148438 183.519531 141.660156 184.183594 139.847656 C 184.9375 137.78125 184.5 135.257812 182.480469 133.613281 C 184.5 131.96875 184.9375 129.445312 184.183594 127.378906 C 183.519531 125.566406 181.921875 124.078125 179.789062 123.828125 C 180.3125 122.5625 180.375 121.222656 179.945312 119.929688 C 179.304688 118.003906 177.636719 116.585938 175.695312 116.3125 C 174.507812 116.144531 173.328125 116.40625 172.25 117.058594 C 172.050781 115.839844 171.496094 114.792969 170.609375 114.015625 C 169.21875 112.796875 167.203125 112.484375 165.480469 113.21875 C 164.621094 113.582031 163.910156 114.15625 163.371094 114.902344 C 162.832031 114.15625 162.117188 113.582031 161.261719 113.21875 C 159.539062 112.484375 157.523438 112.800781 156.132812 114.015625 C 155.246094 114.792969 154.691406 115.839844 154.492188 117.058594 C 153.414062 116.40625 152.234375 116.144531 151.046875 116.3125 C 149.105469 116.585938 147.4375 118.003906 146.796875 119.929688 C 146.363281 121.222656 146.429688 122.5625 146.953125 123.828125 C 144.820312 124.078125 143.222656 125.566406 142.558594 127.378906 C 141.804688 129.445312 142.242188 131.96875 144.261719 133.613281 C 142.242188 135.257812 141.804688 137.78125 142.558594 139.847656 C 143.222656 141.660156 144.820312 143.148438 146.953125 143.398438 C 146.429688 144.660156 146.367188 146.003906 146.796875 147.296875 C 147.4375 149.222656 149.105469 150.640625 151.046875 150.914062 C 152.234375 151.082031 153.414062 150.816406 154.492188 150.167969 C 154.691406 151.386719 155.246094 152.433594 156.132812 153.210938 C 157.523438 154.425781 159.539062 154.742188 161.261719 154.007812 C 161.589844 153.867188 161.898438 153.695312 162.183594 153.496094 L 162.183594 168.003906 C 139.351562 171.449219 121.796875 191.203125 121.796875 214.984375 C 121.796875 241.183594 143.109375 262.5 169.308594 262.5 Z M 153.625 133.613281 C 153.625 128.238281 158 123.867188 163.371094 123.867188 C 168.742188 123.867188 173.113281 128.238281 173.113281 133.613281 C 173.113281 138.984375 168.742188 143.355469 163.371094 143.355469 C 158 143.355469 153.625 138.984375 153.625 133.613281 Z M 169.042969 151.421875 C 168.335938 152.042969 167.300781 152.199219 166.410156 151.820312 C 165.3125 151.355469 164.640625 150.167969 164.558594 148.5625 L 164.558594 145.671875 C 165.902344 145.542969 167.175781 145.191406 168.355469 144.65625 L 169.746094 147.59375 C 170.191406 149.277344 169.945312 150.632812 169.042969 151.421875 Z M 177.691406 146.546875 C 177.332031 147.621094 176.417969 148.414062 175.363281 148.5625 C 174.144531 148.734375 172.917969 148.035156 171.902344 146.59375 L 170.417969 143.460938 C 171.484375 142.695312 172.421875 141.765625 173.191406 140.699219 L 176.589844 142.835938 C 178.097656 144.394531 177.929688 145.824219 177.691406 146.546875 Z M 181.949219 139.03125 C 181.429688 140.453125 179.964844 141.542969 177.855469 140.824219 L 174.390625 138.648438 C 174.9375 137.453125 175.296875 136.160156 175.429688 134.800781 L 179.835938 134.800781 C 182.035156 135.695312 182.492188 137.550781 181.949219 139.03125 Z M 181.949219 128.195312 C 182.492188 129.675781 182.035156 131.53125 179.835938 132.425781 L 175.429688 132.425781 C 175.296875 131.066406 174.9375 129.769531 174.390625 128.578125 L 177.855469 126.398438 C 179.964844 125.683594 181.429688 126.773438 181.949219 128.195312 Z M 175.363281 118.664062 C 176.417969 118.8125 177.332031 119.605469 177.691406 120.679688 C 177.933594 121.402344 178.097656 122.832031 176.589844 124.390625 L 173.191406 126.523438 C 172.421875 125.460938 171.484375 124.527344 170.417969 123.761719 L 171.902344 120.632812 C 172.917969 119.191406 174.144531 118.492188 175.363281 118.664062 Z M 166.410156 115.40625 C 167.300781 115.027344 168.335938 115.183594 169.042969 115.804688 C 169.945312 116.589844 170.191406 117.949219 169.746094 119.632812 L 168.355469 122.570312 C 167.175781 122.035156 165.902344 121.683594 164.558594 121.550781 L 164.558594 118.664062 C 164.640625 117.058594 165.3125 115.871094 166.410156 115.40625 Z M 157.695312 115.804688 C 158.40625 115.183594 159.441406 115.027344 160.332031 115.40625 C 161.429688 115.871094 162.101562 117.058594 162.183594 118.660156 L 162.183594 121.550781 C 160.839844 121.683594 159.566406 122.035156 158.386719 122.570312 L 156.996094 119.632812 C 156.550781 117.949219 156.796875 116.589844 157.695312 115.804688 Z M 149.050781 120.679688 C 149.410156 119.605469 150.324219 118.8125 151.378906 118.664062 C 152.597656 118.492188 153.824219 119.191406 154.839844 120.632812 L 156.320312 123.761719 C 155.253906 124.527344 154.316406 125.460938 153.546875 126.523438 L 150.152344 124.390625 C 148.644531 122.832031 148.808594 121.402344 149.050781 120.679688 Z M 144.792969 128.195312 C 145.3125 126.773438 146.777344 125.683594 148.886719 126.398438 L 152.351562 128.578125 C 151.804688 129.769531 151.441406 131.066406 151.308594 132.425781 L 146.90625 132.425781 C 144.707031 131.53125 144.25 129.675781 144.792969 128.195312 Z M 144.792969 139.03125 C 144.25 137.550781 144.707031 135.695312 146.90625 134.800781 L 151.308594 134.800781 C 151.441406 136.160156 151.804688 137.453125 152.351562 138.648438 L 148.886719 140.824219 C 146.777344 141.542969 145.3125 140.453125 144.792969 139.03125 Z M 151.378906 148.5625 C 150.324219 148.414062 149.410156 147.621094 149.050781 146.546875 C 148.808594 145.824219 148.644531 144.394531 150.152344 142.835938 L 153.546875 140.699219 C 154.316406 141.765625 155.253906 142.695312 156.320312 143.460938 L 154.839844 146.59375 C 153.824219 148.035156 152.597656 148.734375 151.378906 148.5625 Z M 160.332031 151.820312 C 159.441406 152.199219 158.40625 152.042969 157.695312 151.421875 C 156.796875 150.632812 156.550781 149.277344 156.996094 147.59375 L 158.386719 144.65625 C 159.566406 145.1875 160.839844 145.542969 162.183594 145.671875 L 162.183594 148.5625 C 162.101562 150.167969 161.429688 151.355469 160.332031 151.820312 Z M 169.308594 169.84375 C 174.652344 169.84375 179.832031 170.753906 184.757812 172.550781 C 164.269531 175.9375 148.820312 193.757812 148.820312 214.984375 C 148.820312 236.207031 164.269531 254.027344 184.757812 257.414062 C 179.832031 259.210938 174.652344 260.121094 169.308594 260.121094 C 144.421875 260.121094 124.171875 239.871094 124.171875 214.984375 C 124.171875 190.09375 144.421875 169.84375 169.308594 169.84375 Z M 144.363281 215.578125 C 144.363281 211.320312 140.882812 207.855469 136.605469 207.855469 C 132.328125 207.855469 128.847656 211.320312 128.847656 215.578125 C 128.847656 219.835938 132.328125 223.296875 136.605469 223.296875 C 140.882812 223.296875 144.363281 219.835938 144.363281 215.578125 Z M 136.605469 220.921875 C 133.636719 220.921875 131.222656 218.523438 131.222656 215.578125 C 131.222656 212.628906 133.636719 210.230469 136.605469 210.230469 C 139.574219 210.230469 141.988281 212.628906 141.988281 215.578125 C 141.988281 218.523438 139.574219 220.921875 136.605469 220.921875 Z M 143.769531 197.164062 C 146.71875 197.164062 149.117188 194.765625 149.117188 191.820312 C 149.117188 188.871094 146.71875 186.472656 143.769531 186.472656 C 140.824219 186.472656 138.425781 188.871094 138.425781 191.820312 C 138.425781 194.765625 140.824219 197.164062 143.769531 197.164062 Z M 143.769531 188.847656 C 145.410156 188.847656 146.742188 190.179688 146.742188 191.820312 C 146.742188 193.457031 145.410156 194.789062 143.769531 194.789062 C 142.132812 194.789062 140.800781 193.457031 140.800781 191.820312 C 140.800781 190.179688 142.132812 188.847656 143.769531 188.847656 Z M 143.769531 233.988281 C 140.824219 233.988281 138.425781 236.386719 138.425781 239.335938 C 138.425781 242.28125 140.824219 244.679688 143.769531 244.679688 C 146.71875 244.679688 149.117188 242.28125 149.117188 239.335938 C 149.117188 236.386719 146.71875 233.988281 143.769531 233.988281 Z M 143.769531 242.304688 C 142.132812 242.304688 140.800781 240.972656 140.800781 239.335938 C 140.800781 237.695312 142.132812 236.363281 143.769531 236.363281 C 145.410156 236.363281 146.742188 237.695312 146.742188 239.335938 C 146.742188 240.972656 145.410156 242.304688 143.769531 242.304688 Z M 270.28125 214.984375 C 270.28125 191.203125 252.722656 171.449219 229.890625 168.003906 L 229.890625 153.496094 C 230.175781 153.695312 230.484375 153.867188 230.8125 154.007812 C 231.433594 154.269531 232.089844 154.398438 232.738281 154.398438 C 233.902344 154.398438 235.050781 153.988281 235.941406 153.210938 C 236.832031 152.433594 237.382812 151.386719 237.585938 150.167969 C 238.660156 150.816406 239.839844 151.082031 241.027344 150.914062 C 242.96875 150.640625 244.636719 149.21875 245.277344 147.296875 C 245.710938 146.003906 245.644531 144.660156 245.121094 143.398438 C 247.253906 143.148438 248.851562 141.660156 249.515625 139.847656 C 250.269531 137.78125 249.835938 135.257812 247.8125 133.613281 C 249.835938 131.96875 250.269531 129.445312 249.515625 127.378906 C 248.851562 125.566406 247.253906 124.078125 245.121094 123.828125 C 245.644531 122.5625 245.710938 121.222656 245.277344 119.929688 C 244.636719 118.003906 242.96875 116.585938 241.027344 116.3125 C 239.839844 116.144531 238.660156 116.40625 237.585938 117.058594 C 237.386719 115.839844 236.832031 114.792969 235.941406 114.015625 C 234.550781 112.796875 232.539062 112.484375 230.8125 113.21875 C 229.957031 113.582031 229.246094 114.15625 228.703125 114.902344 C 228.164062 114.15625 227.453125 113.582031 226.59375 113.21875 C 224.871094 112.484375 222.859375 112.800781 221.464844 114.015625 C 220.578125 114.792969 220.023438 115.839844 219.824219 117.058594 C 218.746094 116.40625 217.570312 116.144531 216.378906 116.3125 C 214.4375 116.585938 212.769531 118.003906 212.128906 119.929688 C 211.699219 121.222656 211.765625 122.5625 212.289062 123.828125 C 210.15625 124.078125 208.554688 125.566406 207.894531 127.378906 C 207.136719 129.445312 207.574219 131.96875 209.597656 133.613281 C 207.574219 135.257812 207.136719 137.78125 207.894531 139.847656 C 208.554688 141.660156 210.15625 143.148438 212.289062 143.398438 C 211.765625 144.660156 211.699219 146.003906 212.128906 147.296875 C 212.769531 149.222656 214.4375 150.640625 216.378906 150.914062 C 217.570312 151.082031 218.746094 150.816406 219.824219 150.167969 C 220.023438 151.386719 220.578125 152.433594 221.464844 153.210938 C 222.859375 154.425781 224.871094 154.742188 226.59375 154.007812 C 226.925781 153.867188 227.230469 153.695312 227.515625 153.496094 L 227.515625 167.703125 C 225.953125 167.546875 224.367188 167.46875 222.765625 167.46875 C 215.542969 167.46875 208.609375 169.046875 202.148438 172.160156 C 201.664062 172.394531 201.394531 172.929688 201.5 173.460938 C 201.605469 173.992188 202.058594 174.386719 202.597656 174.417969 C 224.066406 175.640625 240.878906 193.460938 240.878906 214.984375 C 240.878906 236.503906 224.066406 254.324219 202.597656 255.550781 C 202.058594 255.578125 201.605469 255.972656 201.5 256.503906 C 201.394531 257.035156 201.660156 257.570312 202.148438 257.804688 C 208.609375 260.917969 215.542969 262.5 222.765625 262.5 C 248.964844 262.5 270.28125 241.183594 270.28125 214.984375 Z M 218.960938 133.613281 C 218.960938 128.238281 223.332031 123.867188 228.703125 123.867188 C 234.078125 123.867188 238.449219 128.238281 238.449219 133.613281 C 238.449219 138.984375 234.078125 143.355469 228.703125 143.355469 C 223.332031 143.355469 218.960938 138.984375 218.960938 133.613281 Z M 234.378906 151.421875 C 233.667969 152.042969 232.632812 152.199219 231.742188 151.820312 C 230.648438 151.355469 229.972656 150.167969 229.890625 148.5625 L 229.890625 145.671875 C 231.234375 145.542969 232.511719 145.191406 233.6875 144.65625 L 235.078125 147.59375 C 235.523438 149.277344 235.277344 150.632812 234.378906 151.421875 Z M 243.023438 146.546875 C 242.667969 147.621094 241.753906 148.414062 240.695312 148.5625 C 239.476562 148.734375 238.25 148.035156 237.234375 146.59375 L 235.753906 143.460938 C 236.820312 142.695312 237.757812 141.765625 238.527344 140.699219 L 241.921875 142.835938 C 243.429688 144.394531 243.265625 145.824219 243.023438 146.546875 Z M 247.285156 139.03125 C 246.761719 140.453125 245.296875 141.542969 243.191406 140.824219 L 239.722656 138.648438 C 240.269531 137.453125 240.632812 136.160156 240.765625 134.800781 L 245.167969 134.800781 C 247.367188 135.695312 247.824219 137.550781 247.285156 139.03125 Z M 247.285156 128.195312 C 247.824219 129.675781 247.367188 131.53125 245.167969 132.425781 L 240.765625 132.425781 C 240.632812 131.066406 240.269531 129.769531 239.722656 128.578125 L 243.191406 126.398438 C 245.296875 125.679688 246.761719 126.773438 247.285156 128.195312 Z M 240.695312 118.664062 C 241.753906 118.8125 242.667969 119.605469 243.023438 120.679688 C 243.265625 121.402344 243.429688 122.832031 241.921875 124.390625 L 238.527344 126.523438 C 237.757812 125.460938 236.820312 124.527344 235.753906 123.761719 L 237.234375 120.632812 C 238.25 119.191406 239.476562 118.492188 240.695312 118.664062 Z M 231.742188 115.40625 C 232.632812 115.027344 233.667969 115.183594 234.378906 115.804688 C 235.277344 116.589844 235.523438 117.949219 235.078125 119.632812 L 233.6875 122.570312 C 232.511719 122.035156 231.234375 121.683594 229.890625 121.550781 L 229.890625 118.664062 C 229.972656 117.058594 230.648438 115.871094 231.742188 115.40625 Z M 223.03125 115.804688 C 223.742188 115.183594 224.777344 115.027344 225.667969 115.40625 C 226.761719 115.871094 227.433594 117.058594 227.515625 118.660156 L 227.515625 121.550781 C 226.175781 121.683594 224.898438 122.035156 223.71875 122.570312 L 222.328125 119.632812 C 221.886719 117.949219 222.132812 116.589844 223.03125 115.804688 Z M 214.382812 120.679688 C 214.742188 119.605469 215.65625 118.8125 216.714844 118.664062 C 217.933594 118.492188 219.160156 119.191406 220.175781 120.632812 L 221.65625 123.761719 C 220.589844 124.527344 219.652344 125.460938 218.882812 126.523438 L 215.484375 124.390625 C 213.976562 122.832031 214.144531 121.402344 214.382812 120.679688 Z M 210.125 128.195312 C 210.644531 126.773438 212.109375 125.683594 214.21875 126.398438 L 217.683594 128.578125 C 217.136719 129.769531 216.777344 131.066406 216.644531 132.425781 L 212.238281 132.425781 C 210.042969 131.53125 209.582031 129.675781 210.125 128.195312 Z M 210.125 139.03125 C 209.582031 137.550781 210.042969 135.695312 212.238281 134.800781 L 216.644531 134.800781 C 216.777344 136.160156 217.136719 137.453125 217.683594 138.648438 L 214.21875 140.824219 C 212.109375 141.542969 210.644531 140.453125 210.125 139.03125 Z M 216.714844 148.5625 C 215.65625 148.414062 214.742188 147.621094 214.382812 146.546875 C 214.144531 145.824219 213.976562 144.394531 215.484375 142.835938 L 218.882812 140.699219 C 219.652344 141.765625 220.589844 142.695312 221.65625 143.460938 L 220.175781 146.59375 C 219.160156 148.035156 217.933594 148.734375 216.714844 148.5625 Z M 225.667969 151.820312 C 224.773438 152.199219 223.742188 152.042969 223.03125 151.421875 C 222.132812 150.632812 221.886719 149.277344 222.328125 147.59375 L 223.71875 144.65625 C 224.898438 145.1875 226.175781 145.542969 227.515625 145.671875 L 227.515625 148.5625 C 227.433594 150.167969 226.761719 151.355469 225.667969 151.820312 Z M 222.765625 260.121094 C 217.421875 260.121094 212.242188 259.210938 207.316406 257.414062 C 227.804688 254.027344 243.257812 236.207031 243.257812 214.984375 C 243.257812 193.757812 227.804688 175.9375 207.316406 172.550781 C 212.242188 170.753906 217.421875 169.84375 222.765625 169.84375 C 247.65625 169.84375 267.90625 190.09375 267.90625 214.984375 C 267.90625 239.871094 247.65625 260.121094 222.765625 260.121094 Z M 255.46875 207.855469 C 251.191406 207.855469 247.710938 211.320312 247.710938 215.578125 C 247.710938 219.835938 251.191406 223.296875 255.46875 223.296875 C 259.746094 223.296875 263.226562 219.835938 263.226562 215.578125 C 263.226562 211.320312 259.746094 207.855469 255.46875 207.855469 Z M 255.46875 220.921875 C 252.5 220.921875 250.085938 218.523438 250.085938 215.578125 C 250.085938 212.628906 252.5 210.230469 255.46875 210.230469 C 258.4375 210.230469 260.851562 212.628906 260.851562 215.578125 C 260.851562 218.523438 258.4375 220.921875 255.46875 220.921875 Z M 248.304688 197.164062 C 251.253906 197.164062 253.648438 194.765625 253.648438 191.820312 C 253.648438 188.871094 251.253906 186.472656 248.304688 186.472656 C 245.355469 186.472656 242.960938 188.871094 242.960938 191.820312 C 242.960938 194.765625 245.355469 197.164062 248.304688 197.164062 Z M 248.304688 188.847656 C 249.941406 188.847656 251.273438 190.179688 251.273438 191.820312 C 251.273438 193.457031 249.941406 194.789062 248.304688 194.789062 C 246.667969 194.789062 245.335938 193.457031 245.335938 191.820312 C 245.335938 190.179688 246.667969 188.847656 248.304688 188.847656 Z M 248.304688 233.988281 C 245.355469 233.988281 242.960938 236.386719 242.960938 239.335938 C 242.960938 242.28125 245.355469 244.679688 248.304688 244.679688 C 251.253906 244.679688 253.648438 242.28125 253.648438 239.335938 C 253.648438 236.386719 251.253906 233.988281 248.304688 233.988281 Z M 248.304688 242.304688 C 246.667969 242.304688 245.335938 240.972656 245.335938 239.335938 C 245.335938 237.695312 246.667969 236.363281 248.304688 236.363281 C 249.941406 236.363281 251.273438 237.695312 251.273438 239.335938 C 251.273438 240.972656 249.941406 242.304688 248.304688 242.304688 Z M 248.304688 242.304688 " fill-opacity="1" fill-rule="nonzero"/></g></svg>